<?xml version="1.0" standalone="no"?>
<!DOCTYPE svg PUBLIC "-//W3C//DTD SVG 20010904//EN"
 "http://www.w3.org/TR/2001/REC-SVG-20010904/DTD/svg10.dtd">
<svg version="1.0" xmlns="http://www.w3.org/2000/svg"
 width="502.000000pt" height="401.000000pt" viewBox="0 0 502.000000 401.000000"
 preserveAspectRatio="xMidYMid meet">

<g transform="translate(0.000000,401.000000) scale(0.100000,-0.100000)"
fill="#000000" stroke="none">
<path d="M0 2005 l0 -2005 2510 0 2510 0 0 2005 0 2005 -2510 0 -2510 0 0
-2005z m2257 632 l28 -27 0 -640 0 -640 -28 -27 -27 -28 -640 0 -640 0 -27 28
-28 27 0 639 c0 625 0 639 20 661 11 12 29 26 40 31 11 4 302 7 647 6 l628 -2
27 -28z m261 -296 l2 -223 121 4 121 3 29 33 c23 26 29 41 29 80 0 27 -6 57
-14 67 -11 16 -11 24 0 52 30 70 7 144 -51 169 -20 8 -68 14 -115 14 l-80 0 0
-75 0 -75 79 0 c83 0 97 6 86 40 -5 17 -15 20 -61 20 -51 0 -54 -1 -54 -25 0
-16 -6 -25 -15 -25 -11 0 -15 11 -15 40 l0 40 69 0 c49 0 74 -5 85 -15 25 -25
29 -54 12 -80 -16 -24 -22 -25 -111 -25 l-95 0 0 106 0 106 103 -4 c156 -6
203 -41 199 -147 -3 -91 -2 -113 4 -171 5 -47 2 -60 -18 -90 -39 -58 -75 -70
-215 -70 l-123 0 0 241 c0 188 3 240 13 237 9 -4 13 -60 15 -227z m440 12 c-2
-162 -6 -217 -15 -221 -10 -3 -13 42 -13 202 0 131 -4 206 -10 206 -6 0 -10
-77 -10 -210 l0 -210 110 0 110 0 0 30 c0 30 -1 30 -55 30 -42 0 -55 3 -55 15
0 12 14 15 70 15 l70 0 0 -60 0 -60 -140 0 -140 0 0 240 0 240 40 0 40 0 -2
-217z m42 12 l0 -205 55 0 c42 0 55 -3 55 -15 0 -12 -14 -15 -65 -15 l-65 0 0
220 c0 140 4 220 10 220 6 0 10 -75 10 -205z m513 194 c66 -18 157 -119 157
-174 0 -26 18 -7 25 26 4 18 29 54 59 84 54 56 97 75 171 75 66 0 186 -66 155
-85 -6 -4 -19 0 -28 9 -52 46 -149 59 -217 27 -114 -53 -156 -179 -97 -292 51
-98 173 -137 272 -86 l45 22 3 78 3 77 -76 0 c-60 0 -75 3 -75 15 0 12 16 15
85 15 l85 0 0 -104 0 -103 -59 -27 c-96 -43 -178 -32 -253 34 -27 24 -54 60
-68 92 -21 49 -24 51 -30 28 -31 -112 -141 -189 -254 -177 -128 13 -215 111
-216 242 0 160 152 269 313 224z m-739 -65 c33 -34 36 -105 6 -144 -19 -25
-19 -25 2 -47 26 -28 29 -90 5 -126 -22 -33 -71 -47 -169 -47 l-78 0 0 86 0
86 96 -4 c81 -2 98 -6 110 -22 19 -26 18 -55 -3 -78 -13 -14 -31 -18 -90 -18
l-73 0 0 35 c0 24 5 35 15 35 8 0 15 -9 15 -20 0 -19 5 -21 57 -18 47 2 58 6
61 22 6 28 -15 36 -95 36 l-73 0 0 -55 0 -55 74 0 c41 0 86 4 100 10 48 18 59
86 20 124 -12 12 -38 16 -115 16 -81 0 -99 3 -99 15 0 12 16 15 84 15 102 0
131 9 143 47 23 72 -9 104 -112 111 -41 2 -75 9 -75 13 0 5 38 9 84 9 77 0 85
-2 110 -26z m1236 6 c51 -26 53 -31 27 -63 l-22 -27 -43 21 c-38 19 -48 20
-82 10 -72 -21 -105 -93 -73 -159 22 -46 80 -78 121 -66 l27 8 -27 4 c-24 3
-28 8 -28 38 l0 34 65 0 65 0 0 -60 c0 -57 -2 -61 -32 -80 -63 -38 -180 -19
-229 36 -67 77 -64 213 7 275 60 52 155 64 224 29z m-1488 -807 l3 -298 145 0
c160 0 202 11 237 63 25 38 25 162 0 189 -16 19 -16 21 0 54 23 45 22 134 -1
177 -28 54 -80 72 -213 72 l-113 0 0 -100 0 -100 105 0 c89 0 106 3 113 18 23
43 -14 72 -89 72 l-58 0 -3 -32 c-2 -22 -9 -34 -20 -36 -15 -3 -18 4 -18 47
l0 51 90 0 c83 0 93 -2 115 -25 35 -34 34 -86 -1 -114 -24 -19 -40 -21 -145
-21 l-119 0 0 140 0 140 113 0 c179 -1 242 -24 278 -104 22 -49 25 -150 5
-186 -12 -21 -12 -29 2 -55 26 -49 21 -143 -11 -197 -43 -73 -72 -82 -274 -86
l-173 -3 0 315 c0 273 2 316 15 316 13 0 15 -42 17 -297z m708 88 c0 -193 1
-210 20 -234 38 -49 151 -42 179 11 7 13 11 98 11 226 l0 206 51 0 50 0 -3
-222 c-3 -202 -5 -227 -24 -263 -29 -57 -87 -85 -178 -85 -91 0 -143 24 -177
83 -23 40 -24 52 -27 235 -3 189 -3 192 17 192 20 0 21 -4 21 -182 0 -154 3
-188 18 -218 25 -50 74 -75 147 -75 72 1 111 18 142 64 22 33 23 42 23 237 0
129 -4 204 -10 204 -6 0 -10 -71 -10 -192 0 -216 -6 -240 -71 -274 -49 -25
-142 -16 -175 18 -36 36 -43 81 -44 276 l0 172 -40 0 -40 0 0 -202 c1 -211 8
-257 47 -300 74 -82 271 -88 345 -11 55 57 61 89 66 326 4 181 7 217 19 217
12 0 14 -34 11 -232 -3 -217 -4 -236 -25 -274 -28 -53 -83 -100 -130 -113 -51
-14 -166 -14 -214 1 -53 15 -113 69 -135 120 -16 37 -19 78 -22 271 l-4 227
81 0 81 0 0 -209z m788 169 c40 -18 72 -34 72 -36 0 -1 -3 -9 -6 -18 -5 -13
-13 -12 -55 9 -79 41 -153 56 -208 44 -120 -25 -167 -172 -81 -254 15 -14 60
-40 101 -56 40 -17 82 -37 91 -46 23 -20 23 -71 1 -95 -22 -24 -104 -24 -160
2 l-42 19 -21 -33 c-11 -19 -20 -36 -20 -38 0 -3 28 -16 63 -29 129 -49 236
-19 272 75 36 95 -15 174 -138 215 -77 26 -107 51 -107 91 0 67 71 88 170 51
64 -24 77 -7 16 20 -91 40 -184 23 -207 -39 -23 -61 16 -109 117 -142 44 -15
81 -35 102 -56 27 -27 32 -39 32 -80 -1 -90 -47 -134 -142 -134 -67 0 -140 25
-136 47 4 18 3 18 71 -2 103 -30 172 5 172 87 0 50 -19 66 -118 104 -98 37
-137 78 -137 144 0 122 124 164 278 95 34 -15 62 -30 62 -33 0 -2 -10 -20 -21
-39 -15 -23 -27 -33 -38 -29 -9 3 -43 15 -75 26 -63 23 -100 21 -110 -6 -10
-25 17 -48 79 -68 68 -21 134 -70 157 -116 43 -85 8 -196 -78 -246 -41 -24
-52 -26 -122 -22 -56 3 -93 12 -132 30 -88 42 -86 37 -44 106 20 34 40 62 46
62 5 0 27 -9 48 -20 58 -30 122 -37 140 -15 22 26 1 46 -85 82 -127 53 -170
106 -163 204 12 163 171 225 356 139z m-1184 -35 c45 -22 66 -62 66 -128 0
-45 -5 -61 -26 -86 l-26 -31 26 -30 c52 -63 41 -154 -23 -197 -31 -21 -45 -23
-167 -23 l-134 0 0 105 0 105 116 0 c149 0 174 -12 174 -81 0 -59 -25 -73
-136 -77 l-94 -4 0 51 c0 44 3 51 20 51 16 0 20 -7 20 -30 l0 -31 71 3 c55 2
74 7 83 21 8 12 8 22 0 35 -9 14 -29 17 -118 20 l-106 3 0 -71 0 -70 100 0
c148 0 190 23 190 105 0 27 -8 44 -29 66 l-29 29 -131 0 c-124 0 -131 1 -131
20 0 19 7 20 123 20 140 0 165 9 185 62 17 45 10 81 -23 114 -22 22 -32 24
-125 24 -93 0 -100 1 -100 20 0 19 7 20 96 20 65 0 106 -5 128 -15z"/>
<path d="M3345 2521 c-75 -35 -115 -102 -115 -194 0 -180 211 -273 347 -154
115 101 86 295 -53 353 -47 20 -131 17 -179 -5z m178 -15 c39 -16 82 -61 96
-99 25 -66 8 -158 -38 -211 -57 -65 -188 -75 -258 -20 -45 36 -83 105 -83 151
0 66 42 135 105 174 36 23 130 26 178 5z"/>
<path d="M3382 2488 c-44 -15 -99 -78 -108 -123 -22 -118 93 -226 206 -195
139 37 167 230 44 302 -38 22 -101 29 -142 16z m128 -29 c49 -28 72 -69 72
-131 0 -56 -19 -89 -72 -125 -90 -62 -220 13 -220 126 0 117 118 187 220 130z"/>
<path d="M3378 2434 c-34 -18 -58 -62 -58 -106 0 -104 131 -155 204 -79 94 98
-26 251 -146 185z"/>
<path d="M3885 2490 c-66 -15 -107 -55 -125 -121 -32 -118 88 -234 203 -197
41 13 42 14 45 61 l3 47 -35 0 c-20 0 -36 -4 -36 -10 0 -5 11 -10 25 -10 21 0
25 -5 25 -30 0 -25 -5 -30 -35 -39 -48 -13 -101 3 -142 44 -59 59 -44 170 30
215 35 22 106 26 138 9 31 -16 47 -5 19 13 -32 20 -77 27 -115 18z"/>
</g>
</svg>
