<?xml version="1.0" standalone="no"?>
<!DOCTYPE svg PUBLIC "-//W3C//DTD SVG 20010904//EN"
 "http://www.w3.org/TR/2001/REC-SVG-20010904/DTD/svg10.dtd">
<svg version="1.0" xmlns="http://www.w3.org/2000/svg"
 width="217.000000pt" height="220.000000pt" viewBox="0 0 217.000000 220.000000"
 preserveAspectRatio="xMidYMid meet">

<g transform="translate(0.000000,220.000000) scale(0.100000,-0.100000)"
fill="#000000" stroke="none">
<path d="M0 1100 l0 -1100 1085 0 1085 0 0 1100 0 1100 -1085 0 -1085 0 0
-1100z m2077 987 l28 -27 0 -965 0 -965 -28 -27 -27 -28 -965 0 -965 0 -27 28
-28 27 0 964 c0 950 0 964 20 986 11 12 29 26 40 31 11 4 449 7 972 6 l953 -2
27 -28z"/>
</g>
</svg>
