<?xml version="1.0" standalone="no"?>
<!DOCTYPE svg PUBLIC "-//W3C//DTD SVG 20010904//EN"
 "http://www.w3.org/TR/2001/REC-SVG-20010904/DTD/svg10.dtd">
<svg version="1.0" xmlns="http://www.w3.org/2000/svg"
 width="454.000000pt" height="231.000000pt" viewBox="0 0 454.000000 231.000000"
 preserveAspectRatio="xMidYMid meet">

<g transform="translate(0.000000,231.000000) scale(0.100000,-0.100000)"
fill="#000000" stroke="none">
<path d="M0 1155 l0 -1155 2270 0 2270 0 0 1155 0 1155 -2270 0 -2270 0 0
-1155z m2017 612 l28 -27 0 -640 0 -640 -28 -27 -27 -28 -640 0 -640 0 -27 28
-28 27 0 639 c0 625 0 639 20 661 11 12 29 26 40 31 11 4 302 7 647 6 l628 -2
27 -28z m261 -296 l2 -223 121 4 121 3 29 33 c24 27 29 41 29 86 0 35 -5 58
-15 66 -13 11 -13 15 0 41 19 37 19 92 -1 130 -21 42 -68 59 -164 59 l-80 0 0
-75 0 -75 79 0 c83 0 97 6 86 40 -5 17 -15 20 -61 20 -51 0 -54 -1 -54 -25 0
-16 -6 -25 -15 -25 -11 0 -15 11 -15 40 l0 40 69 0 c49 0 74 -5 85 -15 25 -25
29 -54 12 -80 -16 -24 -22 -25 -111 -25 l-95 0 0 106 0 106 103 -4 c156 -6
203 -42 199 -150 -4 -94 -4 -110 3 -168 6 -48 4 -60 -17 -90 -39 -58 -75 -70
-215 -70 l-123 0 0 241 c0 188 3 240 13 237 9 -4 13 -60 15 -227z m440 12 c-2
-162 -6 -217 -15 -221 -10 -3 -13 42 -13 202 0 131 -4 206 -10 206 -6 0 -10
-77 -10 -210 l0 -210 110 0 110 0 0 30 c0 30 -1 30 -55 30 -42 0 -55 3 -55 15
0 12 14 15 70 15 l70 0 0 -60 0 -60 -140 0 -140 0 0 240 0 240 40 0 40 0 -2
-217z m42 12 l0 -205 55 0 c42 0 55 -3 55 -15 0 -12 -14 -15 -65 -15 l-65 0 0
220 c0 140 4 220 10 220 6 0 10 -75 10 -205z m511 193 c70 -21 159 -118 159
-173 0 -26 18 -7 25 27 11 48 99 131 158 147 75 21 186 -5 226 -52 18 -22 -6
-33 -27 -13 -50 44 -144 58 -210 30 -162 -67 -178 -288 -27 -375 62 -36 125
-38 196 -8 l49 21 0 79 0 79 -75 0 c-60 0 -75 3 -75 15 0 12 16 15 85 15 l86
0 -3 -102 -3 -103 -54 -27 c-123 -63 -264 -8 -321 124 -21 49 -24 51 -30 28
-30 -109 -140 -188 -247 -178 -174 17 -274 193 -197 346 53 106 170 155 285
120z m-758 -49 c49 -22 64 -117 26 -158 l-21 -22 22 -24 c14 -15 21 -36 22
-64 1 -83 -45 -111 -184 -111 l-78 0 0 85 0 85 80 0 c43 0 91 -5 105 -12 33
-15 42 -51 21 -83 -15 -23 -23 -25 -91 -25 l-75 0 0 35 c0 24 5 35 15 35 8 0
15 -9 15 -20 0 -19 5 -21 57 -18 47 2 58 6 61 22 6 28 -15 36 -95 36 l-73 0 0
-55 0 -55 74 0 c41 0 86 4 100 10 48 18 59 86 20 124 -12 12 -38 16 -115 16
-81 0 -99 3 -99 15 0 12 17 15 91 15 103 0 123 7 138 51 23 67 -24 109 -126
109 -35 0 -63 4 -63 10 0 14 143 13 173 -1z m1240 -3 c18 -8 40 -20 49 -27 17
-13 17 -16 -5 -42 l-22 -27 -43 21 c-38 19 -48 20 -82 10 -104 -31 -115 -164
-19 -215 30 -16 42 -18 70 -9 l34 11 -32 1 c-31 1 -33 3 -33 36 l0 35 65 0 65
0 0 -60 c0 -57 -2 -61 -32 -80 -63 -38 -180 -19 -229 36 -67 77 -64 213 7 275
55 48 142 63 207 35z m-1471 -813 l3 -298 150 0 c138 0 153 2 186 23 20 12 44
38 53 56 23 49 21 137 -4 168 -19 24 -19 27 -3 58 26 53 28 111 5 164 -31 69
-74 85 -219 86 l-113 0 0 -100 0 -100 105 0 c94 0 105 2 115 20 12 23 0 54
-26 64 -8 3 -40 6 -69 6 -53 0 -54 0 -57 -32 -2 -22 -9 -34 -20 -36 -15 -3
-18 4 -18 47 l0 51 90 0 c83 0 93 -2 115 -25 35 -34 34 -86 -1 -114 -24 -19
-40 -21 -145 -21 l-119 0 0 141 0 141 138 -4 c123 -3 142 -6 182 -28 59 -33
90 -92 90 -170 -1 -30 -7 -68 -14 -85 -11 -26 -11 -34 3 -60 24 -46 20 -144
-8 -191 -47 -80 -86 -92 -288 -93 l-163 -1 0 315 c0 272 2 315 15 315 13 0 15
-42 17 -297z m708 88 c0 -193 1 -210 20 -234 38 -49 151 -42 179 11 7 13 11
98 11 226 l0 206 51 0 50 0 -3 -222 c-3 -208 -5 -226 -25 -264 -31 -58 -87
-84 -178 -84 -90 0 -143 25 -176 83 -23 40 -24 52 -27 235 -4 189 -4 192 17
192 21 0 21 -4 21 -182 0 -154 3 -188 18 -218 25 -50 74 -75 147 -75 72 0 111
18 142 64 22 33 23 42 23 237 0 129 -4 204 -10 204 -6 0 -10 -68 -10 -185 0
-209 -7 -241 -62 -275 -49 -31 -148 -24 -184 12 -36 35 -43 84 -44 281 l0 167
-40 0 -40 0 0 -202 c1 -258 11 -292 105 -341 32 -17 58 -21 125 -21 91 0 126
11 167 56 50 53 56 89 61 321 4 181 7 217 19 217 12 0 14 -34 11 -232 -3 -217
-4 -236 -25 -274 -28 -53 -83 -100 -130 -113 -51 -14 -166 -14 -214 1 -53 15
-113 69 -135 120 -16 37 -19 78 -22 271 l-4 227 81 0 81 0 0 -209z m788 169
c40 -18 72 -34 72 -36 0 -1 -3 -9 -6 -18 -5 -13 -13 -12 -55 9 -79 41 -154 56
-208 44 -121 -27 -168 -171 -83 -252 16 -16 62 -42 103 -58 40 -17 82 -37 91
-46 23 -20 23 -71 1 -95 -22 -24 -104 -24 -160 2 l-42 19 -22 -36 c-26 -42
-24 -44 74 -74 117 -36 204 -6 241 83 39 94 -7 170 -129 214 -83 30 -115 57
-115 96 0 65 72 86 170 49 65 -25 77 -7 14 20 -63 28 -136 29 -171 2 -40 -29
-50 -74 -26 -115 15 -26 35 -39 98 -64 44 -17 95 -45 113 -61 27 -26 32 -37
32 -78 0 -88 -49 -135 -144 -135 -62 0 -136 25 -136 46 0 18 10 18 77 -2 88
-26 151 -1 168 66 11 47 -10 78 -72 106 -125 57 -147 69 -164 99 -27 44 -25
107 6 143 34 40 75 55 138 50 46 -4 177 -52 177 -66 0 -9 -42 -72 -48 -72 -3
0 -34 12 -69 26 -70 28 -110 28 -127 2 -15 -25 16 -53 82 -74 117 -37 176
-108 169 -206 -4 -74 -39 -128 -102 -158 -63 -30 -166 -25 -246 13 -88 42 -86
37 -44 103 21 33 39 61 41 63 2 2 30 -8 63 -23 67 -30 113 -33 132 -10 21 25
0 46 -80 79 -130 54 -177 113 -169 211 6 67 39 118 98 150 65 35 160 30 258
-16z m-1184 -35 c69 -33 89 -138 40 -210 l-25 -38 20 -21 c42 -45 50 -98 24
-153 -29 -62 -60 -73 -210 -73 l-133 0 0 105 0 105 119 0 c105 0 121 -2 145
-21 20 -16 26 -29 26 -58 0 -62 -24 -76 -133 -76 l-92 0 -3 48 c-3 42 -1 47
17 47 17 0 21 -6 21 -30 l0 -31 71 3 c55 2 74 7 83 21 8 12 8 22 0 35 -9 14
-29 17 -118 20 l-106 3 0 -71 0 -72 121 4 c118 3 121 4 145 31 39 46 28 131
-20 156 -11 6 -77 12 -146 13 -110 3 -125 5 -128 21 -3 15 8 17 128 17 125 0
132 1 155 24 13 13 27 36 31 50 9 36 -3 73 -31 102 -22 22 -32 24 -125 24 -93
0 -100 1 -100 20 0 19 7 20 96 20 65 0 106 -5 128 -15z"/>
<path d="M1201 1685 c-204 -50 -387 -235 -436 -441 -18 -76 -18 -212 0 -288
50 -208 233 -391 441 -441 76 -18 212 -18 288 0 208 50 391 233 441 441 18 76
18 212 0 288 -50 208 -233 391 -441 441 -73 18 -220 17 -293 0z m267 -100 c93
-22 159 -60 233 -134 99 -99 149 -216 149 -351 0 -135 -50 -252 -151 -353
-197 -198 -501 -197 -700 2 -155 155 -191 363 -98 569 35 78 140 187 217 226
106 54 233 68 350 41z"/>
<path d="M1215 1541 c-86 -31 -137 -61 -191 -115 -88 -88 -134 -201 -134 -326
0 -209 133 -383 339 -446 59 -18 183 -18 242 0 79 24 150 66 205 120 179 180
179 472 0 652 -56 55 -106 85 -195 115 -71 25 -197 24 -266 0z m285 -40 c106
-40 211 -144 249 -246 41 -110 35 -241 -15 -343 -35 -71 -125 -162 -195 -196
-115 -55 -263 -56 -377 0 -71 35 -162 125 -196 195 -56 115 -56 263 0 378 53
109 185 210 301 231 65 12 176 2 233 -19z"/>
<path d="M1250 1476 c-46 -13 -111 -45 -142 -69 -11 -9 -15 -21 -11 -37 5 -20
3 -22 -17 -17 -16 4 -28 0 -37 -11 -28 -35 -63 -113 -74 -162 -10 -46 -9 -53
8 -66 17 -14 17 -14 0 -28 -17 -13 -18 -20 -8 -66 11 -49 46 -127 74 -162 9
-11 21 -15 37 -11 20 5 22 3 17 -17 -4 -16 0 -28 11 -37 35 -28 113 -64 163
-74 45 -10 53 -9 61 5 12 21 38 21 38 0 0 -31 129 6 207 59 26 18 31 27 26 46
-5 21 -3 23 17 18 26 -7 38 4 72 68 20 38 48 126 48 153 0 6 -7 12 -15 12 -8
0 -15 9 -15 20 0 11 7 20 15 20 8 0 15 6 15 13 0 26 -28 114 -48 152 -34 64
-46 75 -72 68 -20 -5 -22 -3 -17 18 5 19 0 28 -26 46 -46 31 -115 60 -164 68
-36 6 -43 4 -43 -9 0 -20 -29 -21 -36 -1 -7 18 -23 18 -84 1z m214 -135 c63
-28 123 -99 142 -170 10 -33 21 -58 26 -55 4 3 11 -2 14 -11 8 -19 -22 -55
-46 -55 -24 0 -54 36 -46 55 3 9 11 13 17 9 9 -5 10 4 5 32 -14 74 -79 147
-155 173 -44 14 -51 14 -51 -4 0 -8 -9 -15 -20 -15 -11 0 -20 7 -20 15 0 21
-17 19 -75 -9 -59 -27 -96 -67 -121 -131 -16 -44 -16 -46 2 -60 19 -15 19 -15
0 -30 -18 -14 -18 -16 -2 -60 25 -64 62 -104 121 -131 58 -28 75 -30 75 -9 0
8 9 15 20 15 11 0 20 -7 20 -15 0 -26 84 0 132 40 29 25 49 25 47 2 -1 -33
-128 -96 -195 -97 -109 -1 -227 86 -258 189 -20 67 -20 94 -1 157 47 157 216
233 369 165z m-150 -167 c22 -22 20 -44 -9 -86 l-25 -37 23 -3 c12 -2 23 -11
25 -20 3 -15 -4 -18 -47 -18 -62 0 -65 13 -21 80 34 51 36 60 15 60 -8 0 -15
-7 -15 -16 0 -9 -7 -14 -17 -12 -19 4 -19 33 -1 56 14 17 53 15 72 -4z m124
-42 c2 -36 7 -52 17 -52 23 0 28 -21 6 -27 -12 -3 -21 -13 -21 -24 0 -25 -30
-24 -37 1 -4 15 -14 20 -39 20 -19 0 -34 5 -34 10 0 19 84 130 95 127 5 -2 11
-27 13 -55z"/>
<path d="M3105 1651 c-80 -36 -120 -111 -113 -212 11 -154 176 -239 313 -160
142 82 140 292 -4 368 -55 29 -138 31 -196 4z m184 -19 c91 -46 127 -161 81
-258 -16 -31 -38 -56 -69 -76 -41 -26 -53 -29 -112 -26 -54 3 -73 9 -103 32
-70 53 -97 127 -76 205 13 49 62 109 105 127 44 19 134 17 174 -4z"/>
<path d="M3144 1619 c-42 -12 -101 -79 -110 -123 -22 -119 89 -227 203 -197
80 22 125 80 125 161 0 75 -34 125 -105 155 -40 17 -67 18 -113 4z m126 -31
c54 -37 72 -69 72 -128 0 -143 -182 -203 -264 -87 -33 46 -36 123 -6 167 46
68 136 90 198 48z"/>
<path d="M3133 1560 c-41 -25 -53 -48 -53 -103 0 -106 130 -156 204 -78 97
101 -30 255 -151 181z"/>
<path d="M3643 1620 c-99 -23 -154 -126 -117 -218 32 -81 119 -125 197 -100
41 13 42 14 45 61 l3 47 -35 0 c-20 0 -36 -4 -36 -10 0 -5 11 -10 25 -10 21 0
25 -5 25 -30 0 -25 -5 -30 -35 -39 -49 -13 -103 4 -142 46 -29 30 -33 41 -33
86 0 118 92 174 218 132 32 -11 28 10 -5 23 -44 17 -76 20 -110 12z"/>
</g>
</svg>
