<?xml version="1.0" standalone="no"?>
<!DOCTYPE svg PUBLIC "-//W3C//DTD SVG 20010904//EN"
 "http://www.w3.org/TR/2001/REC-SVG-20010904/DTD/svg10.dtd">
<svg version="1.0" xmlns="http://www.w3.org/2000/svg"
 width="589.000000pt" height="284.000000pt" viewBox="0 0 589.000000 284.000000"
 preserveAspectRatio="xMidYMid meet">
<metadata>
Created by potrace 1.16, written by Peter Selinger 2001-2019
</metadata>
<g transform="translate(0.000000,284.000000) scale(0.100000,-0.100000)"
fill="#000000" stroke="none">
<path d="M2680 1931 l0 -351 168 0 c92 0 183 5 203 10 54 15 101 51 126 95 28
49 32 163 8 209 -14 27 -14 34 0 75 43 127 -9 253 -122 293 -25 8 -88 13 -178
13 l-140 0 -3 -130 c-4 -191 -16 -175 139 -175 l131 0 29 29 c34 34 37 64 9
108 -23 38 -52 45 -160 41 l-75 -3 -3 -52 c-3 -48 -1 -53 17 -53 17 0 21 6 21
30 l0 31 83 -3 82 -3 3 -30 c6 -46 -17 -55 -135 -55 l-103 0 0 110 0 110 134
0 c122 0 136 -2 166 -22 59 -41 75 -72 75 -146 0 -44 -7 -80 -19 -104 -17 -36
-17 -37 4 -66 28 -37 29 -126 3 -179 -38 -76 -87 -92 -290 -93 l-133 0 -2 327
c-3 303 -4 328 -20 331 -17 3 -18 -19 -18 -347z"/>
<path d="M3250 1931 l0 -351 200 0 200 0 0 85 0 85 -100 0 c-93 0 -100 -1
-100 -20 0 -18 7 -20 80 -20 l80 0 0 -45 0 -46 -157 3 -158 3 -3 308 c-2 217
1 308 8 305 8 -2 11 -92 10 -283 0 -231 2 -284 14 -300 32 -44 36 -7 34 311
l-3 309 -52 3 -53 3 0 -350z"/>
<path d="M3387 2274 c-4 -4 -7 -143 -7 -309 0 -221 3 -304 12 -313 17 -17 172
-16 187 1 19 24 -9 37 -81 37 l-68 0 -2 292 c-3 255 -5 293 -18 296 -9 1 -19
0 -23 -4z"/>
<path d="M3959 2265 c-166 -61 -257 -191 -247 -353 7 -128 77 -233 195 -293
61 -31 75 -34 152 -34 72 0 95 4 142 26 102 48 169 128 200 239 l12 45 8 -38
c23 -100 100 -196 197 -244 49 -24 69 -28 142 -28 72 0 94 4 145 28 98 46 95
39 95 204 l0 143 -123 0 c-68 0 -126 -3 -130 -6 -3 -3 -3 -12 0 -20 4 -11 29
-14 107 -14 57 0 105 -2 107 -4 2 -2 2 -55 -1 -118 l-5 -113 -60 -30 c-51 -25
-71 -30 -135 -29 -124 0 -224 62 -274 168 -39 81 -43 143 -16 227 27 84 91
157 167 191 95 42 251 21 320 -44 23 -21 58 -18 51 5 -7 22 -99 77 -156 93
-107 31 -238 1 -325 -75 -40 -36 -107 -159 -108 -200 0 -19 -6 -11 -20 29 -45
132 -121 210 -235 245 -60 18 -156 18 -205 0z m245 -60 c64 -31 125 -99 148
-162 18 -53 16 -189 -5 -235 -24 -57 -101 -133 -160 -159 -111 -49 -254 -24
-340 59 -166 160 -101 447 117 518 66 22 171 13 240 -21z"/>
<path d="M4017 2209 c-143 -22 -241 -135 -240 -279 0 -113 53 -199 155 -249
191 -96 410 38 410 249 0 178 -148 305 -325 279z m149 -63 c95 -44 141 -128
131 -239 -7 -77 -46 -141 -111 -182 -44 -27 -58 -30 -126 -30 -68 0 -82 3
-126 30 -30 19 -60 49 -79 80 -27 44 -30 57 -30 129 0 70 4 86 26 121 34 52
54 69 109 94 62 28 141 27 206 -3z"/>
<path d="M3963 2125 c-105 -53 -150 -172 -104 -277 67 -153 256 -184 363 -59
57 66 70 133 43 213 -43 124 -183 182 -302 123z m189 -43 c50 -29 72 -71 76
-142 3 -55 0 -70 -20 -100 -38 -55 -82 -80 -145 -80 -175 0 -242 197 -106 314
44 37 138 41 195 8z"/>
<path d="M2812 2193 c3 -15 19 -19 108 -23 58 -3 113 -10 123 -14 49 -23 63
-126 23 -173 -24 -28 -25 -28 -173 -33 -123 -4 -148 -8 -148 -20 0 -12 24 -16
140 -20 162 -6 187 -15 204 -77 14 -50 14 -59 -3 -92 -22 -42 -55 -51 -186
-51 l-120 0 0 75 0 75 109 0 c112 0 141 -9 141 -45 0 -33 -31 -46 -104 -43
-70 3 -71 3 -76 32 -3 17 -8 29 -12 28 -5 -1 -13 -2 -19 -2 -6 0 -9 -19 -7
-47 l3 -48 103 -3 c97 -3 103 -2 127 22 37 37 34 87 -6 120 -31 26 -34 27
-163 24 l-131 -3 -3 -104 c-2 -71 1 -108 10 -118 10 -12 37 -14 149 -11 152 3
170 10 217 78 36 53 24 139 -26 184 l-22 19 25 29 c23 27 45 85 45 118 -1 34
-41 101 -72 120 -28 17 -50 20 -146 20 -103 0 -113 -2 -110 -17z"/>
<path d="M4669 2194 c-56 -17 -132 -82 -162 -138 -31 -59 -31 -193 0 -252 50
-94 152 -154 261 -154 56 0 76 5 120 31 l53 30 -3 87 -3 87 -84 3 c-46 2 -89
1 -96 -2 -7 -2 -9 -21 -6 -52 6 -47 7 -49 41 -54 27 -4 31 -7 17 -13 -93 -37
-217 56 -217 162 0 63 53 138 113 160 45 17 90 13 143 -14 l49 -25 34 35 35
34 -24 26 c-53 56 -176 79 -271 49z m161 -34 c46 -13 75 -34 66 -48 -5 -9 -15
-8 -36 3 -139 72 -310 -31 -310 -185 0 -144 155 -250 286 -195 33 13 35 17 32
52 -3 36 -5 38 -40 41 -58 5 -45 23 13 20 l52 -3 0 -59 c0 -55 -3 -60 -29 -75
-40 -22 -169 -21 -209 1 -109 59 -159 184 -120 299 18 51 36 74 87 112 59 45
133 58 208 37z"/>
<path d="M939 2171 l-29 -29 0 -727 0 -727 29 -29 29 -29 726 0 725 0 28 24
28 24 3 732 2 731 -29 30 -29 29 -727 0 -727 0 -29 -29z m884 -186 c182 -38
355 -191 418 -369 40 -115 43 -264 8 -376 -57 -180 -213 -329 -404 -386 -87
-26 -239 -24 -325 6 -200 68 -355 235 -395 427 -29 135 -9 293 51 402 55 102
156 201 257 253 104 53 262 70 390 43z"/>
<path d="M1609 1949 c-355 -52 -557 -443 -398 -769 118 -240 389 -357 644
-276 95 30 159 71 232 150 246 264 166 688 -158 845 -61 29 -107 44 -160 51
-83 11 -83 11 -160 -1z m246 -59 c153 -52 273 -181 320 -344 26 -88 17 -230
-19 -317 -51 -125 -161 -233 -285 -280 -81 -31 -222 -37 -309 -14 -243 66
-404 312 -363 556 51 309 364 499 656 399z"/>
<path d="M1555 1851 c-62 -22 -90 -37 -132 -69 -26 -19 -31 -28 -23 -42 12
-23 -7 -42 -31 -30 -14 8 -23 2 -48 -32 -57 -78 -103 -238 -68 -238 24 0 28
-28 5 -44 -17 -12 -20 -21 -14 -58 7 -49 52 -150 87 -197 17 -23 26 -28 35
-20 19 16 36 0 30 -26 -5 -19 2 -28 40 -54 54 -35 131 -65 190 -75 36 -5 42
-3 47 14 7 26 37 26 37 0 0 -18 5 -19 48 -13 66 8 141 38 195 76 37 26 44 36
36 50 -14 24 -2 38 26 31 19 -5 29 2 54 36 28 39 62 126 76 197 5 26 3 32 -14
38 -27 8 -27 35 -1 42 17 5 20 11 14 42 -13 80 -52 171 -94 220 -15 17 -23 21
-33 13 -8 -7 -18 -7 -27 -2 -12 8 -13 13 -3 29 10 17 7 22 -25 45 -58 40 -146
76 -200 83 -44 5 -50 3 -55 -16 -6 -23 -37 -19 -37 5 0 20 -54 17 -115 -5z
m271 -154 c92 -47 174 -156 174 -234 0 -25 3 -30 19 -26 32 8 32 -24 1 -57
-25 -26 -32 -29 -50 -20 -44 24 -62 80 -24 80 22 0 17 31 -16 97 -35 70 -105
126 -177 142 -39 8 -43 7 -43 -10 0 -25 -30 -25 -37 0 -4 17 -9 18 -41 9 -107
-30 -170 -93 -200 -200 -9 -32 -8 -37 9 -41 25 -7 24 -36 0 -45 -19 -7 -19 -8
-2 -58 27 -81 90 -145 170 -172 47 -16 58 -15 64 8 3 11 10 20 17 20 7 0 14
-9 17 -20 3 -12 14 -20 27 -20 26 0 111 41 149 72 24 19 29 20 37 8 11 -18
-29 -64 -80 -90 -142 -73 -328 -23 -408 109 -77 127 -65 274 31 378 94 102
244 131 363 70z m-174 -194 c25 -22 23 -47 -7 -91 -31 -46 -31 -48 1 -56 17
-5 24 -12 22 -24 -2 -13 -16 -18 -56 -20 -71 -4 -75 12 -23 91 28 43 37 65 30
72 -8 7 -16 3 -26 -12 -20 -30 -43 -29 -43 1 0 50 63 75 102 39z m146 -45 c2
-46 7 -58 22 -63 26 -8 26 -32 1 -40 -11 -3 -23 -15 -26 -26 -8 -25 -32 -25
-40 1 -4 13 -15 20 -30 20 -30 0 -55 10 -55 21 0 5 21 41 47 80 58 87 77 88
81 7z"/>
<path d="M2680 1021 l0 -461 229 0 c262 0 303 8 375 71 60 53 87 120 87 214 0
53 -6 88 -21 123 l-21 49 20 61 c50 149 -1 299 -124 365 -37 21 -54 22 -250
22 l-210 0 -3 -175 c-1 -96 0 -185 3 -197 5 -23 8 -23 153 -23 171 1 218 9
250 45 39 46 24 140 -28 173 -20 12 -261 19 -279 8 -17 -11 -14 -111 4 -126
26 -21 45 -4 45 40 l0 40 99 0 c92 0 101 -2 115 -22 21 -30 20 -61 -2 -81 -15
-14 -42 -17 -160 -17 l-142 0 0 145 0 145 153 0 c83 0 168 -5 188 -10 103 -29
149 -99 149 -226 0 -66 -4 -89 -24 -126 l-24 -46 26 -37 c55 -76 37 -243 -33
-304 -58 -51 -114 -61 -332 -61 l-193 0 -2 433 -3 432 -22 3 -23 3 0 -460z"/>
<path d="M3532 1143 c3 -331 3 -339 27 -391 33 -73 113 -144 193 -171 87 -29
244 -30 323 0 80 30 133 75 171 144 47 86 55 157 52 475 l-3 275 -25 0 -25 0
-5 -330 c-6 -367 -5 -367 -76 -445 -54 -59 -109 -81 -220 -87 -154 -9 -276 42
-323 136 -33 64 -41 146 -41 418 l0 263 59 0 60 0 3 -282 c3 -276 4 -284 27
-324 31 -55 86 -85 159 -89 105 -4 179 33 213 109 17 37 19 69 19 314 0 233 2
272 15 272 24 0 27 -38 23 -307 -4 -276 -9 -306 -61 -361 -43 -46 -75 -56
-182 -57 -89 0 -105 3 -145 25 -29 17 -53 41 -70 70 -25 44 -25 49 -30 320
l-5 275 -25 0 -25 0 -3 -230 c-4 -359 18 -435 148 -494 69 -31 236 -30 305 3
61 28 87 56 117 121 22 49 23 57 23 365 l0 315 -67 3 -66 3 -4 -304 c-3 -269
-5 -306 -21 -330 -29 -45 -70 -60 -153 -55 -65 3 -77 7 -101 31 l-28 27 -5
313 -5 312 -113 3 -113 3 3 -338z"/>
<path d="M4566 1464 c-72 -23 -150 -104 -172 -179 -19 -67 -15 -145 10 -194
43 -81 109 -131 236 -176 112 -41 148 -84 98 -119 -39 -28 -113 -14 -217 39
-29 14 -54 25 -55 23 -45 -66 -106 -171 -106 -182 0 -17 121 -79 199 -101 65
-18 184 -20 232 -3 135 46 216 188 184 325 -26 113 -94 173 -259 229 -83 28
-106 47 -106 86 0 22 6 31 27 39 36 13 146 -11 209 -46 25 -14 49 -23 54 -20
11 7 60 91 60 104 0 6 -19 21 -42 35 -113 65 -270 86 -348 46 -82 -42 -120
-128 -95 -215 22 -76 81 -123 207 -164 86 -29 129 -57 151 -103 24 -49 14
-101 -29 -147 -32 -35 -34 -36 -111 -36 -50 0 -99 7 -136 19 -50 16 -60 17
-68 5 -14 -23 -5 -33 55 -57 109 -44 252 -27 308 35 48 53 60 140 28 210 -23
53 -77 88 -197 132 -123 44 -163 83 -163 155 0 115 115 165 272 116 76 -23
108 -44 92 -59 -7 -8 -28 -4 -71 14 -125 50 -214 42 -248 -25 -33 -64 -9 -110
80 -151 33 -16 65 -29 72 -29 23 0 88 -34 132 -69 107 -85 108 -242 2 -333
-54 -46 -113 -63 -196 -55 -66 6 -225 61 -225 78 0 7 42 82 55 97 2 2 18 -4
37 -14 18 -9 56 -23 83 -30 98 -27 165 -13 191 37 39 76 -5 139 -122 177 -149
49 -217 110 -233 209 -22 140 68 247 217 260 70 7 145 -13 250 -65 68 -34 73
-35 89 -19 16 16 16 18 -2 31 -29 21 -112 61 -170 81 -69 24 -197 29 -259 9z"/>
<path d="M2854 1375 c-12 -30 7 -35 134 -35 154 0 184 -11 221 -83 40 -81 11
-171 -65 -203 -24 -10 -81 -14 -203 -14 -93 0 -172 -4 -175 -9 -4 -5 -3 -16 0
-25 5 -14 30 -16 178 -17 105 0 184 -5 205 -12 50 -17 74 -56 78 -124 4 -68
-9 -98 -56 -130 -32 -22 -44 -23 -192 -23 l-159 0 0 100 0 100 138 0 c154 0
182 -9 182 -59 0 -50 -25 -61 -133 -61 l-97 0 0 40 c0 27 -5 43 -15 46 -28 11
-45 -16 -45 -72 0 -50 2 -55 28 -65 37 -15 219 -6 257 12 17 8 38 31 49 52 16
33 17 45 7 76 -22 73 -30 76 -240 76 l-186 0 -3 -130 c-4 -193 -22 -175 174
-175 91 0 185 5 210 11 78 20 144 108 144 191 0 43 -30 114 -60 143 l-29 28
26 31 c38 45 53 88 53 148 -1 87 -46 162 -113 187 -16 6 -91 11 -168 11 -113
0 -141 -3 -145 -15z"/>
</g>
</svg>
