<?xml version="1.0" encoding="UTF-8"?>
<svg xmlns="http://www.w3.org/2000/svg" xmlns:xlink="http://www.w3.org/1999/xlink" width="525pt" height="403pt" viewBox="0 0 525 403" version="1.1">
<defs>
<filter id="alpha" filterUnits="objectBoundingBox" x="0%" y="0%" width="100%" height="100%">
  <feColorMatrix type="matrix" in="SourceGraphic" values="0 0 0 0 1 0 0 0 0 1 0 0 0 0 1 0 0 0 1 0"/>
</filter>
<mask id="mask0">
  <g filter="url(#alpha)">
<rect x="0" y="0" width="525" height="403" style="fill:rgb(0%,0%,0%);fill-opacity:0.101961;stroke:none;"/>
  </g>
</mask>
<clipPath id="clip1">
  <rect x="0" y="0" width="525" height="403"/>
</clipPath>
<g id="surface5" clip-path="url(#clip1)">
<path style=" stroke:none;fill-rule:nonzero;fill:rgb(42.352941%,38.823529%,100%);fill-opacity:1;" d="M 30.226562 207.023438 C 48.050781 229.691406 41.125 262.796875 29.800781 289.316406 C 26.003906 298.195312 21.71875 307.585938 23.300781 317.105469 C 25.253906 328.746094 35.644531 337.261719 46.554688 341.769531 C 66.441406 349.996094 90.238281 348.035156 108.515625 336.664062 C 124.304688 326.839844 135.613281 310.863281 151.675781 301.488281 C 178.554688 285.800781 212.765625 291.726562 241.949219 302.535156 C 262.601562 310.179688 285.175781 320.125 305.691406 312.136719 C 320.125 306.511719 330.105469 292.824219 335.546875 278.316406 C 338.171875 271.316406 340.074219 263.730469 345.089844 258.175781 C 348.089844 254.875 351.960938 252.53125 355.945312 250.554688 C 392.328125 232.515625 438.28125 242.175781 473.621094 222.171875 C 497.484375 208.671875 512.765625 183.171875 519.53125 156.589844 C 526.296875 130.011719 525.53125 102.140625 523.789062 74.769531 C 522.570312 55.316406 520.378906 34.550781 507.949219 19.535156 C 494.800781 3.65625 472.234375 -2.253906 451.839844 0.765625 C 431.445312 3.785156 412.953125 14.546875 396.691406 27.214844 C 376.363281 43.054688 357.511719 62.773438 332.554688 69.214844 C 315.554688 73.585938 297.679688 71.214844 280.148438 70.363281 C 250.84375 68.980469 221.53125 72.058594 192.386719 75.425781 C 164.484375 78.648438 136.386719 82.199219 109.804688 91.273438 C 91 97.675781 75.929688 109.335938 58.171875 117.460938 C 46.59375 122.769531 33.96875 124.234375 23.003906 131 C 9.503906 139.328125 -2.875 153.820312 0.585938 170.773438 C 3.875 186.910156 20.765625 194.996094 30.226562 207.023438 Z M 30.226562 207.023438 "/>
</g>
<mask id="mask1">
  <g filter="url(#alpha)">
<rect x="0" y="0" width="525" height="403" style="fill:rgb(0%,0%,0%);fill-opacity:0.101961;stroke:none;"/>
  </g>
</mask>
<clipPath id="clip2">
  <rect x="0" y="0" width="525" height="403"/>
</clipPath>
<g id="surface8" clip-path="url(#clip2)">
<path style=" stroke:none;fill-rule:nonzero;fill:rgb(100%,100%,100%);fill-opacity:1;" d="M 317.371094 290.136719 C 315.214844 286.339844 315.152344 281.703125 317.199219 277.851562 C 321.019531 270.851562 328.960938 273.546875 328.960938 273.546875 L 329.363281 273.398438 C 332.390625 272.304688 335.71875 272.378906 338.695312 273.609375 C 335.371094 271.628906 331.332031 271.246094 327.695312 272.558594 L 327.289062 272.703125 C 327.289062 272.703125 319.351562 270.015625 315.53125 277.011719 C 313.480469 280.863281 313.546875 285.5 315.699219 289.296875 C 317.355469 292.296875 320.160156 295.851562 324.699219 297.796875 C 321.601562 295.960938 319.066406 293.3125 317.371094 290.136719 Z M 317.371094 290.136719 "/>
</g>
<mask id="mask2">
  <g filter="url(#alpha)">
<rect x="0" y="0" width="525" height="403" style="fill:rgb(0%,0%,0%);fill-opacity:0.2;stroke:none;"/>
  </g>
</mask>
<clipPath id="clip3">
  <rect x="0" y="0" width="525" height="403"/>
</clipPath>
<g id="surface11" clip-path="url(#clip3)">
<path style=" stroke:none;fill-rule:nonzero;fill:rgb(0%,0%,0%);fill-opacity:1;" d="M 323.179688 276.28125 C 323.179688 276.28125 326.125 278.59375 333.269531 276.28125 "/>
</g>
<mask id="mask3">
  <g filter="url(#alpha)">
<rect x="0" y="0" width="525" height="403" style="fill:rgb(0%,0%,0%);fill-opacity:0.2;stroke:none;"/>
  </g>
</mask>
<clipPath id="clip4">
  <rect x="0" y="0" width="525" height="403"/>
</clipPath>
<g id="surface14" clip-path="url(#clip4)">
<path style=" stroke:none;fill-rule:nonzero;fill:rgb(0%,0%,0%);fill-opacity:1;" d="M 322.550781 259.460938 C 322.550781 259.460938 327.59375 273.125 327.175781 276.699219 L 331.175781 276.28125 C 331.175781 276.28125 324.445312 264.28125 326.128906 259.460938 Z M 322.550781 259.460938 "/>
</g>
<mask id="mask4">
  <g filter="url(#alpha)">
<rect x="0" y="0" width="525" height="403" style="fill:rgb(0%,0%,0%);fill-opacity:0.101961;stroke:none;"/>
  </g>
</mask>
<clipPath id="clip5">
  <rect x="0" y="0" width="525" height="403"/>
</clipPath>
<g id="surface17" clip-path="url(#clip5)">
<path style=" stroke:none;fill-rule:nonzero;fill:rgb(100%,100%,100%);fill-opacity:1;" d="M 343.144531 260.601562 C 343.144531 260.601562 335.203125 256.539062 331.644531 259.894531 C 328.085938 263.25 327.546875 271.824219 327.546875 271.824219 C 327.546875 271.824219 340.5 273.605469 343.144531 260.601562 Z M 343.144531 260.601562 "/>
</g>
<mask id="mask5">
  <g filter="url(#alpha)">
<rect x="0" y="0" width="525" height="403" style="fill:rgb(0%,0%,0%);fill-opacity:0.501961;stroke:none;"/>
  </g>
</mask>
<clipPath id="clip6">
  <rect x="0" y="0" width="525" height="403"/>
</clipPath>
<g id="surface20" clip-path="url(#clip6)">
<path style=" stroke:none;fill-rule:nonzero;fill:rgb(100%,100%,100%);fill-opacity:1;" d="M 72.128906 123.179688 C 72.824219 126.214844 80.335938 133.753906 80.335938 133.753906 C 80.335938 133.753906 83.835938 123.695312 83.121094 120.664062 C 82.429688 117.628906 79.40625 115.726562 76.371094 116.414062 C 73.332031 117.105469 71.429688 120.128906 72.121094 123.164062 Z M 72.128906 123.179688 "/>
</g>
<mask id="mask6">
  <g filter="url(#alpha)">
<rect x="0" y="0" width="525" height="403" style="fill:rgb(0%,0%,0%);fill-opacity:0.501961;stroke:none;"/>
  </g>
</mask>
<clipPath id="clip7">
  <rect x="0" y="0" width="525" height="403"/>
</clipPath>
<g id="surface23" clip-path="url(#clip7)">
<path style=" stroke:none;fill-rule:nonzero;fill:rgb(100%,100%,100%);fill-opacity:1;" d="M 66.898438 142.070312 C 69.136719 144.238281 79.535156 146.488281 79.535156 146.488281 C 79.535156 146.488281 76.988281 136.15625 74.753906 133.988281 C 72.523438 131.820312 68.953125 131.871094 66.785156 134.105469 C 64.617188 136.335938 64.667969 139.90625 66.898438 142.074219 Z M 66.898438 142.070312 "/>
</g>
<mask id="mask7">
  <g filter="url(#alpha)">
<rect x="0" y="0" width="525" height="403" style="fill:rgb(0%,0%,0%);fill-opacity:0.501961;stroke:none;"/>
  </g>
</mask>
<clipPath id="clip8">
  <rect x="0" y="0" width="525" height="403"/>
</clipPath>
<g id="surface26" clip-path="url(#clip8)">
<path style=" stroke:none;fill-rule:nonzero;fill:rgb(100%,100%,100%);fill-opacity:1;" d="M 73.875 170.703125 C 76.875 171.449219 87.011719 168.140625 87.011719 168.140625 C 87.011719 168.140625 79.59375 160.503906 76.574219 159.761719 C 73.550781 159.015625 70.5 160.859375 69.753906 163.882812 C 69.007812 166.90625 70.851562 169.960938 73.875 170.703125 Z M 73.875 170.703125 "/>
</g>
<mask id="mask8">
  <g filter="url(#alpha)">
<rect x="0" y="0" width="525" height="403" style="fill:rgb(0%,0%,0%);fill-opacity:0.501961;stroke:none;"/>
  </g>
</mask>
<clipPath id="clip9">
  <rect x="0" y="0" width="525" height="403"/>
</clipPath>
<g id="surface29" clip-path="url(#clip9)">
<path style=" stroke:none;fill-rule:nonzero;fill:rgb(100%,100%,100%);fill-opacity:1;" d="M 84.03125 191.175781 C 86.886719 192.421875 97.410156 190.863281 97.410156 190.863281 C 97.410156 190.863281 91.410156 182.085938 88.539062 180.863281 C 86.6875 180.011719 84.515625 180.226562 82.867188 181.429688 C 81.214844 182.628906 80.34375 184.628906 80.589844 186.65625 C 80.832031 188.683594 82.152344 190.417969 84.039062 191.195312 Z M 84.03125 191.175781 "/>
</g>
<mask id="mask9">
  <g filter="url(#alpha)">
<rect x="0" y="0" width="525" height="403" style="fill:rgb(0%,0%,0%);fill-opacity:0.501961;stroke:none;"/>
  </g>
</mask>
<clipPath id="clip10">
  <rect x="0" y="0" width="525" height="403"/>
</clipPath>
<g id="surface32" clip-path="url(#clip10)">
<path style=" stroke:none;fill-rule:nonzero;fill:rgb(100%,100%,100%);fill-opacity:1;" d="M 91.203125 144.433594 C 89.515625 147.050781 79.875 151.558594 79.875 151.558594 C 79.875 151.558594 80.050781 140.921875 81.746094 138.304688 C 83.4375 135.691406 86.925781 134.945312 89.539062 136.640625 C 92.152344 138.332031 92.898438 141.824219 91.203125 144.433594 Z M 91.203125 144.433594 "/>
</g>
<mask id="mask10">
  <g filter="url(#alpha)">
<rect x="0" y="0" width="525" height="403" style="fill:rgb(0%,0%,0%);fill-opacity:0.501961;stroke:none;"/>
  </g>
</mask>
<clipPath id="clip11">
  <rect x="0" y="0" width="525" height="403"/>
</clipPath>
<g id="surface35" clip-path="url(#clip11)">
<path style=" stroke:none;fill-rule:nonzero;fill:rgb(100%,100%,100%);fill-opacity:1;" d="M 102.78125 168.53125 C 100.386719 170.53125 89.835938 171.941406 89.835938 171.941406 C 89.835938 171.941406 93.183594 161.839844 95.585938 159.851562 C 97.980469 157.863281 101.535156 158.195312 103.523438 160.59375 C 105.507812 162.988281 105.175781 166.542969 102.78125 168.53125 Z M 102.78125 168.53125 "/>
</g>
<mask id="mask11">
  <g filter="url(#alpha)">
<rect x="0" y="0" width="525" height="403" style="fill:rgb(0%,0%,0%);fill-opacity:0.501961;stroke:none;"/>
  </g>
</mask>
<clipPath id="clip12">
  <rect x="0" y="0" width="525" height="403"/>
</clipPath>
<g id="surface38" clip-path="url(#clip12)">
<path style=" stroke:none;fill-rule:nonzero;fill:rgb(100%,100%,100%);fill-opacity:1;" d="M 110.816406 193.496094 C 108.789062 195.859375 98.636719 199.046875 98.636719 199.046875 C 98.636719 199.046875 100.230469 188.546875 102.261719 186.160156 C 104.285156 183.796875 107.847656 183.523438 110.210938 185.550781 C 112.574219 187.578125 112.847656 191.136719 110.820312 193.5 Z M 110.816406 193.496094 "/>
</g>
<linearGradient id="linear0" gradientUnits="userSpaceOnUse" x1="756.96" y1="364.35" x2="756.96" y2="20.38" gradientTransform="matrix(0.5,0,0,0.5,0,0)">
<stop offset="0" style="stop-color:rgb(50.196078%,50.196078%,50.196078%);stop-opacity:0.25098;"/>
<stop offset="0.54" style="stop-color:rgb(50.196078%,50.196078%,50.196078%);stop-opacity:0.121569;"/>
<stop offset="1" style="stop-color:rgb(50.196078%,50.196078%,50.196078%);stop-opacity:0.101961;"/>
</linearGradient>
<mask id="mask12">
  <g filter="url(#alpha)">
<rect x="0" y="0" width="525" height="403" style="fill:rgb(0%,0%,0%);fill-opacity:0.501961;stroke:none;"/>
  </g>
</mask>
<clipPath id="clip13">
  <rect x="0" y="0" width="525" height="403"/>
</clipPath>
<g id="surface41" clip-path="url(#clip13)">
<path style=" stroke:none;fill-rule:nonzero;fill:rgb(42.352941%,38.823529%,100%);fill-opacity:1;" d="M 265.425781 41.164062 L 357.109375 41.164062 L 357.109375 44.984375 L 265.425781 44.984375 Z M 265.425781 41.164062 "/>
</g>
<mask id="mask13">
  <g filter="url(#alpha)">
<rect x="0" y="0" width="525" height="403" style="fill:rgb(0%,0%,0%);fill-opacity:0.501961;stroke:none;"/>
  </g>
</mask>
<clipPath id="clip14">
  <rect x="0" y="0" width="525" height="403"/>
</clipPath>
<g id="surface44" clip-path="url(#clip14)">
<path style=" stroke:none;fill-rule:nonzero;fill:rgb(42.352941%,38.823529%,100%);fill-opacity:1;" d="M 265.425781 48.804688 L 357.109375 48.804688 L 357.109375 52.625 L 265.425781 52.625 Z M 265.425781 48.804688 "/>
</g>
<mask id="mask14">
  <g filter="url(#alpha)">
<rect x="0" y="0" width="525" height="403" style="fill:rgb(0%,0%,0%);fill-opacity:0.501961;stroke:none;"/>
  </g>
</mask>
<clipPath id="clip15">
  <rect x="0" y="0" width="525" height="403"/>
</clipPath>
<g id="surface47" clip-path="url(#clip15)">
<path style=" stroke:none;fill-rule:nonzero;fill:rgb(42.352941%,38.823529%,100%);fill-opacity:1;" d="M 265.425781 56.445312 L 357.109375 56.445312 L 357.109375 60.265625 L 265.425781 60.265625 Z M 265.425781 56.445312 "/>
</g>
<mask id="mask15">
  <g filter="url(#alpha)">
<rect x="0" y="0" width="525" height="403" style="fill:rgb(0%,0%,0%);fill-opacity:0.501961;stroke:none;"/>
  </g>
</mask>
<clipPath id="clip16">
  <rect x="0" y="0" width="525" height="403"/>
</clipPath>
<g id="surface50" clip-path="url(#clip16)">
<path style=" stroke:none;fill-rule:nonzero;fill:rgb(42.352941%,38.823529%,100%);fill-opacity:1;" d="M 297.023438 64.085938 L 357.105469 64.085938 L 357.105469 67.90625 L 297.023438 67.90625 Z M 297.023438 64.085938 "/>
</g>
<mask id="mask16">
  <g filter="url(#alpha)">
<rect x="0" y="0" width="525" height="403" style="fill:rgb(0%,0%,0%);fill-opacity:0.501961;stroke:none;"/>
  </g>
</mask>
<clipPath id="clip17">
  <rect x="0" y="0" width="525" height="403"/>
</clipPath>
<g id="surface53" clip-path="url(#clip17)">
<path style=" stroke:none;fill-rule:nonzero;fill:rgb(42.352941%,38.823529%,100%);fill-opacity:1;" d="M 265.425781 71.730469 L 313.699219 71.730469 L 313.699219 75.550781 L 265.425781 75.550781 Z M 265.425781 71.730469 "/>
</g>
<mask id="mask17">
  <g filter="url(#alpha)">
<rect x="0" y="0" width="525" height="403" style="fill:rgb(0%,0%,0%);fill-opacity:0.501961;stroke:none;"/>
  </g>
</mask>
<clipPath id="clip18">
  <rect x="0" y="0" width="525" height="403"/>
</clipPath>
<g id="surface56" clip-path="url(#clip18)">
<path style=" stroke:none;fill-rule:nonzero;fill:rgb(42.352941%,38.823529%,100%);fill-opacity:1;" d="M 291.46875 79.371094 L 328.628906 79.371094 L 328.628906 83.191406 L 291.46875 83.191406 Z M 291.46875 79.371094 "/>
</g>
<mask id="mask18">
  <g filter="url(#alpha)">
<rect x="0" y="0" width="525" height="403" style="fill:rgb(0%,0%,0%);fill-opacity:0.501961;stroke:none;"/>
  </g>
</mask>
<clipPath id="clip19">
  <rect x="0" y="0" width="525" height="403"/>
</clipPath>
<g id="surface59" clip-path="url(#clip19)">
<path style=" stroke:none;fill-rule:nonzero;fill:rgb(42.352941%,38.823529%,100%);fill-opacity:1;" d="M 369.265625 67.910156 L 477.273438 67.910156 L 477.273438 130.074219 L 369.265625 130.074219 Z M 369.265625 67.910156 "/>
</g>
<mask id="mask19">
  <g filter="url(#alpha)">
<rect x="0" y="0" width="525" height="403" style="fill:rgb(0%,0%,0%);fill-opacity:0.101961;stroke:none;"/>
  </g>
</mask>
<clipPath id="clip20">
  <rect x="0" y="0" width="525" height="403"/>
</clipPath>
<g id="surface62" clip-path="url(#clip20)">
<path style=" stroke:none;fill-rule:nonzero;fill:rgb(0%,0%,0%);fill-opacity:1;" d="M 489.429688 134.351562 L 489.429688 135.960938 L 414.066406 135.960938 L 414.066406 135.613281 C 414.066406 135.613281 451.148438 99.523438 489.429688 134.351562 Z M 489.429688 134.351562 "/>
</g>
<linearGradient id="linear1" gradientUnits="userSpaceOnUse" x1="919.02" y1="298.54" x2="919.02" y2="260.1" gradientTransform="matrix(0.5,0,0,0.5,-37.5,-23.54)">
<stop offset="0" style="stop-color:rgb(50.196078%,50.196078%,50.196078%);stop-opacity:0.25098;"/>
<stop offset="0.54" style="stop-color:rgb(50.196078%,50.196078%,50.196078%);stop-opacity:0.121569;"/>
<stop offset="1" style="stop-color:rgb(50.196078%,50.196078%,50.196078%);stop-opacity:0.101961;"/>
</linearGradient>
<mask id="mask20">
  <g filter="url(#alpha)">
<rect x="0" y="0" width="525" height="403" style="fill:rgb(0%,0%,0%);fill-opacity:0.101961;stroke:none;"/>
  </g>
</mask>
<clipPath id="clip21">
  <rect x="0" y="0" width="525" height="403"/>
</clipPath>
<g id="surface65" clip-path="url(#clip21)">
<path style=" stroke:none;fill-rule:nonzero;fill:rgb(0%,0%,0%);fill-opacity:1;" d="M 422.714844 116.269531 L 422.714844 116.210938 C 421.949219 116.484375 420.855469 120.378906 420.855469 120.378906 C 420.835938 121.386719 420.675781 122.386719 420.386719 123.351562 L 420.484375 123.386719 C 420.789062 122.414062 420.957031 121.402344 420.984375 120.386719 C 420.984375 120.386719 421.953125 116.828125 422.714844 116.269531 Z M 422.714844 116.269531 "/>
<path style=" stroke:none;fill-rule:nonzero;fill:rgb(0%,0%,0%);fill-opacity:1;" d="M 424.355469 114.375 L 424.25 114.375 C 424.625 115.246094 424.6875 116.21875 424.425781 117.128906 L 424.019531 119.90625 C 424.261719 121.140625 423.558594 123.40625 423.488281 123.65625 L 423.589844 123.65625 C 423.589844 123.65625 424.378906 121.191406 424.128906 119.886719 L 424.535156 117.109375 C 424.789062 116.203125 424.726562 115.238281 424.355469 114.375 Z M 424.355469 114.375 "/>
</g>
<mask id="mask21">
  <g filter="url(#alpha)">
<rect x="0" y="0" width="525" height="403" style="fill:rgb(0%,0%,0%);fill-opacity:0.101961;stroke:none;"/>
  </g>
</mask>
<clipPath id="clip22">
  <rect x="0" y="0" width="525" height="403"/>
</clipPath>
<g id="surface68" clip-path="url(#clip22)">
<path style=" stroke:none;fill-rule:nonzero;fill:rgb(0%,0%,0%);fill-opacity:1;" d="M 420.449219 112.15625 C 420.449219 112.210938 420.488281 112.257812 420.539062 112.269531 C 420.789062 112.328125 421.027344 112.441406 421.230469 112.601562 C 421.613281 112.898438 420.824219 112 420.824219 112 L 420.558594 112.058594 Z M 420.449219 112.15625 "/>
</g>
<mask id="mask22">
  <g filter="url(#alpha)">
<rect x="0" y="0" width="525" height="403" style="fill:rgb(0%,0%,0%);fill-opacity:0.101961;stroke:none;"/>
  </g>
</mask>
<clipPath id="clip23">
  <rect x="0" y="0" width="525" height="403"/>
</clipPath>
<g id="surface71" clip-path="url(#clip23)">
<path style=" stroke:none;fill-rule:nonzero;fill:rgb(0%,0%,0%);fill-opacity:1;" d="M 425.394531 112.414062 C 425.167969 112.3125 424.910156 112.3125 424.683594 112.414062 C 424.457031 112.515625 424.285156 112.707031 424.210938 112.945312 C 424.210938 112.945312 424.878906 112.445312 425.34375 112.515625 "/>
</g>
<mask id="mask23">
  <g filter="url(#alpha)">
<rect x="0" y="0" width="525" height="403" style="fill:rgb(0%,0%,0%);fill-opacity:0.101961;stroke:none;"/>
  </g>
</mask>
<clipPath id="clip24">
  <rect x="0" y="0" width="525" height="403"/>
</clipPath>
<g id="surface74" clip-path="url(#clip24)">
<path style=" stroke:none;fill-rule:nonzero;fill:rgb(0%,0%,0%);fill-opacity:1;" d="M 420.660156 111.960938 C 420.6875 112.335938 420.664062 112.714844 420.589844 113.085938 C 420.515625 113.457031 420.46875 113.839844 420.460938 114.21875 C 420.496094 114.46875 420.570312 116.125 420.570312 116.125 C 420.570312 116.125 420.441406 117.574219 421.144531 117.441406 C 421.851562 117.304688 421.035156 115.789062 421.035156 115.789062 L 421.070312 113.789062 C 421.265625 113.53125 421.390625 113.226562 421.429688 112.90625 C 421.460938 112.460938 420.660156 111.960938 420.660156 111.960938 Z M 420.660156 111.960938 "/>
</g>
<mask id="mask24">
  <g filter="url(#alpha)">
<rect x="0" y="0" width="525" height="403" style="fill:rgb(0%,0%,0%);fill-opacity:0.101961;stroke:none;"/>
  </g>
</mask>
<clipPath id="clip25">
  <rect x="0" y="0" width="525" height="403"/>
</clipPath>
<g id="surface77" clip-path="url(#clip25)">
<path style=" stroke:none;fill-rule:nonzero;fill:rgb(0%,0%,0%);fill-opacity:1;" d="M 425.160156 112.054688 L 425.066406 113.601562 C 425.066406 113.601562 425.003906 115.765625 424.738281 116.316406 C 424.738281 116.316406 424.808594 117.816406 424.105469 117.816406 C 423.398438 117.816406 424.226562 116.148438 424.226562 116.148438 C 424.226562 116.148438 424.605469 114.460938 424.410156 113.921875 L 424.226562 112.066406 Z M 425.160156 112.054688 "/>
</g>
<mask id="mask25">
  <g filter="url(#alpha)">
<rect x="0" y="0" width="525" height="403" style="fill:rgb(0%,0%,0%);fill-opacity:0.101961;stroke:none;"/>
  </g>
</mask>
<clipPath id="clip26">
  <rect x="0" y="0" width="525" height="403"/>
</clipPath>
<g id="surface80" clip-path="url(#clip26)">
<path style=" stroke:none;fill-rule:nonzero;fill:rgb(0%,0%,0%);fill-opacity:1;" d="M 422.875 110.554688 C 422.875 110.554688 423.445312 110.820312 423.761719 110.054688 L 424.925781 110.625 C 425.070312 110.761719 425.148438 110.953125 425.148438 111.148438 L 425.398438 112.488281 C 425.1875 112.40625 424.945312 112.410156 424.738281 112.503906 C 424.527344 112.601562 424.363281 112.773438 424.285156 112.988281 L 424.355469 113.746094 C 424.410156 113.929688 424.398438 114.132812 424.320312 114.308594 C 424.304688 114.34375 424.304688 114.378906 424.320312 114.410156 C 424.363281 114.523438 424.347656 114.648438 424.28125 114.746094 C 424.214844 114.84375 424.105469 114.90625 423.984375 114.910156 C 423.671875 114.914062 423.359375 114.9375 423.050781 114.980469 C 422.800781 115.050781 422.050781 114.835938 421.796875 114.980469 C 421.539062 115.125 421.015625 114.871094 421.015625 114.871094 L 421.160156 114.261719 C 421.160156 114.261719 421.066406 113.960938 421.160156 113.855469 C 421.25 113.421875 421.230469 112.972656 421.101562 112.550781 C 421.101562 112.550781 420.671875 112.144531 420.421875 112.214844 L 420.78125 110.671875 C 420.933594 110.378906 421.230469 110.1875 421.558594 110.171875 C 421.828125 110.195312 422.097656 110.117188 422.316406 109.953125 C 422.316406 109.953125 422.035156 110.460938 422.875 110.554688 Z M 422.875 110.554688 "/>
</g>
<mask id="mask26">
  <g filter="url(#alpha)">
<rect x="0" y="0" width="525" height="403" style="fill:rgb(0%,0%,0%);fill-opacity:0.101961;stroke:none;"/>
  </g>
</mask>
<clipPath id="clip27">
  <rect x="0" y="0" width="525" height="403"/>
</clipPath>
<g id="surface83" clip-path="url(#clip27)">
<path style=" stroke:none;fill-rule:nonzero;fill:rgb(0%,0%,0%);fill-opacity:1;" d="M 422.933594 110.53125 C 423.089844 110.570312 423.511719 110.621094 423.761719 109.988281 L 424.925781 110.558594 C 425.070312 110.695312 425.148438 110.886719 425.148438 111.085938 L 425.398438 112.425781 C 425.1875 112.339844 424.945312 112.347656 424.738281 112.441406 C 424.527344 112.535156 424.363281 112.710938 424.285156 112.925781 L 424.355469 113.679688 L 424.398438 113.828125 C 424.441406 113.960938 424.417969 114.101562 424.339844 114.210938 C 424.3125 114.253906 424.3125 114.308594 424.339844 114.351562 C 424.382812 114.460938 424.367188 114.585938 424.300781 114.6875 C 424.234375 114.785156 424.125 114.847656 424.003906 114.851562 C 423.691406 114.851562 423.378906 114.875 423.070312 114.921875 C 422.820312 114.988281 422.070312 114.773438 421.816406 114.921875 C 421.558594 115.066406 421.035156 114.808594 421.035156 114.808594 L 421.179688 114.199219 C 421.179688 114.199219 421.085938 113.898438 421.179688 113.796875 C 421.269531 113.363281 421.25 112.914062 421.121094 112.488281 C 421.121094 112.488281 420.691406 112.085938 420.441406 112.15625 L 420.800781 110.609375 C 420.953125 110.316406 421.25 110.128906 421.578125 110.109375 C 421.851562 110.132812 422.117188 110.058594 422.335938 109.894531 C 422.335938 109.894531 422.054688 110.394531 422.796875 110.519531 Z M 422.933594 110.53125 "/>
</g>
<mask id="mask27">
  <g filter="url(#alpha)">
<rect x="0" y="0" width="525" height="403" style="fill:rgb(0%,0%,0%);fill-opacity:0.101961;stroke:none;"/>
  </g>
</mask>
<clipPath id="clip28">
  <rect x="0" y="0" width="525" height="403"/>
</clipPath>
<g id="surface86" clip-path="url(#clip28)">
<path style=" stroke:none;fill-rule:nonzero;fill:rgb(0%,0%,0%);fill-opacity:1;" d="M 423.375 108.484375 L 422.375 109.121094 C 422.402344 109.230469 422.421875 109.339844 422.433594 109.449219 C 422.550781 109.496094 422.675781 109.519531 422.800781 109.519531 C 423.050781 109.503906 423.285156 109.398438 423.460938 109.21875 C 423.410156 108.976562 423.378906 108.730469 423.375 108.484375 Z M 423.375 108.484375 "/>
</g>
<mask id="mask28">
  <g filter="url(#alpha)">
<rect x="0" y="0" width="525" height="403" style="fill:rgb(0%,0%,0%);fill-opacity:0.101961;stroke:none;"/>
  </g>
</mask>
<clipPath id="clip29">
  <rect x="0" y="0" width="525" height="403"/>
</clipPath>
<g id="surface89" clip-path="url(#clip29)">
<path style=" stroke:none;fill-rule:nonzero;fill:rgb(0%,0%,0%);fill-opacity:1;" d="M 424.125 111.355469 C 424.171875 111.566406 424.171875 111.789062 424.125 112 C 424.125 112 424.066406 112.566406 424.160156 112.660156 "/>
</g>
<mask id="mask29">
  <g filter="url(#alpha)">
<rect x="0" y="0" width="525" height="403" style="fill:rgb(0%,0%,0%);fill-opacity:0.101961;stroke:none;"/>
  </g>
</mask>
<clipPath id="clip30">
  <rect x="0" y="0" width="525" height="403"/>
</clipPath>
<g id="surface92" clip-path="url(#clip30)">
<path style=" stroke:none;fill-rule:nonzero;fill:rgb(0%,0%,0%);fill-opacity:1;" d="M 421.214844 111.460938 C 421.261719 111.671875 421.261719 111.890625 421.214844 112.105469 C 421.214844 112.105469 421.15625 112.671875 421.25 112.765625 "/>
</g>
<mask id="mask30">
  <g filter="url(#alpha)">
<rect x="0" y="0" width="525" height="403" style="fill:rgb(0%,0%,0%);fill-opacity:0.101961;stroke:none;"/>
  </g>
</mask>
<clipPath id="clip31">
  <rect x="0" y="0" width="525" height="403"/>
</clipPath>
<g id="surface95" clip-path="url(#clip31)">
<path style=" stroke:none;fill-rule:nonzero;fill:rgb(0%,0%,0%);fill-opacity:1;" d="M 421.191406 113.796875 C 421.28125 113.828125 421.382812 113.828125 421.476562 113.796875 C 421.585938 113.761719 421.707031 113.761719 421.820312 113.796875 "/>
</g>
<mask id="mask31">
  <g filter="url(#alpha)">
<rect x="0" y="0" width="525" height="403" style="fill:rgb(0%,0%,0%);fill-opacity:0.101961;stroke:none;"/>
  </g>
</mask>
<clipPath id="clip32">
  <rect x="0" y="0" width="525" height="403"/>
</clipPath>
<g id="surface98" clip-path="url(#clip32)">
<path style=" stroke:none;fill-rule:nonzero;fill:rgb(0%,0%,0%);fill-opacity:1;" d="M 421.335938 112.960938 C 421.675781 112.976562 422.015625 112.925781 422.335938 112.804688 C 422.335938 112.804688 423.554688 113.105469 423.90625 112.890625 "/>
</g>
<mask id="mask32">
  <g filter="url(#alpha)">
<rect x="0" y="0" width="525" height="403" style="fill:rgb(0%,0%,0%);fill-opacity:0.101961;stroke:none;"/>
  </g>
</mask>
<clipPath id="clip33">
  <rect x="0" y="0" width="525" height="403"/>
</clipPath>
<g id="surface101" clip-path="url(#clip33)">
<path style=" stroke:none;fill-rule:nonzero;fill:rgb(0%,0%,0%);fill-opacity:1;" d="M 422.925781 107.851562 C 422.886719 108.214844 422.933594 108.585938 423.058594 108.929688 C 423.183594 109.265625 423.164062 109.640625 423 109.960938 C 423.109375 109.984375 423.222656 109.957031 423.304688 109.886719 C 423.390625 109.808594 423.464844 109.722656 423.523438 109.625 C 423.589844 109.546875 423.636719 109.453125 423.660156 109.355469 C 423.667969 109.199219 423.644531 109.042969 423.589844 108.898438 C 423.523438 108.632812 423.472656 108.363281 423.445312 108.089844 C 423.445312 107.925781 423.445312 107.445312 423.261719 107.398438 C 423.074219 107.355469 422.960938 107.710938 422.925781 107.851562 Z M 422.925781 107.851562 "/>
</g>
<mask id="mask33">
  <g filter="url(#alpha)">
<rect x="0" y="0" width="525" height="403" style="fill:rgb(0%,0%,0%);fill-opacity:0.101961;stroke:none;"/>
  </g>
</mask>
<clipPath id="clip34">
  <rect x="0" y="0" width="525" height="403"/>
</clipPath>
<g id="surface104" clip-path="url(#clip34)">
<path style=" stroke:none;fill-rule:nonzero;fill:rgb(0%,0%,0%);fill-opacity:1;" d="M 422.53125 108.09375 C 422.609375 108.179688 422.628906 108.308594 422.699219 108.410156 C 422.828125 108.546875 423.011719 108.621094 423.199219 108.605469 C 423.25 108.601562 423.296875 108.613281 423.339844 108.636719 C 423.414062 108.683594 423.421875 108.796875 423.46875 108.871094 C 423.523438 108.929688 423.597656 108.960938 423.675781 108.960938 C 423.753906 108.960938 423.828125 108.929688 423.878906 108.871094 C 423.964844 108.75 424.003906 108.605469 424 108.460938 C 424.015625 108.292969 424.015625 108.125 424 107.960938 C 423.996094 107.761719 423.917969 107.574219 423.78125 107.429688 C 423.667969 107.347656 423.535156 107.289062 423.394531 107.265625 C 423.203125 107.199219 423 107.183594 422.800781 107.21875 C 422.703125 107.253906 422.613281 107.296875 422.53125 107.355469 L 422.179688 107.589844 C 422.050781 107.679688 421.808594 107.859375 422.046875 107.960938 C 422.214844 107.996094 422.40625 107.960938 422.53125 108.09375 Z M 422.53125 108.09375 "/>
</g>
<mask id="mask34">
  <g filter="url(#alpha)">
<rect x="0" y="0" width="525" height="403" style="fill:rgb(0%,0%,0%);fill-opacity:0.2;stroke:none;"/>
  </g>
</mask>
<clipPath id="clip35">
  <rect x="0" y="0" width="525" height="403"/>
</clipPath>
<g id="surface107" clip-path="url(#clip35)">
<path style=" stroke:none;fill-rule:nonzero;fill:rgb(42.352941%,38.823529%,100%);fill-opacity:1;" d="M 196.191406 347.339844 L 156.421875 347.339844 L 156.421875 324.933594 L 196.191406 324.933594 Z M 158.101562 345.660156 L 194.5 345.660156 L 194.5 326.613281 L 158.101562 326.613281 Z M 158.101562 345.660156 "/>
</g>
<linearGradient id="linear2" gradientUnits="userSpaceOnUse" x1="532.43" y1="677.74" x2="532.43" y2="220.6" gradientTransform="matrix(-0.5,0,0,0.5,424.425,-23.54)">
<stop offset="0" style="stop-color:rgb(50.196078%,50.196078%,50.196078%);stop-opacity:0.25098;"/>
<stop offset="0.54" style="stop-color:rgb(50.196078%,50.196078%,50.196078%);stop-opacity:0.121569;"/>
<stop offset="1" style="stop-color:rgb(50.196078%,50.196078%,50.196078%);stop-opacity:0.101961;"/>
</linearGradient>
<mask id="mask35">
  <g filter="url(#alpha)">
<rect x="0" y="0" width="525" height="403" style="fill:rgb(0%,0%,0%);fill-opacity:0.101961;stroke:none;"/>
  </g>
</mask>
<clipPath id="clip36">
  <rect x="0" y="0" width="525" height="403"/>
</clipPath>
<g id="surface110" clip-path="url(#clip36)">
<path style=" stroke:none;fill-rule:nonzero;fill:rgb(0%,0%,0%);fill-opacity:1;" d="M 144.261719 193.664062 C 144.261719 193.664062 119.371094 193.664062 112.988281 170.691406 L 92.039062 186.925781 C 89.117188 189.191406 87.253906 192.558594 86.886719 196.238281 L 84.886719 216.003906 C 84.886719 216.003906 82.648438 223.34375 85.203125 227.808594 C 85.203125 227.808594 111.703125 221.109375 112.328125 228.765625 L 93.839844 280.460938 C 93.839844 280.460938 122.558594 281.101562 130.214844 275.996094 C 130.214844 275.996094 161.484375 282.375 169.144531 275.355469 C 176.804688 268.335938 184.460938 268.976562 178.078125 253.019531 C 178.078125 253.019531 190.84375 240.253906 185.078125 222.386719 C 179.316406 204.515625 184.761719 222.703125 184.761719 222.703125 C 184.761719 222.703125 197.203125 216.640625 196.566406 205.15625 L 195.289062 193.65625 C 195.289062 193.65625 195.21875 193.273438 195.046875 192.589844 C 191.15625 177.449219 180.699219 169.089844 166.003906 174.421875 C 161.710938 175.976562 157.320312 174.195312 157.320312 174.195312 C 157.320312 174.195312 162.125 194.960938 144.261719 193.664062 Z M 144.261719 193.664062 "/>
</g>
<mask id="mask36">
  <g filter="url(#alpha)">
<rect x="0" y="0" width="525" height="403" style="fill:rgb(0%,0%,0%);fill-opacity:0.101961;stroke:none;"/>
  </g>
</mask>
<clipPath id="clip37">
  <rect x="0" y="0" width="525" height="403"/>
</clipPath>
<g id="surface113" clip-path="url(#clip37)">
<path style=" stroke:none;fill-rule:nonzero;fill:rgb(0%,0%,0%);fill-opacity:1;" d="M 112.664062 215.679688 C 112.664062 215.679688 98 225.640625 85.226562 224.808594 C 85.226562 224.808594 83.949219 207.703125 87.78125 206.75 C 91.609375 205.796875 108.199219 206.75 112.664062 215.679688 Z M 112.664062 215.679688 "/>
</g>
<mask id="mask37">
  <g filter="url(#alpha)">
<rect x="0" y="0" width="525" height="403" style="fill:rgb(0%,0%,0%);fill-opacity:0.101961;stroke:none;"/>
  </g>
</mask>
<clipPath id="clip38">
  <rect x="0" y="0" width="525" height="403"/>
</clipPath>
<g id="surface116" clip-path="url(#clip38)">
<path style=" stroke:none;fill-rule:nonzero;fill:rgb(0%,0%,0%);fill-opacity:1;" d="M 133.410156 156.011719 L 159.574219 159.839844 C 159.574219 159.839844 158.984375 165.601562 158.871094 172.214844 C 148.496094 176.589844 136.53125 174.648438 128.074219 167.214844 C 130.265625 164.515625 132.15625 160.886719 133.410156 156.011719 Z M 133.410156 156.011719 "/>
</g>
<mask id="mask38">
  <g filter="url(#alpha)">
<rect x="0" y="0" width="525" height="403" style="fill:rgb(0%,0%,0%);fill-opacity:0.101961;stroke:none;"/>
  </g>
</mask>
<clipPath id="clip39">
  <rect x="0" y="0" width="525" height="403"/>
</clipPath>
<g id="surface119" clip-path="url(#clip39)">
<path style=" stroke:none;fill-rule:nonzero;fill:rgb(0%,0%,0%);fill-opacity:1;" d="M 141 138.246094 C 142.210938 138.804688 143.589844 138.816406 144.925781 138.804688 C 150.117188 138.773438 155.308594 138.578125 160.488281 138.230469 C 164.421875 137.964844 168.609375 137.503906 171.640625 134.988281 C 175.71875 131.605469 176.363281 125.261719 174.261719 120.394531 C 172.15625 115.53125 167.859375 111.945312 163.324219 109.203125 C 160.757812 107.578125 157.980469 106.316406 155.066406 105.460938 C 146.648438 103.175781 137.34375 105.960938 130.660156 111.585938 C 123.976562 117.210938 119.714844 125.273438 117.460938 133.699219 C 116.679688 136.613281 115.679688 140.085938 112.796875 140.96875 C 114.714844 144.164062 119.398438 144.671875 122.769531 143.070312 C 127.730469 140.710938 130.269531 131.679688 134.726562 130.261719 C 139.679688 128.695312 136.789062 136.316406 141 138.246094 Z M 141 138.246094 "/>
</g>
<mask id="mask39">
  <g filter="url(#alpha)">
<rect x="0" y="0" width="525" height="403" style="fill:rgb(0%,0%,0%);fill-opacity:0.101961;stroke:none;"/>
  </g>
</mask>
<clipPath id="clip40">
  <rect x="0" y="0" width="525" height="403"/>
</clipPath>
<g id="surface122" clip-path="url(#clip40)">
<path style=" stroke:none;fill-rule:nonzero;fill:rgb(0%,0%,0%);fill-opacity:1;" d="M 178.398438 251.421875 C 168.824219 248.863281 158.957031 247.574219 149.046875 247.589844 "/>
</g>
<mask id="mask40">
  <g filter="url(#alpha)">
<rect x="0" y="0" width="525" height="403" style="fill:rgb(0%,0%,0%);fill-opacity:0.101961;stroke:none;"/>
  </g>
</mask>
<clipPath id="clip41">
  <rect x="0" y="0" width="525" height="403"/>
</clipPath>
<g id="surface125" clip-path="url(#clip41)">
<path style=" stroke:none;fill-rule:nonzero;fill:rgb(0%,0%,0%);fill-opacity:1;" d="M 112.664062 216.960938 C 112.664062 216.960938 122.238281 223.960938 119.664062 227.808594 "/>
</g>
<mask id="mask41">
  <g filter="url(#alpha)">
<rect x="0" y="0" width="525" height="403" style="fill:rgb(0%,0%,0%);fill-opacity:0.701961;stroke:none;"/>
  </g>
</mask>
<linearGradient id="linear3" gradientUnits="userSpaceOnUse" x1="441.23" y1="805.83" x2="441.23" y2="578.64" gradientTransform="matrix(0.5,0,0,0.5,0,0)">
<stop offset="0" style="stop-color:rgb(50.196078%,50.196078%,50.196078%);stop-opacity:0.25098;"/>
<stop offset="0.54" style="stop-color:rgb(50.196078%,50.196078%,50.196078%);stop-opacity:0.121569;"/>
<stop offset="1" style="stop-color:rgb(50.196078%,50.196078%,50.196078%);stop-opacity:0.101961;"/>
</linearGradient>
<clipPath id="clip42">
  <rect x="0" y="0" width="525" height="403"/>
</clipPath>
<g id="surface128" clip-path="url(#clip42)">
<path style=" stroke:none;fill-rule:nonzero;fill:url(#linear3);" d="M 377.289062 289.320312 L 63.941406 289.320312 L 63.941406 316.714844 L 82.179688 316.714844 L 82.179688 402.921875 L 359.699219 402.921875 L 359.699219 316.714844 L 377.289062 316.714844 Z M 377.289062 289.320312 "/>
</g>
<mask id="mask42">
  <g filter="url(#alpha)">
<rect x="0" y="0" width="525" height="403" style="fill:rgb(0%,0%,0%);fill-opacity:0.101961;stroke:none;"/>
  </g>
</mask>
<clipPath id="clip43">
  <rect x="0" y="0" width="525" height="403"/>
</clipPath>
<g id="surface131" clip-path="url(#clip43)">
<path style=" stroke:none;fill-rule:nonzero;fill:rgb(0%,0%,0%);fill-opacity:1;" d="M 85 310.378906 L 356.863281 310.378906 L 356.863281 325.695312 L 85 325.695312 Z M 85 310.378906 "/>
</g>
<mask id="mask43">
  <g filter="url(#alpha)">
<rect x="0" y="0" width="525" height="403" style="fill:rgb(0%,0%,0%);fill-opacity:0.701961;stroke:none;"/>
  </g>
</mask>
<linearGradient id="linear4" gradientUnits="userSpaceOnUse" x1="467.66" y1="592.77" x2="467.66" y2="390.97" gradientTransform="matrix(0.5,0,0,0.5,0,0)">
<stop offset="0" style="stop-color:rgb(50.196078%,50.196078%,50.196078%);stop-opacity:0.25098;"/>
<stop offset="0.54" style="stop-color:rgb(50.196078%,50.196078%,50.196078%);stop-opacity:0.121569;"/>
<stop offset="1" style="stop-color:rgb(50.196078%,50.196078%,50.196078%);stop-opacity:0.101961;"/>
</linearGradient>
<clipPath id="clip44">
  <rect x="0" y="0" width="525" height="403"/>
</clipPath>
<g id="surface134" clip-path="url(#clip44)">
<path style=" stroke:none;fill-rule:nonzero;fill:url(#linear4);" d="M 174.976562 195.484375 L 292.679688 195.484375 C 300.472656 195.484375 306.789062 201.800781 306.789062 209.59375 L 306.789062 282.273438 C 306.789062 290.066406 300.472656 296.386719 292.679688 296.386719 L 174.976562 296.386719 C 167.183594 296.386719 160.863281 290.066406 160.863281 282.273438 L 160.863281 209.59375 C 160.863281 201.800781 167.183594 195.484375 174.976562 195.484375 Z M 174.976562 195.484375 "/>
</g>
</defs>
<g id="surface1">
<use xlink:href="#surface5" mask="url(#mask0)"/>
<path style="fill:none;stroke-width:2;stroke-linecap:butt;stroke-linejoin:miter;stroke:rgb(32.54902%,32.941176%,38.039216%);stroke-opacity:1;stroke-miterlimit:10;" d="M 264.78125 659.290938 C 264.78125 659.290938 261.476562 561.533125 208.59375 506.290937 C 186.390625 483.11125 171.8125 453.67375 167.953125 421.806562 C 166.148438 406.689375 165.734375 391.439375 166.710938 376.23625 " transform="matrix(0.5,0,0,0.5,-37.5,-23.54)"/>
<path style=" stroke:none;fill-rule:nonzero;fill:rgb(42.352941%,38.823529%,100%);fill-opacity:1;" d="M 29.289062 147.089844 C 31.101562 152.550781 46.230469 165.089844 46.230469 165.089844 C 46.230469 165.089844 50.863281 145.984375 49.054688 140.53125 C 47.246094 135.070312 41.351562 132.113281 35.894531 133.925781 C 30.4375 135.734375 27.480469 141.628906 29.289062 147.085938 Z M 29.289062 147.089844 "/>
<path style=" stroke:none;fill-rule:nonzero;fill:rgb(42.352941%,38.823529%,100%);fill-opacity:1;" d="M 23 182.734375 C 27.5 186.335938 47 188.644531 47 188.644531 C 47 188.644531 40.5 170.089844 36 166.496094 C 31.5 163.1875 25.195312 164.019531 21.707031 168.378906 C 18.21875 172.734375 18.789062 179.070312 23 182.734375 Z M 23 182.734375 "/>
<path style=" stroke:none;fill-rule:nonzero;fill:rgb(42.352941%,38.823529%,100%);fill-opacity:1;" d="M 40.824219 234.160156 C 46.515625 235 64.53125 227.160156 64.53125 227.160156 C 64.53125 227.160156 49.558594 214.421875 43.871094 213.578125 C 38.179688 212.738281 32.886719 216.667969 32.046875 222.359375 C 31.207031 228.046875 35.136719 233.339844 40.824219 234.179688 Z M 40.824219 234.160156 "/>
<path style=" stroke:none;fill-rule:nonzero;fill:rgb(42.352941%,38.823529%,100%);fill-opacity:1;" d="M 63.085938 270.03125 C 68.550781 271.820312 87.636719 267.121094 87.636719 267.121094 C 87.636719 267.121094 75.03125 252.035156 69.566406 250.246094 C 64.101562 248.449219 58.21875 251.425781 56.421875 256.886719 C 54.628906 262.351562 57.601562 268.234375 63.066406 270.03125 Z M 63.085938 270.03125 "/>
<path style=" stroke:none;fill-rule:nonzero;fill:rgb(42.352941%,38.823529%,100%);fill-opacity:1;" d="M 68.085938 182.820312 C 65.429688 187.921875 48.5 197.910156 48.5 197.910156 C 48.5 197.910156 46.960938 178.316406 49.613281 173.210938 C 52.269531 168.109375 58.554688 166.125 63.65625 168.78125 C 68.753906 171.433594 70.738281 177.71875 68.085938 182.820312 Z M 68.085938 182.820312 "/>
<path style=" stroke:none;fill-rule:nonzero;fill:rgb(42.352941%,38.823529%,100%);fill-opacity:1;" d="M 93.589844 225.101562 C 89.53125 229.175781 70.390625 233.636719 70.390625 233.636719 C 70.390625 233.636719 74.785156 214.476562 78.839844 210.398438 C 82.898438 206.328125 89.488281 206.316406 93.5625 210.371094 C 97.636719 214.429688 97.648438 221.023438 93.589844 225.09375 Z M 93.589844 225.101562 "/>
<path style=" stroke:none;fill-rule:nonzero;fill:rgb(42.352941%,38.823529%,100%);fill-opacity:1;" d="M 112.738281 269.59375 C 109.429688 274.296875 91.316406 281.929688 91.316406 281.929688 C 91.316406 281.929688 92.40625 262.304688 95.71875 257.601562 C 97.808594 254.425781 101.460938 252.636719 105.25 252.941406 C 109.039062 253.246094 112.363281 255.589844 113.917969 259.058594 C 115.472656 262.527344 115.011719 266.570312 112.71875 269.601562 Z M 112.738281 269.59375 "/>
<path style=" stroke:none;fill-rule:nonzero;fill:rgb(42.352941%,38.823529%,100%);fill-opacity:1;" d="M 327.28125 272.914062 C 327.28125 272.914062 319.339844 270.226562 315.519531 277.21875 C 313.472656 281.074219 313.535156 285.707031 315.691406 289.503906 C 318.191406 294.039062 323.371094 299.929688 333.191406 299.40625 C 341.5 298.960938 344.238281 292.621094 345 286.71875 C 345.585938 282.222656 343.789062 277.742188 340.257812 274.894531 C 336.726562 272.050781 331.964844 271.242188 327.695312 272.769531 Z M 327.28125 272.914062 "/>
<use xlink:href="#surface8" mask="url(#mask1)"/>
<use xlink:href="#surface11" mask="url(#mask2)"/>
<path style=" stroke:none;fill-rule:nonzero;fill:rgb(42.352941%,38.823529%,100%);fill-opacity:1;" d="M 322.550781 259.460938 C 322.550781 259.460938 327.59375 273.125 327.175781 276.699219 L 331.175781 276.28125 C 331.175781 276.28125 324.445312 264.28125 326.128906 259.460938 Z M 322.550781 259.460938 "/>
<use xlink:href="#surface14" mask="url(#mask3)"/>
<path style=" stroke:none;fill-rule:nonzero;fill:rgb(42.352941%,38.823529%,100%);fill-opacity:1;" d="M 343.144531 260.601562 C 343.144531 260.601562 335.203125 256.539062 331.644531 259.894531 C 328.085938 263.25 327.546875 271.824219 327.546875 271.824219 C 327.546875 271.824219 340.5 273.605469 343.144531 260.601562 Z M 343.144531 260.601562 "/>
<use xlink:href="#surface17" mask="url(#mask4)"/>
<path style="fill:none;stroke-width:1;stroke-linecap:butt;stroke-linejoin:miter;stroke:rgb(42.352941%,38.823529%,100%);stroke-opacity:1;stroke-miterlimit:10;" d="M 730.101562 590.728438 C 730.101562 590.728438 734.273438 570.822188 761.289062 568.283125 " transform="matrix(0.5,0,0,0.5,-37.5,-23.54)"/>
<path style="fill:none;stroke-width:2;stroke-linecap:butt;stroke-linejoin:miter;stroke:rgb(32.54902%,32.941176%,38.039216%);stroke-opacity:1;stroke-miterlimit:10;" d="M 273.632812 471.587812 C 273.632812 471.587812 276.867188 418.728437 251.203125 386.251875 C 240.34375 372.697187 234.179688 355.98625 233.632812 338.626875 C 233.4375 330.384687 234 322.1425 235.3125 314.001875 " transform="matrix(0.5,0,0,0.5,-37.5,-23.54)"/>
<path style=" stroke:none;fill-rule:nonzero;fill:rgb(42.352941%,38.823529%,100%);fill-opacity:1;" d="M 72.128906 123.179688 C 72.824219 126.214844 80.335938 133.753906 80.335938 133.753906 C 80.335938 133.753906 83.835938 123.695312 83.121094 120.664062 C 82.429688 117.628906 79.40625 115.726562 76.371094 116.414062 C 73.332031 117.105469 71.429688 120.128906 72.121094 123.164062 Z M 72.128906 123.179688 "/>
<path style=" stroke:none;fill-rule:nonzero;fill:rgb(42.352941%,38.823529%,100%);fill-opacity:1;" d="M 66.898438 142.070312 C 69.136719 144.238281 79.535156 146.488281 79.535156 146.488281 C 79.535156 146.488281 76.988281 136.15625 74.753906 133.988281 C 72.523438 131.820312 68.953125 131.871094 66.785156 134.105469 C 64.617188 136.335938 64.667969 139.90625 66.898438 142.074219 Z M 66.898438 142.070312 "/>
<path style=" stroke:none;fill-rule:nonzero;fill:rgb(42.352941%,38.823529%,100%);fill-opacity:1;" d="M 73.875 170.703125 C 76.875 171.449219 87.011719 168.140625 87.011719 168.140625 C 87.011719 168.140625 79.59375 160.503906 76.574219 159.761719 C 73.550781 159.015625 70.5 160.859375 69.753906 163.882812 C 69.007812 166.90625 70.851562 169.960938 73.875 170.703125 Z M 73.875 170.703125 "/>
<path style=" stroke:none;fill-rule:nonzero;fill:rgb(42.352941%,38.823529%,100%);fill-opacity:1;" d="M 84.03125 191.175781 C 86.886719 192.421875 97.410156 190.863281 97.410156 190.863281 C 97.410156 190.863281 91.410156 182.085938 88.539062 180.863281 C 86.6875 180.011719 84.515625 180.226562 82.867188 181.429688 C 81.214844 182.628906 80.34375 184.628906 80.589844 186.65625 C 80.832031 188.683594 82.152344 190.417969 84.039062 191.195312 Z M 84.03125 191.175781 "/>
<path style=" stroke:none;fill-rule:nonzero;fill:rgb(42.352941%,38.823529%,100%);fill-opacity:1;" d="M 91.203125 144.433594 C 89.515625 147.050781 79.875 151.558594 79.875 151.558594 C 79.875 151.558594 80.050781 140.921875 81.746094 138.304688 C 83.4375 135.691406 86.925781 134.945312 89.539062 136.640625 C 92.152344 138.332031 92.898438 141.824219 91.203125 144.433594 Z M 91.203125 144.433594 "/>
<path style=" stroke:none;fill-rule:nonzero;fill:rgb(42.352941%,38.823529%,100%);fill-opacity:1;" d="M 102.78125 168.53125 C 100.386719 170.53125 89.835938 171.941406 89.835938 171.941406 C 89.835938 171.941406 93.183594 161.839844 95.585938 159.851562 C 97.980469 157.863281 101.535156 158.195312 103.523438 160.59375 C 105.507812 162.988281 105.175781 166.542969 102.78125 168.53125 Z M 102.78125 168.53125 "/>
<path style=" stroke:none;fill-rule:nonzero;fill:rgb(42.352941%,38.823529%,100%);fill-opacity:1;" d="M 110.816406 193.496094 C 108.789062 195.859375 98.636719 199.046875 98.636719 199.046875 C 98.636719 199.046875 100.230469 188.546875 102.261719 186.160156 C 104.285156 183.796875 107.847656 183.523438 110.210938 185.550781 C 112.574219 187.578125 112.847656 191.136719 110.820312 193.5 Z M 110.816406 193.496094 "/>
<use xlink:href="#surface20" mask="url(#mask5)"/>
<use xlink:href="#surface23" mask="url(#mask6)"/>
<use xlink:href="#surface26" mask="url(#mask7)"/>
<use xlink:href="#surface29" mask="url(#mask8)"/>
<use xlink:href="#surface32" mask="url(#mask9)"/>
<use xlink:href="#surface35" mask="url(#mask10)"/>
<use xlink:href="#surface38" mask="url(#mask11)"/>
<path style=" stroke:none;fill-rule:nonzero;fill:url(#linear0);" d="M 252.25 10.195312 L 252.25 182.175781 L 504.710938 182.175781 L 504.710938 10.195312 Z M 252.25 10.195312 "/>
<path style=" stroke:none;fill-rule:nonzero;fill:rgb(100%,100%,100%);fill-opacity:1;" d="M 255.996094 17.996094 L 502.035156 17.996094 L 502.035156 179.058594 L 255.996094 179.058594 Z M 255.996094 17.996094 "/>
<path style=" stroke:none;fill-rule:nonzero;fill:rgb(93.333333%,93.333333%,93.333333%);fill-opacity:1;" d="M 255.996094 10.335938 L 502.035156 10.335938 L 502.035156 22.183594 L 255.996094 22.183594 Z M 255.996094 10.335938 "/>
<path style=" stroke:none;fill-rule:nonzero;fill:rgb(100%,32.156863%,32.156863%);fill-opacity:1;" d="M 268.230469 16.078125 C 268.230469 17.667969 266.941406 18.953125 265.355469 18.953125 C 263.765625 18.953125 262.480469 17.667969 262.480469 16.078125 C 262.480469 14.492188 263.765625 13.203125 265.355469 13.203125 C 266.941406 13.203125 268.230469 14.492188 268.230469 16.078125 Z M 268.230469 16.078125 "/>
<path style=" stroke:none;fill-rule:nonzero;fill:rgb(100%,100%,0%);fill-opacity:1;" d="M 276.136719 16.078125 C 276.136719 17.667969 274.847656 18.953125 273.261719 18.953125 C 271.671875 18.953125 270.386719 17.667969 270.386719 16.078125 C 270.386719 14.492188 271.671875 13.203125 273.261719 13.203125 C 274.847656 13.203125 276.136719 14.492188 276.136719 16.078125 Z M 276.136719 16.078125 "/>
<path style=" stroke:none;fill-rule:nonzero;fill:rgb(41.176471%,94.117647%,68.235294%);fill-opacity:1;" d="M 284.035156 16.078125 C 284.035156 17.667969 282.746094 18.953125 281.160156 18.953125 C 279.570312 18.953125 278.285156 17.667969 278.285156 16.078125 C 278.285156 14.492188 279.570312 13.203125 281.160156 13.203125 C 282.746094 13.203125 284.035156 14.492188 284.035156 16.078125 Z M 284.035156 16.078125 "/>
<use xlink:href="#surface41" mask="url(#mask12)"/>
<use xlink:href="#surface44" mask="url(#mask13)"/>
<use xlink:href="#surface47" mask="url(#mask14)"/>
<use xlink:href="#surface50" mask="url(#mask15)"/>
<use xlink:href="#surface53" mask="url(#mask16)"/>
<use xlink:href="#surface56" mask="url(#mask17)"/>
<use xlink:href="#surface59" mask="url(#mask18)"/>
<path style=" stroke:none;fill-rule:nonzero;fill:rgb(93.333333%,93.333333%,93.333333%);fill-opacity:1;" d="M 382.113281 73.808594 L 490.125 73.808594 L 490.125 135.976562 L 382.113281 135.976562 Z M 382.113281 73.808594 "/>
<path style=" stroke:none;fill-rule:nonzero;fill:rgb(42.352941%,38.823529%,100%);fill-opacity:1;" d="M 442.546875 135.960938 L 382.113281 135.960938 L 382.113281 124.589844 C 396.878906 117.691406 419.59375 113.816406 442.546875 135.960938 Z M 442.546875 135.960938 "/>
<use xlink:href="#surface62" mask="url(#mask19)"/>
<path style=" stroke:none;fill-rule:nonzero;fill:rgb(42.352941%,38.823529%,100%);fill-opacity:1;" d="M 490.125 134.351562 L 490.125 135.960938 L 414.761719 135.960938 L 414.761719 135.613281 C 414.761719 135.613281 451.84375 99.523438 490.125 134.351562 Z M 490.125 134.351562 "/>
<path style=" stroke:none;fill-rule:nonzero;fill:rgb(42.352941%,38.823529%,100%);fill-opacity:1;" d="M 400.175781 84.925781 C 400.175781 87.992188 397.6875 90.480469 394.621094 90.480469 C 391.550781 90.480469 389.066406 87.992188 389.066406 84.925781 C 389.066406 81.855469 391.550781 79.371094 394.621094 79.371094 C 397.6875 79.371094 400.175781 81.855469 400.175781 84.925781 Z M 400.175781 84.925781 "/>
<path style=" stroke:none;fill-rule:nonzero;fill:rgb(95.686275%,95.686275%,95.686275%);fill-opacity:1;" d="M 441.925781 80.714844 C 441.289062 80.714844 440.578125 80.714844 440.101562 80.753906 C 439.882812 80.765625 439.667969 80.8125 439.464844 80.886719 L 436.195312 82.058594 C 438.835938 82.125 441.589844 82.105469 444.289062 82.058594 L 459.460938 81.945312 C 461.003906 81.945312 462.636719 81.921875 463.925781 81.824219 C 464.789062 81.765625 465.425781 81.671875 466.21875 81.601562 C 469.089844 81.34375 473.28125 81.394531 477.019531 81.40625 C 480.761719 81.414062 485.273438 81.320312 486.589844 80.945312 L 478.566406 80.945312 C 477.699219 80.945312 476.789062 80.945312 476.023438 80.898438 C 475.128906 80.851562 474.585938 80.75 473.800781 80.679688 C 472.5 80.570312 470.710938 80.554688 469.039062 80.550781 C 459.898438 80.546875 450.863281 80.765625 441.925781 80.714844 Z M 441.925781 80.714844 "/>
<path style=" stroke:none;fill-rule:nonzero;fill:rgb(95.686275%,95.686275%,95.686275%);fill-opacity:1;" d="M 450.929688 87.460938 C 450.789062 87.460938 450.640625 87.460938 450.535156 87.460938 C 450.488281 87.464844 450.445312 87.472656 450.398438 87.488281 L 449.691406 87.746094 C 450.261719 87.746094 450.859375 87.746094 451.445312 87.746094 L 454.730469 87.71875 C 455.066406 87.71875 455.414062 87.71875 455.695312 87.695312 L 456.195312 87.644531 C 456.816406 87.589844 457.726562 87.601562 458.535156 87.605469 C 459.226562 87.628906 459.921875 87.59375 460.609375 87.503906 L 458.871094 87.503906 C 458.679688 87.503906 458.484375 87.503906 458.320312 87.503906 C 458.15625 87.503906 458.011719 87.46875 457.820312 87.460938 C 457.539062 87.460938 457.148438 87.433594 456.789062 87.429688 C 454.820312 87.421875 452.863281 87.460938 450.929688 87.460938 Z M 450.929688 87.460938 "/>
<path style=" stroke:none;fill-rule:nonzero;fill:rgb(95.686275%,95.686275%,95.686275%);fill-opacity:1;" d="M 427.660156 97.179688 C 427.519531 97.179688 427.371094 97.179688 427.265625 97.179688 C 427.21875 97.183594 427.171875 97.195312 427.128906 97.210938 L 426.421875 97.464844 C 426.988281 97.464844 427.589844 97.464844 428.175781 97.464844 L 431.460938 97.441406 C 431.796875 97.441406 432.144531 97.441406 432.425781 97.414062 L 432.925781 97.363281 C 433.546875 97.308594 434.453125 97.320312 435.265625 97.324219 C 435.957031 97.347656 436.652344 97.316406 437.339844 97.226562 L 435.601562 97.226562 C 435.410156 97.226562 435.214844 97.226562 435.050781 97.226562 C 434.886719 97.226562 434.738281 97.191406 434.550781 97.179688 C 434.269531 97.179688 433.878906 97.15625 433.519531 97.148438 C 431.554688 97.144531 429.59375 97.191406 427.660156 97.179688 Z M 427.660156 97.179688 "/>
<path style=" stroke:none;fill-rule:nonzero;fill:rgb(42.352941%,38.823529%,100%);fill-opacity:1;" d="M 414.589844 132.894531 L 412 132.894531 C 412 132.894531 411.183594 104.335938 414.609375 95.519531 L 415.265625 95.519531 C 415.265625 95.519531 412.960938 127.839844 414.589844 132.894531 Z M 414.589844 132.894531 "/>
<path style=" stroke:none;fill-rule:nonzero;fill:rgb(42.352941%,38.823529%,100%);fill-opacity:1;" d="M 412.796875 94.054688 C 412.796875 94.054688 410.675781 99.929688 411.65625 102.554688 C 411.65625 102.554688 413.125 97.171875 414.839844 96.355469 C 416.554688 95.539062 418.339844 102.554688 418.339844 102.554688 C 418.339844 102.554688 419.339844 98.148438 417.523438 94.554688 C 419.820312 95.914062 421.6875 97.894531 422.910156 100.265625 C 422.910156 100.265625 423.234375 97.816406 418.996094 92.765625 C 418.996094 92.765625 422.75 93.765625 425.195312 96.03125 C 425.195312 96.03125 426.011719 94.234375 420.949219 91.296875 C 420.949219 91.296875 421.605469 89.175781 425.519531 90.15625 C 425.519531 90.15625 425.519531 87.378906 419.320312 87.871094 C 419.320312 87.871094 419.320312 86.074219 423.398438 86.398438 C 423.398438 86.398438 423.398438 84.113281 418.664062 84.929688 C 418.664062 84.929688 419.664062 83.460938 420.296875 83.136719 C 419.476562 83.058594 418.664062 83.292969 418.011719 83.789062 C 418.011719 83.789062 418.175781 80.851562 415.726562 79.710938 L 415.398438 83.789062 C 415.398438 83.789062 412.65625 80.554688 413.28125 81.179688 C 413.675781 82.164062 413.84375 83.222656 413.78125 84.28125 C 413.78125 84.28125 411.003906 81.996094 407.578125 84.445312 C 407.578125 84.445312 411.824219 84.769531 412.476562 86.238281 C 412.476562 86.238281 408.886719 85.585938 408.070312 86.074219 C 408.070312 86.074219 410.84375 87.074219 410.679688 87.703125 C 410.679688 87.703125 405.785156 87.703125 405.128906 89.5 C 405.128906 89.5 410.191406 90.15625 410.515625 90.640625 C 410.515625 90.640625 404.640625 94.886719 404.316406 96.023438 C 404.316406 96.023438 410.355469 92.433594 411.316406 92.433594 C 412.273438 92.433594 406.910156 97.660156 407.234375 98.964844 C 407.25 98.960938 411.65625 93.726562 412.796875 94.054688 Z M 412.796875 94.054688 "/>
<path style=" stroke:none;fill-rule:nonzero;fill:rgb(42.352941%,38.823529%,100%);fill-opacity:1;" d="M 446.804688 131.828125 L 448.804688 131.828125 C 448.804688 131.828125 449.429688 110.011719 446.804688 103.273438 L 446.304688 103.273438 C 446.304688 103.273438 448.050781 127.960938 446.804688 131.828125 Z M 446.804688 131.828125 "/>
<path style=" stroke:none;fill-rule:nonzero;fill:rgb(42.352941%,38.823529%,100%);fill-opacity:1;" d="M 448.175781 102.148438 C 448.175781 102.148438 449.796875 106.648438 449.050781 108.648438 C 449.050781 108.648438 447.929688 104.535156 446.621094 103.910156 C 445.308594 103.285156 443.941406 108.648438 443.941406 108.648438 C 443.941406 108.648438 443.191406 105.285156 444.566406 102.539062 C 442.808594 103.578125 441.382812 105.09375 440.449219 106.90625 C 440.449219 106.90625 440.199219 105.035156 443.449219 101.171875 C 443.449219 101.171875 440.578125 101.921875 438.710938 103.671875 C 438.710938 103.671875 438.085938 102.300781 441.949219 100.054688 C 441.949219 100.054688 441.449219 98.433594 438.449219 99.179688 C 438.449219 99.179688 438.449219 97.058594 443.191406 97.433594 C 443.191406 97.433594 443.191406 96.066406 440.074219 96.316406 C 440.074219 96.316406 440.074219 94.570312 443.691406 95.195312 C 443.355469 94.671875 442.933594 94.207031 442.445312 93.824219 C 443.070312 93.765625 443.691406 93.945312 444.191406 94.324219 C 444.191406 94.324219 444.066406 92.078125 445.933594 91.210938 L 446.183594 94.324219 C 446.183594 94.324219 448.28125 91.855469 447.804688 92.324219 C 447.507812 93.078125 447.378906 93.886719 447.429688 94.695312 C 447.429688 94.695312 449.550781 92.949219 452.171875 94.820312 C 452.171875 94.820312 448.929688 95.070312 448.429688 96.191406 C 448.429688 96.191406 451.175781 95.691406 451.796875 96.066406 C 451.796875 96.066406 449.675781 96.816406 449.796875 97.308594 C 449.796875 97.308594 453.535156 97.308594 454.035156 98.679688 C 454.035156 98.679688 450.171875 99.179688 449.921875 99.554688 C 449.921875 99.554688 454.421875 102.796875 454.660156 103.671875 C 454.660156 103.671875 450.046875 100.925781 449.300781 100.925781 C 448.554688 100.925781 452.664062 104.925781 452.414062 105.925781 C 452.414062 105.890625 449.050781 101.898438 448.175781 102.148438 Z M 448.175781 102.148438 "/>
<path style=" stroke:none;fill-rule:nonzero;fill:rgb(42.352941%,38.823529%,100%);fill-opacity:1;" d="M 470.675781 127.566406 L 471.910156 127.566406 C 471.910156 127.566406 472.296875 114.066406 470.675781 109.878906 L 470.363281 109.878906 C 470.363281 109.878906 471.445312 125.171875 470.675781 127.566406 Z M 470.675781 127.566406 "/>
<path style=" stroke:none;fill-rule:nonzero;fill:rgb(42.352941%,38.823529%,100%);fill-opacity:1;" d="M 471.5 109.183594 C 471.5 109.183594 472.5 111.964844 472.039062 113.183594 C 472.039062 113.183594 471.34375 110.636719 470.539062 110.25 C 469.734375 109.863281 468.878906 113.183594 468.878906 113.183594 C 468.625 111.914062 468.757812 110.59375 469.265625 109.398438 C 468.175781 110.042969 467.292969 110.980469 466.714844 112.105469 C 466.714844 112.105469 466.558594 110.945312 468.570312 108.554688 C 467.492188 108.855469 466.492188 109.382812 465.636719 110.101562 C 465.636719 110.101562 465.25 109.25 467.636719 107.859375 C 467.636719 107.859375 467.324219 106.859375 465.476562 107.320312 C 465.476562 107.320312 465.476562 106.003906 468.410156 106.238281 C 468.410156 106.238281 468.410156 105.390625 466.480469 105.546875 C 466.480469 105.546875 466.480469 104.464844 468.71875 104.851562 C 468.511719 104.523438 468.253906 104.238281 467.949219 104 C 468.335938 103.964844 468.722656 104.074219 469.03125 104.308594 C 468.992188 103.511719 469.410156 102.765625 470.109375 102.378906 L 470.265625 104.308594 C 470.265625 104.308594 471.566406 102.78125 471.265625 103.074219 C 471.082031 103.539062 471.003906 104.039062 471.035156 104.539062 C 471.917969 103.894531 473.121094 103.925781 473.96875 104.613281 C 473.96875 104.613281 471.96875 104.769531 471.65625 105.464844 C 471.65625 105.464844 473.355469 105.15625 473.738281 105.390625 C 473.738281 105.390625 472.425781 105.855469 472.503906 106.160156 C 472.503906 106.160156 474.820312 106.160156 475.128906 107.011719 C 475.128906 107.011719 472.734375 107.320312 472.578125 107.550781 C 472.578125 107.550781 475.359375 109.550781 475.515625 110.101562 C 475.515625 110.101562 472.660156 108.398438 472.195312 108.398438 C 471.730469 108.398438 474.28125 110.871094 474.125 111.488281 C 474.148438 111.5 472.066406 109.03125 471.5 109.183594 Z M 471.5 109.183594 "/>
<path style=" stroke:none;fill-rule:nonzero;fill:url(#linear1);" d="M 425.5 112.285156 L 425.238281 110.894531 C 425.238281 110.6875 425.15625 110.492188 425.003906 110.351562 L 423.800781 109.761719 C 423.710938 109.652344 423.636719 109.53125 423.585938 109.398438 L 423.585938 109.371094 C 423.652344 109.285156 423.699219 109.1875 423.726562 109.085938 C 423.726562 109.058594 423.726562 109.03125 423.726562 109.003906 C 423.960938 109.039062 424.183594 108.878906 424.226562 108.644531 L 424.226562 108.613281 C 424.175781 108.804688 424.011719 108.9375 423.820312 108.949219 C 424.15625 108.726562 424.359375 108.351562 424.363281 107.949219 C 424.363281 107.949219 424.363281 107.914062 424.363281 107.898438 C 424.472656 107.832031 424.546875 107.726562 424.570312 107.601562 L 424.570312 107.570312 C 424.539062 107.6875 424.460938 107.789062 424.355469 107.851562 C 424.347656 107.734375 424.320312 107.621094 424.28125 107.515625 L 424.308594 107.515625 C 424.554688 107.515625 424.753906 107.316406 424.753906 107.070312 C 424.753906 107.070312 424.753906 107.070312 424.753906 107.039062 C 424.738281 107.273438 424.542969 107.457031 424.308594 107.453125 L 424.253906 107.453125 C 424.523438 107.371094 424.714844 107.136719 424.753906 106.859375 C 424.753906 106.859375 424.753906 106.859375 424.753906 106.828125 C 424.75 106.917969 424.71875 107 424.664062 107.070312 C 424.699219 106.824219 424.53125 106.597656 424.289062 106.5625 C 424.042969 106.527344 423.816406 106.695312 423.78125 106.941406 L 423.699219 106.894531 C 423.75 106.710938 423.914062 106.582031 424.105469 106.570312 L 424.074219 106.570312 C 423.882812 106.566406 423.707031 106.6875 423.644531 106.871094 C 423.089844 106.613281 422.429688 106.800781 422.09375 107.316406 C 422 107.386719 421.878906 107.484375 421.886719 107.570312 C 421.847656 107.609375 421.8125 107.652344 421.78125 107.699219 C 421.648438 107.988281 421.597656 108.308594 421.640625 108.625 C 421.675781 108.941406 421.554688 109.257812 421.320312 109.476562 C 421.425781 109.519531 421.542969 109.519531 421.648438 109.476562 C 421.753906 109.429688 421.851562 109.375 421.941406 109.304688 C 422.023438 109.257812 422.09375 109.1875 422.144531 109.109375 C 422.203125 109.148438 422.265625 109.179688 422.328125 109.203125 C 422.355469 109.414062 422.359375 109.65625 422.269531 109.730469 L 422.269531 109.691406 C 422.046875 109.859375 421.765625 109.941406 421.484375 109.914062 C 421.148438 109.933594 420.84375 110.121094 420.675781 110.414062 L 420.300781 112.019531 L 420.300781 112.070312 C 420.308594 112.113281 420.34375 112.148438 420.390625 112.160156 L 420.503906 112.191406 C 420.542969 112.445312 420.542969 112.707031 420.5 112.960938 C 420.421875 113.347656 420.375 113.742188 420.363281 114.140625 C 420.394531 114.339844 420.445312 115.371094 420.464844 115.859375 C 420.421875 116.023438 420.390625 116.191406 420.363281 116.359375 L 419.804688 119.714844 C 419.804688 119.714844 419.390625 122.398438 419.410156 123.214844 L 419.335938 123.683594 C 419.335938 123.683594 418.199219 125.109375 418.535156 125.308594 C 418.871094 125.511719 419.378906 125.601562 419.871094 124.839844 C 419.933594 124.660156 420.042969 124.5 420.179688 124.371094 C 420.292969 124.273438 420.347656 124.128906 420.335938 123.980469 L 420.300781 123.648438 L 420.394531 123.648438 C 420.703125 122.636719 420.871094 121.589844 420.894531 120.53125 C 420.894531 120.53125 421.929688 116.839844 422.71875 116.261719 L 422.796875 116.226562 L 422.964844 119.796875 L 422.796875 123.734375 L 422.761719 123.96875 C 422.761719 123.96875 421.625 125.394531 421.960938 125.59375 C 422.296875 125.796875 422.804688 125.886719 423.296875 125.125 C 423.359375 124.945312 423.464844 124.785156 423.605469 124.65625 C 423.714844 124.558594 423.773438 124.414062 423.761719 124.265625 L 423.710938 123.765625 C 423.90625 123.105469 424.410156 121.191406 424.210938 120.085938 L 424.554688 117.730469 C 424.90625 117.339844 424.855469 116.34375 424.855469 116.34375 C 425.128906 115.773438 425.191406 113.523438 425.191406 113.523438 L 425.261719 112.414062 L 425.46875 112.414062 L 425.496094 112.386719 L 425.496094 112.359375 Z M 424.53125 114.539062 C 424.5 114.464844 424.464844 114.386719 424.425781 114.308594 L 424.394531 114.308594 L 424.394531 114.226562 C 424.410156 114.1875 424.425781 114.148438 424.433594 114.109375 C 424.480469 114.039062 424.503906 113.953125 424.5 113.871094 C 424.550781 114.089844 424.566406 114.316406 424.550781 114.539062 Z M 424.425781 113.589844 L 424.355469 112.84375 L 424.355469 112.785156 L 424.449219 113.730469 Z M 421.128906 113.691406 C 421.082031 113.746094 421.0625 113.816406 421.070312 113.890625 C 421.070312 113.964844 421.078125 114.042969 421.101562 114.113281 L 420.988281 114.578125 L 420.988281 113.691406 C 421.058594 113.597656 421.121094 113.496094 421.175781 113.390625 C 421.199219 113.488281 421.191406 113.59375 421.15625 113.691406 Z M 421.128906 113.691406 "/>
<path style=" stroke:none;fill-rule:nonzero;fill:rgb(44.705882%,20.784314%,10.980392%);fill-opacity:1;" d="M 421.855469 107.960938 C 421.726562 108.238281 421.679688 108.546875 421.71875 108.851562 C 421.757812 109.15625 421.640625 109.464844 421.410156 109.671875 C 421.511719 109.710938 421.625 109.710938 421.726562 109.671875 C 421.824219 109.628906 421.917969 109.574219 422.003906 109.503906 C 422.082031 109.457031 422.148438 109.390625 422.199219 109.316406 C 422.25 109.195312 422.261719 109.0625 422.246094 108.933594 C 422.246094 108.707031 422.265625 108.484375 422.304688 108.261719 C 422.304688 108.121094 422.460938 107.761719 422.304688 107.671875 C 422.148438 107.578125 421.925781 107.851562 421.855469 107.960938 Z M 421.855469 107.960938 "/>
<path style=" stroke:none;fill-rule:nonzero;fill:rgb(20%,20%,20%);fill-opacity:1;" d="M 419.558594 122.714844 L 419.453125 123.398438 C 419.453125 123.398438 418.359375 124.773438 418.683594 124.964844 C 419.011719 125.15625 419.5 125.246094 419.96875 124.515625 C 420.035156 124.34375 420.136719 124.191406 420.269531 124.066406 C 420.378906 123.972656 420.433594 123.832031 420.421875 123.691406 L 420.316406 122.628906 Z M 419.558594 122.714844 "/>
<path style=" stroke:none;fill-rule:nonzero;fill:rgb(20%,20%,20%);fill-opacity:1;" d="M 422.855469 122.988281 L 422.75 123.675781 C 422.75 123.675781 421.65625 125.050781 421.980469 125.238281 C 422.304688 125.429688 422.796875 125.519531 423.265625 124.789062 C 423.328125 124.617188 423.429688 124.464844 423.566406 124.339844 C 423.671875 124.246094 423.726562 124.105469 423.714844 123.964844 L 423.609375 122.90625 Z M 422.855469 122.988281 "/>
<path style=" stroke:none;fill-rule:nonzero;fill:rgb(30.196078%,54.117647%,94.117647%);fill-opacity:1;" d="M 421.148438 114.683594 C 421.148438 114.683594 420.648438 115.054688 420.445312 116.351562 L 419.90625 119.578125 C 419.710938 120.738281 419.585938 121.90625 419.535156 123.078125 L 420.445312 123.390625 C 420.746094 122.417969 420.914062 121.40625 420.945312 120.390625 C 420.945312 120.390625 422.039062 116.496094 422.804688 116.21875 L 422.964844 119.660156 L 422.796875 123.539062 L 423.574219 123.695312 C 423.574219 123.695312 424.363281 121.230469 424.113281 119.925781 L 424.519531 117.148438 C 424.78125 116.234375 424.71875 115.257812 424.339844 114.386719 Z M 421.148438 114.683594 "/>
<use xlink:href="#surface65" mask="url(#mask20)"/>
<path style=" stroke:none;fill-rule:nonzero;fill:rgb(96.078431%,37.254902%,26.666667%);fill-opacity:1;" d="M 420.449219 112.15625 C 420.449219 112.210938 420.488281 112.257812 420.539062 112.269531 C 420.789062 112.328125 421.027344 112.441406 421.230469 112.601562 C 421.613281 112.898438 420.824219 112 420.824219 112 L 420.558594 112.058594 Z M 420.449219 112.15625 "/>
<use xlink:href="#surface68" mask="url(#mask21)"/>
<path style=" stroke:none;fill-rule:nonzero;fill:rgb(96.078431%,37.254902%,26.666667%);fill-opacity:1;" d="M 424.210938 112.960938 C 424.53125 112.730469 424.902344 112.582031 425.296875 112.53125 C 425.351562 112.53125 425.394531 112.484375 425.394531 112.429688 C 425.167969 112.328125 424.910156 112.324219 424.683594 112.425781 C 424.457031 112.527344 424.285156 112.722656 424.210938 112.960938 Z M 424.210938 112.960938 "/>
<use xlink:href="#surface71" mask="url(#mask22)"/>
<path style=" stroke:none;fill-rule:nonzero;fill:rgb(44.705882%,20.784314%,10.980392%);fill-opacity:1;" d="M 424.339844 108.230469 C 424.339844 108.882812 423.808594 109.414062 423.15625 109.414062 C 422.5 109.414062 421.96875 108.882812 421.96875 108.230469 C 421.96875 107.574219 422.5 107.046875 423.15625 107.046875 C 423.808594 107.046875 424.339844 107.574219 424.339844 108.230469 Z M 424.339844 108.230469 "/>
<path style=" stroke:none;fill-rule:nonzero;fill:rgb(99.215686%,71.764706%,59.215686%);fill-opacity:1;" d="M 422.335938 109.058594 C 422.335938 109.058594 422.503906 109.753906 422.335938 109.898438 C 422.164062 110.046875 421.835938 110.304688 422.085938 110.511719 C 422.335938 110.714844 423.246094 111.058594 423.546875 110.894531 C 423.84375 110.730469 424.191406 110.773438 424.109375 110.429688 C 424.03125 110.085938 423.371094 110.15625 423.355469 108.429688 Z M 422.335938 109.058594 "/>
<use xlink:href="#surface74" mask="url(#mask23)"/>
<path style=" stroke:none;fill-rule:nonzero;fill:rgb(99.215686%,71.764706%,59.215686%);fill-opacity:1;" d="M 420.644531 111.960938 C 420.671875 112.335938 420.648438 112.714844 420.574219 113.085938 C 420.5 113.457031 420.457031 113.839844 420.445312 114.21875 C 420.480469 114.46875 420.554688 116.125 420.554688 116.125 C 420.554688 116.125 420.425781 117.574219 421.128906 117.441406 C 421.835938 117.304688 421.019531 115.789062 421.019531 115.789062 L 421.054688 113.789062 C 421.25 113.53125 421.375 113.226562 421.414062 112.90625 C 421.449219 112.460938 420.644531 111.960938 420.644531 111.960938 Z M 420.644531 111.960938 "/>
<use xlink:href="#surface77" mask="url(#mask24)"/>
<path style=" stroke:none;fill-rule:nonzero;fill:rgb(99.215686%,71.764706%,59.215686%);fill-opacity:1;" d="M 425.171875 112.054688 L 425.074219 113.601562 C 425.074219 113.601562 425.015625 115.765625 424.75 116.316406 C 424.75 116.316406 424.820312 117.816406 424.113281 117.816406 C 423.410156 117.816406 424.234375 116.148438 424.234375 116.148438 C 424.234375 116.148438 424.613281 114.460938 424.421875 113.921875 L 424.234375 112.066406 Z M 425.171875 112.054688 "/>
<use xlink:href="#surface80" mask="url(#mask25)"/>
<use xlink:href="#surface83" mask="url(#mask26)"/>
<path style=" stroke:none;fill-rule:nonzero;fill:rgb(96.078431%,37.254902%,26.666667%);fill-opacity:1;" d="M 422.933594 110.554688 C 423.089844 110.59375 423.511719 110.644531 423.761719 110.015625 L 424.925781 110.585938 C 425.070312 110.722656 425.148438 110.910156 425.148438 111.109375 L 425.398438 112.449219 C 425.1875 112.367188 424.945312 112.371094 424.738281 112.464844 C 424.527344 112.558594 424.363281 112.734375 424.285156 112.949219 L 424.355469 113.703125 C 424.410156 113.890625 424.398438 114.09375 424.320312 114.269531 C 424.304688 114.300781 424.304688 114.339844 424.320312 114.371094 C 424.363281 114.480469 424.347656 114.605469 424.28125 114.707031 C 424.214844 114.804688 424.105469 114.867188 423.984375 114.871094 C 423.671875 114.871094 423.359375 114.894531 423.050781 114.941406 C 422.800781 115.011719 422.050781 114.796875 421.796875 114.941406 C 421.539062 115.085938 421.015625 114.828125 421.015625 114.828125 L 421.160156 114.21875 C 421.160156 114.21875 421.066406 113.921875 421.160156 113.816406 C 421.25 113.382812 421.230469 112.933594 421.101562 112.511719 C 421.101562 112.511719 420.671875 112.105469 420.421875 112.175781 L 420.78125 110.628906 C 420.933594 110.335938 421.230469 110.148438 421.558594 110.128906 C 421.828125 110.15625 422.097656 110.078125 422.316406 109.914062 C 422.316406 109.914062 422.035156 110.414062 422.773438 110.539062 Z M 422.933594 110.554688 "/>
<use xlink:href="#surface86" mask="url(#mask27)"/>
<path style=" stroke:none;fill-rule:nonzero;fill:rgb(99.215686%,71.764706%,59.215686%);fill-opacity:1;" d="M 423.738281 108.480469 C 423.738281 109.019531 423.300781 109.460938 422.761719 109.460938 C 422.21875 109.460938 421.78125 109.019531 421.78125 108.480469 C 421.78125 107.9375 422.21875 107.5 422.761719 107.5 C 423.300781 107.5 423.738281 107.9375 423.738281 108.480469 Z M 423.738281 108.480469 "/>
<path style=" stroke:none;fill-rule:nonzero;fill:rgb(44.705882%,20.784314%,10.980392%);fill-opacity:1;" d="M 424.640625 107.296875 C 424.640625 107.53125 424.449219 107.726562 424.210938 107.726562 C 423.972656 107.726562 423.78125 107.53125 423.78125 107.296875 C 423.78125 107.058594 423.972656 106.863281 424.210938 106.863281 C 424.449219 106.863281 424.640625 107.058594 424.640625 107.296875 Z M 424.640625 107.296875 "/>
<path style=" stroke:none;fill-rule:nonzero;fill:rgb(44.705882%,20.784314%,10.980392%);fill-opacity:1;" d="M 424.289062 107.75 C 424.0625 107.75 423.875 107.574219 423.859375 107.351562 C 423.859375 107.351562 423.859375 107.351562 423.859375 107.378906 C 423.859375 107.617188 424.050781 107.808594 424.289062 107.808594 C 424.527344 107.808594 424.71875 107.617188 424.71875 107.378906 C 424.71875 107.378906 424.71875 107.378906 424.71875 107.351562 C 424.703125 107.574219 424.515625 107.75 424.289062 107.75 Z M 424.289062 107.75 "/>
<path style=" stroke:none;fill-rule:nonzero;fill:rgb(44.705882%,20.784314%,10.980392%);fill-opacity:1;" d="M 424.046875 108.179688 C 423.824219 108.140625 423.671875 107.933594 423.695312 107.710938 L 423.695312 107.738281 C 423.652344 107.976562 423.808594 108.199219 424.042969 108.242188 C 424.277344 108.285156 424.503906 108.128906 424.546875 107.894531 L 424.546875 107.863281 C 424.488281 108.085938 424.269531 108.222656 424.046875 108.179688 Z M 424.046875 108.179688 "/>
<path style=" stroke:none;fill-rule:nonzero;fill:rgb(44.705882%,20.784314%,10.980392%);fill-opacity:1;" d="M 423.710938 109.210938 C 423.488281 109.167969 423.335938 108.964844 423.359375 108.738281 L 423.359375 108.769531 C 423.316406 109.003906 423.472656 109.230469 423.707031 109.273438 C 423.941406 109.316406 424.167969 109.160156 424.210938 108.925781 L 424.210938 108.894531 C 424.152344 109.117188 423.933594 109.253906 423.710938 109.210938 Z M 423.710938 109.210938 "/>
<path style=" stroke:none;fill-rule:nonzero;fill:rgb(44.705882%,20.784314%,10.980392%);fill-opacity:1;" d="M 424.289062 107.523438 C 424.0625 107.527344 423.875 107.351562 423.859375 107.125 C 423.859375 107.125 423.859375 107.125 423.859375 107.15625 C 423.859375 107.390625 424.050781 107.585938 424.289062 107.585938 C 424.527344 107.585938 424.71875 107.390625 424.71875 107.15625 C 424.71875 107.15625 424.71875 107.15625 424.71875 107.125 C 424.703125 107.351562 424.515625 107.527344 424.289062 107.523438 Z M 424.289062 107.523438 "/>
<path style=" stroke:none;fill-rule:nonzero;fill:rgb(44.705882%,20.784314%,10.980392%);fill-opacity:1;" d="M 423.691406 107.289062 C 423.691406 107.0625 423.871094 106.878906 424.09375 106.863281 L 424.066406 106.863281 C 423.828125 106.863281 423.636719 107.058594 423.636719 107.296875 C 423.636719 107.53125 423.828125 107.726562 424.066406 107.726562 L 424.09375 107.726562 C 423.867188 107.710938 423.6875 107.519531 423.691406 107.289062 Z M 423.691406 107.289062 "/>
<use xlink:href="#surface89" mask="url(#mask28)"/>
<use xlink:href="#surface92" mask="url(#mask29)"/>
<use xlink:href="#surface95" mask="url(#mask30)"/>
<use xlink:href="#surface98" mask="url(#mask31)"/>
<path style=" stroke:none;fill-rule:nonzero;fill:rgb(99.215686%,71.764706%,59.215686%);fill-opacity:1;" d="M 420.660156 118.105469 L 420.996094 118.105469 C 421.109375 118.105469 421.203125 118.199219 421.203125 118.316406 L 421.203125 118.359375 C 421.203125 118.476562 421.109375 118.570312 420.996094 118.570312 L 420.660156 118.570312 C 420.542969 118.570312 420.449219 118.476562 420.449219 118.359375 L 420.449219 118.316406 C 420.449219 118.199219 420.542969 118.105469 420.660156 118.105469 Z M 420.660156 118.105469 "/>
<path style=" stroke:none;fill-rule:nonzero;fill:rgb(94.117647%,89.411765%,89.411765%);fill-opacity:1;" d="M 420.449219 118.226562 L 420.855469 118.226562 L 421.203125 118.28125 L 421.078125 118.28125 Z M 420.449219 118.226562 "/>
<path style=" stroke:none;fill-rule:nonzero;fill:rgb(94.117647%,89.411765%,89.411765%);fill-opacity:1;" d="M 423.164062 116.285156 L 423.570312 116.285156 L 423.921875 116.320312 L 423.796875 116.320312 Z M 423.164062 116.285156 "/>
<path style=" stroke:none;fill-rule:nonzero;fill:rgb(94.117647%,89.411765%,89.411765%);fill-opacity:1;" d="M 423.164062 116.371094 L 423.570312 116.371094 L 423.921875 116.40625 L 423.796875 116.40625 Z M 423.164062 116.371094 "/>
<path style=" stroke:none;fill-rule:nonzero;fill:rgb(94.117647%,89.411765%,89.411765%);fill-opacity:1;" d="M 423.164062 116.460938 L 423.570312 116.460938 L 423.921875 116.496094 L 423.796875 116.496094 Z M 423.164062 116.460938 "/>
<path style=" stroke:none;fill-rule:nonzero;fill:rgb(94.117647%,89.411765%,89.411765%);fill-opacity:1;" d="M 423.164062 116.535156 L 423.570312 116.535156 L 423.921875 116.570312 L 423.796875 116.570312 Z M 423.164062 116.535156 "/>
<path style=" stroke:none;fill-rule:nonzero;fill:rgb(94.117647%,89.411765%,89.411765%);fill-opacity:1;" d="M 420.449219 118.554688 L 420.855469 118.554688 L 421.203125 118.59375 L 421.078125 118.59375 Z M 420.449219 118.554688 "/>
<path style=" stroke:none;fill-rule:nonzero;fill:rgb(94.117647%,89.411765%,89.411765%);fill-opacity:1;" d="M 420.449219 118.515625 L 420.855469 118.515625 L 421.203125 118.554688 L 421.078125 118.554688 Z M 420.449219 118.515625 "/>
<path style=" stroke:none;fill-rule:nonzero;fill:rgb(94.117647%,89.411765%,89.411765%);fill-opacity:1;" d="M 420.449219 118.460938 L 420.855469 118.460938 L 421.203125 118.5 L 421.078125 118.5 Z M 420.449219 118.460938 "/>
<path style=" stroke:none;fill-rule:nonzero;fill:rgb(94.117647%,89.411765%,89.411765%);fill-opacity:1;" d="M 420.449219 118.429688 L 420.855469 118.429688 L 421.203125 118.46875 L 421.078125 118.46875 Z M 420.449219 118.429688 "/>
<path style=" stroke:none;fill-rule:nonzero;fill:rgb(94.117647%,89.411765%,89.411765%);fill-opacity:1;" d="M 420.449219 118.171875 L 420.855469 118.171875 L 421.203125 118.226562 L 421.078125 118.226562 Z M 420.449219 118.171875 "/>
<path style=" stroke:none;fill-rule:nonzero;fill:rgb(94.117647%,89.411765%,89.411765%);fill-opacity:1;" d="M 420.449219 118.101562 L 420.855469 118.101562 L 421.203125 118.15625 L 421.078125 118.15625 Z M 420.449219 118.101562 "/>
<use xlink:href="#surface101" mask="url(#mask32)"/>
<path style=" stroke:none;fill-rule:nonzero;fill:rgb(44.705882%,20.784314%,10.980392%);fill-opacity:1;" d="M 422.949219 107.839844 C 422.910156 108.207031 422.957031 108.574219 423.085938 108.921875 C 423.214844 109.257812 423.195312 109.636719 423.03125 109.960938 C 423.136719 109.984375 423.25 109.957031 423.335938 109.886719 C 423.421875 109.808594 423.496094 109.722656 423.554688 109.625 C 423.621094 109.546875 423.664062 109.453125 423.691406 109.355469 C 423.699219 109.199219 423.675781 109.042969 423.621094 108.898438 C 423.554688 108.632812 423.503906 108.363281 423.476562 108.089844 C 423.476562 107.925781 423.476562 107.445312 423.289062 107.398438 C 423.105469 107.355469 423 107.699219 422.949219 107.839844 Z M 422.949219 107.839844 "/>
<use xlink:href="#surface104" mask="url(#mask33)"/>
<path style=" stroke:none;fill-rule:nonzero;fill:rgb(44.705882%,20.784314%,10.980392%);fill-opacity:1;" d="M 422.554688 108.085938 C 422.636719 108.171875 422.65625 108.300781 422.726562 108.398438 C 422.851562 108.539062 423.039062 108.609375 423.226562 108.59375 C 423.273438 108.59375 423.320312 108.601562 423.363281 108.625 C 423.441406 108.675781 423.445312 108.785156 423.496094 108.859375 C 423.546875 108.917969 423.621094 108.953125 423.699219 108.953125 C 423.777344 108.953125 423.851562 108.917969 423.90625 108.859375 C 424.003906 108.738281 424.058594 108.585938 424.058594 108.429688 C 424.074219 108.265625 424.074219 108.097656 424.058594 107.929688 C 424.054688 107.730469 423.976562 107.542969 423.839844 107.398438 C 423.726562 107.316406 423.59375 107.257812 423.453125 107.234375 C 423.265625 107.167969 423.058594 107.152344 422.859375 107.191406 C 422.765625 107.222656 422.671875 107.265625 422.589844 107.324219 L 422.238281 107.558594 C 422.109375 107.648438 421.871094 107.828125 422.105469 107.929688 C 422.238281 107.960938 422.425781 107.960938 422.554688 108.085938 Z M 422.554688 108.085938 "/>
<path style=" stroke:none;fill-rule:nonzero;fill:rgb(94.117647%,89.411765%,89.411765%);fill-opacity:1;" d="M 423.191406 116.285156 L 423.59375 116.285156 L 423.945312 116.320312 L 423.820312 116.320312 Z M 423.191406 116.285156 "/>
<path style=" stroke:none;fill-rule:nonzero;fill:rgb(94.117647%,89.411765%,89.411765%);fill-opacity:1;" d="M 423.191406 116.371094 L 423.59375 116.371094 L 423.945312 116.40625 L 423.820312 116.40625 Z M 423.191406 116.371094 "/>
<path style=" stroke:none;fill-rule:nonzero;fill:rgb(94.117647%,89.411765%,89.411765%);fill-opacity:1;" d="M 423.191406 116.460938 L 423.59375 116.460938 L 423.945312 116.496094 L 423.820312 116.496094 Z M 423.191406 116.460938 "/>
<path style=" stroke:none;fill-rule:nonzero;fill:rgb(94.117647%,89.411765%,89.411765%);fill-opacity:1;" d="M 423.191406 116.535156 L 423.59375 116.535156 L 423.945312 116.570312 L 423.820312 116.570312 Z M 423.191406 116.535156 "/>
<path style=" stroke:none;fill-rule:nonzero;fill:rgb(94.117647%,89.411765%,89.411765%);fill-opacity:1;" d="M 423 121.148438 L 423.40625 121.148438 L 423.753906 121.183594 L 423.628906 121.183594 Z M 423 121.148438 "/>
<path style=" stroke:none;fill-rule:nonzero;fill:rgb(94.117647%,89.411765%,89.411765%);fill-opacity:1;" d="M 423 121.230469 L 423.40625 121.230469 L 423.753906 121.265625 L 423.628906 121.265625 Z M 423 121.230469 "/>
<path style=" stroke:none;fill-rule:nonzero;fill:rgb(94.117647%,89.411765%,89.411765%);fill-opacity:1;" d="M 423 121.316406 L 423.40625 121.316406 L 423.753906 121.351562 L 423.628906 121.351562 Z M 423 121.316406 "/>
<path style=" stroke:none;fill-rule:nonzero;fill:rgb(94.117647%,89.411765%,89.411765%);fill-opacity:1;" d="M 423 121.398438 L 423.40625 121.398438 L 423.753906 121.433594 L 423.628906 121.433594 Z M 423 121.398438 "/>
<use xlink:href="#surface107" mask="url(#mask34)"/>
<path style=" stroke:none;fill-rule:nonzero;fill:url(#linear2);" d="M 129.949219 313.75 C 132.449219 315.210938 135.085938 315.804688 137.808594 314.898438 C 138.519531 314.660156 139.203125 314.359375 139.855469 313.996094 C 165.355469 314.535156 188.96875 314.285156 189.886719 311.539062 C 191.386719 306.988281 181.886719 284.578125 177.089844 273.75 C 178.5 272.792969 179.691406 271.546875 180.589844 270.09375 C 187.25 277.710938 199.640625 287.535156 207.003906 288.023438 C 207.003906 288.023438 217.753906 313.558594 229.851562 309.523438 C 241.945312 305.488281 243.289062 283.988281 237.238281 281.304688 L 196.925781 255.769531 L 196.925781 213.398438 C 198.148438 210.972656 198.730469 208.269531 198.609375 205.550781 C 198.609375 205.050781 198.636719 204.550781 198.609375 204.050781 L 197.265625 191.953125 C 197.265625 191.953125 197.195312 191.554688 197.011719 190.828125 C 194.011719 179.175781 187.324219 171.328125 177.898438 170.164062 C 178.359375 169.328125 178.636719 168.402344 178.71875 167.449219 C 178.914062 165.191406 177.976562 162.886719 178.503906 160.679688 C 179.125 158.109375 181.503906 156.449219 183.460938 154.679688 C 187.636719 150.859375 190.265625 145.679688 192.804688 140.625 C 195.226562 135.808594 197.679688 130.871094 198.304688 125.519531 C 198.929688 120.171875 197.304688 114.230469 192.929688 111.078125 C 189.53125 108.625 184.746094 107.980469 182.300781 104.578125 C 181.203125 103.050781 180.75 101.164062 179.996094 99.445312 C 177.820312 94.488281 173.128906 90.976562 168.039062 89.140625 C 150.179688 82.710938 128.269531 90.089844 116.875 104.921875 C 113.15625 109.761719 110.46875 115.300781 107.816406 120.796875 L 98.214844 140.640625 C 96.558594 144.054688 94.960938 148.320312 97.171875 151.40625 C 98.25 152.90625 100.101562 153.835938 100.851562 155.53125 C 101.851562 157.78125 100.601562 160.726562 102.070312 162.703125 C 102.878906 163.800781 104.285156 164.234375 105.488281 164.875 C 107.109375 165.796875 108.515625 167.042969 109.625 168.539062 L 88.546875 184.875 C 85.464844 187.261719 83.503906 190.804688 83.113281 194.679688 L 81.03125 215.460938 C 80.367188 217.820312 80.050781 220.265625 80.089844 222.714844 C 80.015625 224.90625 80.269531 227.320312 81.363281 229.214844 L 81.824219 229.105469 C 82.324219 243.679688 83.195312 264.648438 84.054688 268.523438 C 84.554688 270.824219 87.710938 274.878906 91.960938 279.058594 L 90.460938 283.308594 L 90.960938 283.308594 L 90.460938 284.644531 L 91.460938 284.644531 C 87.21875 299.964844 75.683594 311.511719 75.683594 311.511719 C 75.683594 311.511719 102.359375 312.960938 129.949219 313.75 Z M 104.878906 242.960938 L 104.878906 226.625 C 107.339844 227.003906 109.15625 227.855469 109.734375 229.40625 Z M 112 171.871094 L 112.078125 171.988281 L 112.050781 171.988281 Z M 112 171.871094 "/>
<path style=" stroke:none;fill-rule:nonzero;fill:rgb(99.215686%,71.764706%,59.215686%);fill-opacity:1;" d="M 172.65625 208.960938 C 172.65625 208.960938 173.929688 254.269531 175.210938 260.015625 C 176.488281 265.761719 195 283.011719 204.566406 283.648438 C 204.566406 283.648438 214.773438 307.898438 226.265625 304.070312 C 237.753906 300.238281 239.03125 279.820312 233.265625 277.265625 L 195 253.015625 L 195 204.515625 Z M 172.65625 208.960938 "/>
<path style=" stroke:none;fill-rule:nonzero;fill:rgb(33.72549%,31.764706%,44.313725%);fill-opacity:1;" d="M 173.613281 264.503906 C 173.613281 264.503906 190.210938 300.246094 188.296875 306.003906 C 186.378906 311.765625 79.796875 306.003906 79.796875 306.003906 C 79.796875 306.003906 99.578125 286.21875 95.75 264.503906 Z M 173.613281 264.503906 "/>
<path style=" stroke:none;fill-rule:nonzero;fill:rgb(99.215686%,71.764706%,59.215686%);fill-opacity:1;" d="M 160.851562 158.566406 C 160.851562 158.566406 158.296875 183.453125 162.765625 189.199219 C 167.234375 194.945312 144.894531 198.128906 143 198.128906 C 141.105469 198.128906 120.664062 191.128906 116.835938 189.195312 C 113.003906 187.261719 109.835938 173.238281 109.835938 173.238281 C 109.835938 173.238281 128.980469 177.070312 134.726562 154.738281 Z M 160.851562 158.566406 "/>
<path style=" stroke:none;fill-rule:nonzero;fill:rgb(56.078431%,35.294118%,41.568627%);fill-opacity:1;" d="M 167.539062 94.71875 C 172.375 96.460938 176.828125 99.800781 178.894531 104.503906 C 179.613281 106.140625 180.046875 107.929688 181.085938 109.386719 C 183.40625 112.625 187.949219 113.234375 191.179688 115.570312 C 195.324219 118.570312 196.859375 124.203125 196.285156 129.285156 C 195.710938 134.363281 193.375 139.058594 191.078125 143.628906 C 188.664062 148.433594 186.171875 153.351562 182.203125 156.980469 C 180.355469 158.675781 178.085938 160.25 177.496094 162.691406 C 176.996094 164.785156 177.886719 166.96875 177.695312 169.121094 C 177.234375 174.425781 170.894531 176.894531 165.601562 177.484375 C 163.300781 177.738281 160.664062 177.753906 159.046875 176.101562 C 158.214844 175.25 157.800781 174.101562 157.269531 173.03125 C 154.8125 168.0625 149.773438 164.894531 144.230469 164.835938 C 138.6875 164.78125 133.582031 167.84375 131.023438 172.761719 C 129.785156 175.148438 129.058594 178.046875 126.800781 179.503906 C 123.339844 181.738281 118.714844 179.113281 116.171875 175.886719 C 113.625 172.65625 111.769531 168.59375 108.136719 166.660156 C 106.988281 166.050781 105.636719 165.660156 104.890625 164.601562 C 103.496094 162.71875 104.679688 159.925781 103.734375 157.785156 C 103.019531 156.175781 101.265625 155.285156 100.234375 153.863281 C 98.136719 150.933594 99.65625 146.863281 101.234375 143.640625 L 110.355469 124.789062 C 112.855469 119.570312 115.429688 114.289062 118.960938 109.710938 C 129.765625 95.621094 150.574219 88.609375 167.539062 94.71875 Z M 167.539062 94.71875 "/>
<use xlink:href="#surface110" mask="url(#mask35)"/>
<path style=" stroke:none;fill-rule:nonzero;fill:rgb(70.588235%,31.764706%,50.588235%);fill-opacity:1;" d="M 144.261719 192.390625 C 144.261719 192.390625 119.371094 192.390625 112.988281 169.414062 L 92.039062 185.648438 C 89.121094 187.917969 87.257812 191.28125 86.886719 194.960938 L 84.886719 214.726562 C 84.886719 214.726562 82.648438 222.066406 85.203125 226.53125 C 85.203125 226.53125 111.703125 219.828125 112.328125 227.484375 L 93.828125 279.179688 C 93.828125 279.179688 122.550781 279.820312 130.203125 274.714844 C 130.203125 274.714844 161.476562 281.09375 169.136719 274.074219 C 176.796875 267.054688 184.449219 267.695312 178.070312 251.738281 C 178.070312 251.738281 190.835938 238.976562 185.070312 221.105469 C 179.304688 203.234375 184.75 221.425781 184.75 221.425781 C 184.75 221.425781 197.195312 215.359375 196.554688 203.875 L 195.28125 192.375 C 195.28125 192.375 195.210938 191.996094 195.035156 191.308594 C 191.144531 176.171875 180.691406 167.808594 165.996094 173.140625 C 161.699219 174.695312 157.308594 172.914062 157.308594 172.914062 C 157.308594 172.914062 162.125 193.664062 144.261719 192.390625 Z M 144.261719 192.390625 "/>
<path style=" stroke:none;fill-rule:nonzero;fill:rgb(99.215686%,71.764706%,59.215686%);fill-opacity:1;" d="M 85.226562 214.085938 C 85.226562 214.085938 86.5 259.394531 87.78125 265.140625 C 89.058594 270.886719 107.566406 288.113281 117.136719 288.753906 C 117.136719 288.753906 127.34375 313.003906 138.835938 309.175781 C 150.324219 305.34375 151.601562 284.925781 145.835938 282.371094 L 107.546875 258.121094 L 107.546875 209.621094 Z M 85.226562 214.085938 "/>
<use xlink:href="#surface113" mask="url(#mask36)"/>
<path style=" stroke:none;fill-rule:nonzero;fill:rgb(70.588235%,31.764706%,50.588235%);fill-opacity:1;" d="M 112.664062 215.046875 C 112.664062 215.046875 98 225.003906 85.226562 224.171875 C 85.226562 224.171875 83.949219 207.066406 87.78125 206.109375 C 91.609375 205.15625 108.199219 206.109375 112.664062 215.046875 Z M 112.664062 215.046875 "/>
<use xlink:href="#surface116" mask="url(#mask37)"/>
<path style=" stroke:none;fill-rule:nonzero;fill:rgb(99.215686%,71.764706%,59.215686%);fill-opacity:1;" d="M 178.078125 143.886719 C 178.078125 160.097656 164.9375 173.238281 148.726562 173.238281 C 132.511719 173.238281 119.371094 160.097656 119.371094 143.886719 C 119.371094 127.671875 132.511719 114.53125 148.726562 114.53125 C 164.9375 114.53125 178.078125 127.671875 178.078125 143.886719 Z M 178.078125 143.886719 "/>
<use xlink:href="#surface119" mask="url(#mask38)"/>
<path style=" stroke:none;fill-rule:nonzero;fill:rgb(56.078431%,35.294118%,41.568627%);fill-opacity:1;" d="M 141 137.605469 C 142.210938 138.164062 143.589844 138.175781 144.925781 138.164062 C 150.117188 138.132812 155.308594 137.941406 160.488281 137.589844 C 164.421875 137.324219 168.609375 136.863281 171.640625 134.351562 C 175.71875 130.964844 176.363281 124.621094 174.261719 119.753906 C 172.15625 114.890625 167.859375 111.304688 163.324219 108.566406 C 160.761719 106.949219 157.988281 105.695312 155.078125 104.84375 C 146.664062 102.558594 137.359375 105.34375 130.675781 110.96875 C 123.988281 116.59375 119.730469 124.660156 117.476562 133.085938 C 116.695312 136 115.695312 139.46875 112.808594 140.355469 C 114.730469 143.550781 119.414062 144.054688 122.785156 142.453125 C 127.746094 140.09375 130.285156 131.066406 134.738281 129.644531 C 139.679688 128.058594 136.789062 135.675781 141 137.605469 Z M 141 137.605469 "/>
<use xlink:href="#surface122" mask="url(#mask39)"/>
<use xlink:href="#surface125" mask="url(#mask40)"/>
<use xlink:href="#surface128" mask="url(#mask41)"/>
<path style=" stroke:none;fill-rule:nonzero;fill:rgb(87.843137%,87.843137%,87.843137%);fill-opacity:1;" d="M 85 305.273438 L 356.863281 305.273438 L 356.863281 402.921875 L 85 402.921875 Z M 85 305.273438 "/>
<use xlink:href="#surface131" mask="url(#mask42)"/>
<path style=" stroke:none;fill-rule:nonzero;fill:rgb(87.843137%,87.843137%,87.843137%);fill-opacity:1;" d="M 67.128906 294.425781 L 374.101562 294.425781 L 374.101562 320.589844 L 67.128906 320.589844 Z M 67.128906 294.425781 "/>
<path style=" stroke:none;fill-rule:nonzero;fill:rgb(32.54902%,32.941176%,38.039216%);fill-opacity:1;" d="M 128.378906 287.984375 L 180.59375 287.984375 C 182.390625 287.984375 183.84375 289.441406 183.84375 291.234375 L 183.84375 293.03125 C 183.84375 294.824219 182.390625 296.28125 180.59375 296.28125 L 128.378906 296.28125 C 126.585938 296.28125 125.128906 294.824219 125.128906 293.03125 L 125.128906 291.234375 C 125.128906 289.441406 126.585938 287.984375 128.378906 287.984375 Z M 128.378906 287.984375 "/>
<use xlink:href="#surface134" mask="url(#mask43)"/>
<path style=" stroke:none;fill-rule:nonzero;fill:rgb(24.313725%,24.705882%,28.627451%);fill-opacity:1;" d="M 176.890625 197.351562 L 288.285156 197.351562 C 295.695312 197.351562 301.703125 203.359375 301.703125 210.769531 L 301.703125 282.964844 C 301.703125 290.375 295.695312 296.386719 288.285156 296.386719 L 176.890625 296.386719 C 169.476562 296.386719 163.46875 290.375 163.46875 282.964844 L 163.46875 210.769531 C 163.46875 203.359375 169.476562 197.351562 176.890625 197.351562 Z M 176.890625 197.351562 "/>
<path style=" stroke:none;fill-rule:nonzero;fill:rgb(32.54902%,32.941176%,38.039216%);fill-opacity:1;" d="M 178.804688 197.351562 L 290.199219 197.351562 C 297.613281 197.351562 303.621094 203.359375 303.621094 210.769531 L 303.621094 282.964844 C 303.621094 290.375 297.613281 296.386719 290.199219 296.386719 L 178.804688 296.386719 C 171.394531 296.386719 165.386719 290.375 165.386719 282.964844 L 165.386719 210.769531 C 165.386719 203.359375 171.394531 197.351562 178.804688 197.351562 Z M 178.804688 197.351562 "/>
<path style=" stroke:none;fill-rule:nonzero;fill:rgb(87.843137%,87.843137%,87.843137%);fill-opacity:1;" d="M 245.425781 246.183594 C 245.425781 248.652344 243.425781 250.648438 240.960938 250.648438 C 238.492188 250.648438 236.496094 248.652344 236.496094 246.183594 C 236.496094 243.71875 238.492188 241.71875 240.960938 241.71875 C 243.425781 241.71875 245.425781 243.71875 245.425781 246.183594 Z M 245.425781 246.183594 "/>
</g>
</svg>
