<?xml version="1.0" encoding="UTF-8"?>
<svg xmlns="http://www.w3.org/2000/svg" xmlns:xlink="http://www.w3.org/1999/xlink" width="600pt" height="461pt" viewBox="0 0 600 461" version="1.1">
<defs>
<filter id="alpha" filterUnits="objectBoundingBox" x="0%" y="0%" width="100%" height="100%">
  <feColorMatrix type="matrix" in="SourceGraphic" values="0 0 0 0 1 0 0 0 0 1 0 0 0 0 1 0 0 0 1 0"/>
</filter>
<mask id="mask0">
  <g filter="url(#alpha)">
<rect x="0" y="0" width="600" height="461" style="fill:rgb(0%,0%,0%);fill-opacity:0.101961;stroke:none;"/>
  </g>
</mask>
<clipPath id="clip1">
  <rect width="600" height="461"/>
</clipPath>
<g id="surface6" clip-path="url(#clip1)">
<path style=" stroke:none;fill-rule:nonzero;fill:rgb(42.352941%,38.823529%,100%);fill-opacity:1;" d="M 34.542969 236.820312 C 54.914062 262.746094 47 300.617188 34.058594 330.953125 C 29.71875 341.113281 24.824219 351.851562 26.628906 362.742188 C 28.863281 376.058594 40.738281 385.796875 53.207031 390.957031 C 75.929688 400.367188 103.132812 398.125 124.015625 385.117188 C 142.0625 373.878906 154.988281 355.605469 173.34375 344.878906 C 204.0625 326.933594 243.160156 333.710938 276.515625 346.074219 C 300.113281 354.820312 325.914062 366.199219 349.359375 357.058594 C 365.855469 350.625 377.261719 334.96875 383.480469 318.371094 C 386.480469 310.363281 388.65625 301.6875 394.386719 295.332031 C 397.816406 291.558594 402.238281 288.875 406.792969 286.613281 C 448.378906 265.980469 500.890625 277.027344 541.28125 254.144531 C 568.554688 238.703125 586.015625 209.53125 593.75 179.125 C 601.480469 148.722656 600.605469 116.839844 598.617188 85.53125 C 597.222656 63.277344 594.71875 39.523438 580.515625 22.347656 C 565.484375 4.179688 539.695312 -2.578125 516.386719 0.875 C 493.078125 4.328125 471.949219 16.636719 453.359375 31.132812 C 430.132812 49.25 408.582031 71.808594 380.0625 79.175781 C 360.632812 84.175781 340.207031 81.464844 320.171875 80.492188 C 286.679688 78.90625 253.175781 82.429688 219.867188 86.28125 C 187.984375 89.96875 155.867188 94.03125 125.492188 104.410156 C 104 111.734375 86.777344 125.070312 66.480469 134.363281 C 53.25 140.4375 38.824219 142.113281 26.292969 149.855469 C 10.863281 159.382812 -3.285156 175.957031 0.667969 195.351562 C 4.429688 213.808594 23.730469 223.058594 34.542969 236.820312 Z M 34.542969 236.820312 "/>
</g>
<mask id="mask1">
  <g filter="url(#alpha)">
<rect x="0" y="0" width="600" height="461" style="fill:rgb(0%,0%,0%);fill-opacity:0.101961;stroke:none;"/>
  </g>
</mask>
<clipPath id="clip2">
  <rect width="600" height="461"/>
</clipPath>
<g id="surface9" clip-path="url(#clip2)">
<path style=" stroke:none;fill-rule:nonzero;fill:rgb(100%,100%,100%);fill-opacity:1;" d="M 362.707031 331.890625 C 360.246094 327.546875 360.171875 322.246094 362.515625 317.839844 C 366.878906 309.832031 375.953125 312.914062 375.953125 312.914062 L 376.417969 312.746094 C 379.878906 311.496094 383.679688 311.582031 387.078125 312.988281 C 383.28125 310.722656 378.667969 310.28125 374.507812 311.785156 L 374.046875 311.953125 C 374.046875 311.953125 364.972656 308.875 360.605469 316.878906 C 358.265625 321.285156 358.339844 326.585938 360.800781 330.929688 C 362.691406 334.363281 365.898438 338.429688 371.085938 340.652344 C 367.542969 338.554688 364.648438 335.523438 362.707031 331.890625 Z M 362.707031 331.890625 "/>
</g>
<mask id="mask2">
  <g filter="url(#alpha)">
<rect x="0" y="0" width="600" height="461" style="fill:rgb(0%,0%,0%);fill-opacity:0.2;stroke:none;"/>
  </g>
</mask>
<clipPath id="clip3">
  <rect width="600" height="461"/>
</clipPath>
<g id="surface12" clip-path="url(#clip3)">
<path style=" stroke:none;fill-rule:nonzero;fill:rgb(0%,0%,0%);fill-opacity:1;" d="M 369.347656 316.042969 C 369.347656 316.042969 372.714844 318.691406 380.878906 316.042969 "/>
</g>
<mask id="mask3">
  <g filter="url(#alpha)">
<rect x="0" y="0" width="600" height="461" style="fill:rgb(0%,0%,0%);fill-opacity:0.2;stroke:none;"/>
  </g>
</mask>
<clipPath id="clip4">
  <rect width="600" height="461"/>
</clipPath>
<g id="surface15" clip-path="url(#clip4)">
<path style=" stroke:none;fill-rule:nonzero;fill:rgb(0%,0%,0%);fill-opacity:1;" d="M 368.628906 296.800781 C 368.628906 296.800781 374.394531 312.433594 373.914062 316.523438 L 378.484375 316.042969 C 378.484375 316.042969 370.792969 302.316406 372.71875 296.800781 Z M 368.628906 296.800781 "/>
</g>
<mask id="mask4">
  <g filter="url(#alpha)">
<rect x="0" y="0" width="600" height="461" style="fill:rgb(0%,0%,0%);fill-opacity:0.101961;stroke:none;"/>
  </g>
</mask>
<clipPath id="clip5">
  <rect width="600" height="461"/>
</clipPath>
<g id="surface18" clip-path="url(#clip5)">
<path style=" stroke:none;fill-rule:nonzero;fill:rgb(100%,100%,100%);fill-opacity:1;" d="M 392.164062 298.105469 C 392.164062 298.105469 383.089844 293.460938 379.023438 297.300781 C 374.953125 301.136719 374.335938 310.945312 374.335938 310.945312 C 374.335938 310.945312 389.144531 312.980469 392.164062 298.105469 Z M 392.164062 298.105469 "/>
</g>
<mask id="mask5">
  <g filter="url(#alpha)">
<rect x="0" y="0" width="600" height="461" style="fill:rgb(0%,0%,0%);fill-opacity:0.501961;stroke:none;"/>
  </g>
</mask>
<clipPath id="clip6">
  <rect width="600" height="461"/>
</clipPath>
<g id="surface21" clip-path="url(#clip6)">
<path style=" stroke:none;fill-rule:nonzero;fill:rgb(100%,100%,100%);fill-opacity:1;" d="M 82.433594 140.90625 C 83.230469 144.378906 91.8125 153.003906 91.8125 153.003906 C 91.8125 153.003906 95.8125 141.496094 94.996094 138.03125 C 94.207031 134.554688 90.75 132.378906 87.28125 133.167969 C 83.808594 133.960938 81.632812 137.417969 82.421875 140.890625 Z M 82.433594 140.90625 "/>
</g>
<mask id="mask6">
  <g filter="url(#alpha)">
<rect x="0" y="0" width="600" height="461" style="fill:rgb(0%,0%,0%);fill-opacity:0.501961;stroke:none;"/>
  </g>
</mask>
<clipPath id="clip7">
  <rect width="600" height="461"/>
</clipPath>
<g id="surface24" clip-path="url(#clip7)">
<path style=" stroke:none;fill-rule:nonzero;fill:rgb(100%,100%,100%);fill-opacity:1;" d="M 76.457031 162.515625 C 79.011719 165 90.898438 167.574219 90.898438 167.574219 C 90.898438 167.574219 87.988281 155.75 85.433594 153.273438 C 82.882812 150.792969 78.804688 150.851562 76.324219 153.40625 C 73.847656 155.960938 73.90625 160.042969 76.457031 162.523438 Z M 76.457031 162.515625 "/>
</g>
<mask id="mask7">
  <g filter="url(#alpha)">
<rect x="0" y="0" width="600" height="461" style="fill:rgb(0%,0%,0%);fill-opacity:0.501961;stroke:none;"/>
  </g>
</mask>
<clipPath id="clip8">
  <rect width="600" height="461"/>
</clipPath>
<g id="surface27" clip-path="url(#clip8)">
<path style=" stroke:none;fill-rule:nonzero;fill:rgb(100%,100%,100%);fill-opacity:1;" d="M 84.429688 195.273438 C 87.855469 196.125 99.441406 192.339844 99.441406 192.339844 C 99.441406 192.339844 90.964844 183.605469 87.515625 182.753906 C 84.058594 181.898438 80.570312 184.011719 79.71875 187.46875 C 78.863281 190.925781 80.972656 194.421875 84.429688 195.273438 Z M 84.429688 195.273438 "/>
</g>
<mask id="mask8">
  <g filter="url(#alpha)">
<rect x="0" y="0" width="600" height="461" style="fill:rgb(0%,0%,0%);fill-opacity:0.501961;stroke:none;"/>
  </g>
</mask>
<clipPath id="clip9">
  <rect width="600" height="461"/>
</clipPath>
<g id="surface30" clip-path="url(#clip9)">
<path style=" stroke:none;fill-rule:nonzero;fill:rgb(100%,100%,100%);fill-opacity:1;" d="M 96.035156 218.6875 C 99.296875 220.113281 111.324219 218.335938 111.324219 218.335938 C 111.324219 218.335938 104.46875 208.289062 101.1875 206.894531 C 99.070312 205.917969 96.589844 206.164062 94.703125 207.539062 C 92.820312 208.914062 91.824219 211.203125 92.101562 213.519531 C 92.378906 215.835938 93.886719 217.824219 96.046875 218.710938 Z M 96.035156 218.6875 "/>
</g>
<mask id="mask9">
  <g filter="url(#alpha)">
<rect x="0" y="0" width="600" height="461" style="fill:rgb(0%,0%,0%);fill-opacity:0.501961;stroke:none;"/>
  </g>
</mask>
<clipPath id="clip10">
  <rect width="600" height="461"/>
</clipPath>
<g id="surface33" clip-path="url(#clip10)">
<path style=" stroke:none;fill-rule:nonzero;fill:rgb(100%,100%,100%);fill-opacity:1;" d="M 104.234375 165.222656 C 102.304688 168.214844 91.285156 173.371094 91.285156 173.371094 C 91.285156 173.371094 91.484375 161.203125 93.421875 158.210938 C 95.359375 155.222656 99.347656 154.367188 102.332031 156.304688 C 105.316406 158.242188 106.167969 162.234375 104.234375 165.222656 Z M 104.234375 165.222656 "/>
</g>
<mask id="mask10">
  <g filter="url(#alpha)">
<rect x="0" y="0" width="600" height="461" style="fill:rgb(0%,0%,0%);fill-opacity:0.501961;stroke:none;"/>
  </g>
</mask>
<clipPath id="clip11">
  <rect width="600" height="461"/>
</clipPath>
<g id="surface36" clip-path="url(#clip11)">
<path style=" stroke:none;fill-rule:nonzero;fill:rgb(100%,100%,100%);fill-opacity:1;" d="M 117.460938 192.785156 C 114.726562 195.074219 102.667969 196.6875 102.667969 196.6875 C 102.667969 196.6875 106.496094 185.132812 109.238281 182.855469 C 111.980469 180.582031 116.039062 180.964844 118.3125 183.703125 C 120.582031 186.445312 120.203125 190.511719 117.460938 192.785156 Z M 117.460938 192.785156 "/>
</g>
<mask id="mask11">
  <g filter="url(#alpha)">
<rect x="0" y="0" width="600" height="461" style="fill:rgb(0%,0%,0%);fill-opacity:0.501961;stroke:none;"/>
  </g>
</mask>
<clipPath id="clip12">
  <rect width="600" height="461"/>
</clipPath>
<g id="surface39" clip-path="url(#clip12)">
<path style=" stroke:none;fill-rule:nonzero;fill:rgb(100%,100%,100%);fill-opacity:1;" d="M 126.644531 221.34375 C 124.332031 224.046875 112.726562 227.691406 112.726562 227.691406 C 112.726562 227.691406 114.546875 215.679688 116.867188 212.953125 C 119.183594 210.25 123.253906 209.9375 125.953125 212.253906 C 128.65625 214.574219 128.96875 218.644531 126.652344 221.347656 Z M 126.644531 221.34375 "/>
</g>
<linearGradient id="linear0" gradientUnits="userSpaceOnUse" x1="756.96" y1="364.35" x2="756.96" y2="20.38" gradientTransform="matrix(0.571429,0,0,0.57196,0,0)">
<stop offset="0" style="stop-color:rgb(50.196078%,50.196078%,50.196078%);stop-opacity:0.25098;"/>
<stop offset="0.54" style="stop-color:rgb(50.196078%,50.196078%,50.196078%);stop-opacity:0.121569;"/>
<stop offset="1" style="stop-color:rgb(50.196078%,50.196078%,50.196078%);stop-opacity:0.101961;"/>
</linearGradient>
<mask id="mask12">
  <g filter="url(#alpha)">
<rect x="0" y="0" width="600" height="461" style="fill:rgb(0%,0%,0%);fill-opacity:0.501961;stroke:none;"/>
  </g>
</mask>
<clipPath id="clip13">
  <rect width="600" height="461"/>
</clipPath>
<g id="surface42" clip-path="url(#clip13)">
<path style=" stroke:none;fill-rule:nonzero;fill:rgb(42.352941%,38.823529%,100%);fill-opacity:1;" d="M 303.34375 47.089844 L 408.125 47.089844 L 408.125 51.460938 L 303.34375 51.460938 Z M 303.34375 47.089844 "/>
</g>
<mask id="mask13">
  <g filter="url(#alpha)">
<rect x="0" y="0" width="600" height="461" style="fill:rgb(0%,0%,0%);fill-opacity:0.501961;stroke:none;"/>
  </g>
</mask>
<clipPath id="clip14">
  <rect width="600" height="461"/>
</clipPath>
<g id="surface45" clip-path="url(#clip14)">
<path style=" stroke:none;fill-rule:nonzero;fill:rgb(42.352941%,38.823529%,100%);fill-opacity:1;" d="M 303.34375 55.828125 L 408.125 55.828125 L 408.125 60.199219 L 303.34375 60.199219 Z M 303.34375 55.828125 "/>
</g>
<mask id="mask14">
  <g filter="url(#alpha)">
<rect x="0" y="0" width="600" height="461" style="fill:rgb(0%,0%,0%);fill-opacity:0.501961;stroke:none;"/>
  </g>
</mask>
<clipPath id="clip15">
  <rect width="600" height="461"/>
</clipPath>
<g id="surface48" clip-path="url(#clip15)">
<path style=" stroke:none;fill-rule:nonzero;fill:rgb(42.352941%,38.823529%,100%);fill-opacity:1;" d="M 303.34375 64.570312 L 408.125 64.570312 L 408.125 68.9375 L 303.34375 68.9375 Z M 303.34375 64.570312 "/>
</g>
<mask id="mask15">
  <g filter="url(#alpha)">
<rect x="0" y="0" width="600" height="461" style="fill:rgb(0%,0%,0%);fill-opacity:0.501961;stroke:none;"/>
  </g>
</mask>
<clipPath id="clip16">
  <rect width="600" height="461"/>
</clipPath>
<g id="surface51" clip-path="url(#clip16)">
<path style=" stroke:none;fill-rule:nonzero;fill:rgb(42.352941%,38.823529%,100%);fill-opacity:1;" d="M 339.457031 73.308594 L 408.121094 73.308594 L 408.121094 77.679688 L 339.457031 77.679688 Z M 339.457031 73.308594 "/>
</g>
<mask id="mask16">
  <g filter="url(#alpha)">
<rect x="0" y="0" width="600" height="461" style="fill:rgb(0%,0%,0%);fill-opacity:0.501961;stroke:none;"/>
  </g>
</mask>
<clipPath id="clip17">
  <rect width="600" height="461"/>
</clipPath>
<g id="surface54" clip-path="url(#clip17)">
<path style=" stroke:none;fill-rule:nonzero;fill:rgb(42.352941%,38.823529%,100%);fill-opacity:1;" d="M 303.34375 82.054688 L 358.515625 82.054688 L 358.515625 86.421875 L 303.34375 86.421875 Z M 303.34375 82.054688 "/>
</g>
<mask id="mask17">
  <g filter="url(#alpha)">
<rect x="0" y="0" width="600" height="461" style="fill:rgb(0%,0%,0%);fill-opacity:0.501961;stroke:none;"/>
  </g>
</mask>
<clipPath id="clip18">
  <rect width="600" height="461"/>
</clipPath>
<g id="surface57" clip-path="url(#clip18)">
<path style=" stroke:none;fill-rule:nonzero;fill:rgb(42.352941%,38.823529%,100%);fill-opacity:1;" d="M 333.109375 90.792969 L 375.578125 90.792969 L 375.578125 95.164062 L 333.109375 95.164062 Z M 333.109375 90.792969 "/>
</g>
<mask id="mask18">
  <g filter="url(#alpha)">
<rect x="0" y="0" width="600" height="461" style="fill:rgb(0%,0%,0%);fill-opacity:0.501961;stroke:none;"/>
  </g>
</mask>
<clipPath id="clip19">
  <rect width="600" height="461"/>
</clipPath>
<g id="surface60" clip-path="url(#clip19)">
<path style=" stroke:none;fill-rule:nonzero;fill:rgb(42.352941%,38.823529%,100%);fill-opacity:1;" d="M 422.015625 77.683594 L 545.457031 77.683594 L 545.457031 148.796875 L 422.015625 148.796875 Z M 422.015625 77.683594 "/>
</g>
<mask id="mask19">
  <g filter="url(#alpha)">
<rect x="0" y="0" width="600" height="461" style="fill:rgb(0%,0%,0%);fill-opacity:0.101961;stroke:none;"/>
  </g>
</mask>
<clipPath id="clip20">
  <rect width="600" height="461"/>
</clipPath>
<g id="surface63" clip-path="url(#clip20)">
<path style=" stroke:none;fill-rule:nonzero;fill:rgb(0%,0%,0%);fill-opacity:1;" d="M 559.347656 153.6875 L 559.347656 155.527344 L 473.21875 155.527344 L 473.21875 155.132812 C 473.21875 155.132812 515.601562 113.847656 559.347656 153.6875 Z M 559.347656 153.6875 "/>
</g>
<linearGradient id="linear1" gradientUnits="userSpaceOnUse" x1="919.02" y1="298.54" x2="919.02" y2="260.1" gradientTransform="matrix(0.571429,0,0,0.57196,-42.857143,-26.927891)">
<stop offset="0" style="stop-color:rgb(50.196078%,50.196078%,50.196078%);stop-opacity:0.25098;"/>
<stop offset="0.54" style="stop-color:rgb(50.196078%,50.196078%,50.196078%);stop-opacity:0.121569;"/>
<stop offset="1" style="stop-color:rgb(50.196078%,50.196078%,50.196078%);stop-opacity:0.101961;"/>
</linearGradient>
<mask id="mask20">
  <g filter="url(#alpha)">
<rect x="0" y="0" width="600" height="461" style="fill:rgb(0%,0%,0%);fill-opacity:0.101961;stroke:none;"/>
  </g>
</mask>
<clipPath id="clip21">
  <rect width="600" height="461"/>
</clipPath>
<g id="surface66" clip-path="url(#clip21)">
<path style=" stroke:none;fill-rule:nonzero;fill:rgb(0%,0%,0%);fill-opacity:1;" d="M 483.101562 133.003906 L 483.101562 132.933594 C 482.230469 133.25 480.976562 137.707031 480.976562 137.707031 C 480.957031 138.855469 480.773438 140 480.441406 141.101562 L 480.554688 141.144531 C 480.898438 140.03125 481.09375 138.875 481.125 137.710938 C 481.125 137.710938 482.234375 133.644531 483.101562 133.003906 Z M 483.101562 133.003906 "/>
<path style=" stroke:none;fill-rule:nonzero;fill:rgb(0%,0%,0%);fill-opacity:1;" d="M 484.976562 130.835938 L 484.855469 130.835938 C 485.285156 131.832031 485.355469 132.945312 485.058594 133.988281 L 484.59375 137.160156 C 484.867188 138.574219 484.070312 141.164062 483.988281 141.453125 L 484.101562 141.453125 C 484.101562 141.453125 485.003906 138.632812 484.71875 137.140625 L 485.183594 133.964844 C 485.472656 132.929688 485.402344 131.824219 484.976562 130.835938 Z M 484.976562 130.835938 "/>
</g>
<mask id="mask21">
  <g filter="url(#alpha)">
<rect x="0" y="0" width="600" height="461" style="fill:rgb(0%,0%,0%);fill-opacity:0.101961;stroke:none;"/>
  </g>
</mask>
<clipPath id="clip22">
  <rect width="600" height="461"/>
</clipPath>
<g id="surface69" clip-path="url(#clip22)">
<path style=" stroke:none;fill-rule:nonzero;fill:rgb(0%,0%,0%);fill-opacity:1;" d="M 480.515625 128.296875 C 480.511719 128.359375 480.554688 128.414062 480.617188 128.429688 C 480.902344 128.496094 481.171875 128.625 481.40625 128.804688 C 481.847656 129.148438 480.941406 128.117188 480.941406 128.117188 L 480.640625 128.1875 Z M 480.515625 128.296875 "/>
</g>
<mask id="mask22">
  <g filter="url(#alpha)">
<rect x="0" y="0" width="600" height="461" style="fill:rgb(0%,0%,0%);fill-opacity:0.101961;stroke:none;"/>
  </g>
</mask>
<clipPath id="clip23">
  <rect width="600" height="461"/>
</clipPath>
<g id="surface72" clip-path="url(#clip23)">
<path style=" stroke:none;fill-rule:nonzero;fill:rgb(0%,0%,0%);fill-opacity:1;" d="M 486.164062 128.59375 C 485.90625 128.476562 485.609375 128.476562 485.351562 128.589844 C 485.09375 128.707031 484.894531 128.929688 484.8125 129.199219 C 484.8125 129.199219 485.578125 128.628906 486.109375 128.707031 "/>
</g>
<mask id="mask23">
  <g filter="url(#alpha)">
<rect x="0" y="0" width="600" height="461" style="fill:rgb(0%,0%,0%);fill-opacity:0.101961;stroke:none;"/>
  </g>
</mask>
<clipPath id="clip24">
  <rect width="600" height="461"/>
</clipPath>
<g id="surface75" clip-path="url(#clip24)">
<path style=" stroke:none;fill-rule:nonzero;fill:rgb(0%,0%,0%);fill-opacity:1;" d="M 480.753906 128.074219 C 480.785156 128.503906 480.757812 128.9375 480.675781 129.359375 C 480.585938 129.789062 480.539062 130.222656 480.527344 130.660156 C 480.566406 130.945312 480.652344 132.835938 480.652344 132.835938 C 480.652344 132.835938 480.503906 134.496094 481.308594 134.34375 C 482.113281 134.1875 481.183594 132.453125 481.183594 132.453125 L 481.222656 130.167969 C 481.445312 129.871094 481.589844 129.523438 481.632812 129.15625 C 481.667969 128.644531 480.753906 128.074219 480.753906 128.074219 Z M 480.753906 128.074219 "/>
</g>
<mask id="mask24">
  <g filter="url(#alpha)">
<rect x="0" y="0" width="600" height="461" style="fill:rgb(0%,0%,0%);fill-opacity:0.101961;stroke:none;"/>
  </g>
</mask>
<clipPath id="clip25">
  <rect width="600" height="461"/>
</clipPath>
<g id="surface78" clip-path="url(#clip25)">
<path style=" stroke:none;fill-rule:nonzero;fill:rgb(0%,0%,0%);fill-opacity:1;" d="M 485.898438 128.183594 L 485.789062 129.949219 C 485.789062 129.949219 485.71875 132.425781 485.417969 133.054688 C 485.417969 133.054688 485.496094 134.769531 484.691406 134.769531 C 483.886719 134.769531 484.828125 132.867188 484.828125 132.867188 C 484.828125 132.867188 485.261719 130.933594 485.039062 130.316406 L 484.828125 128.195312 Z M 485.898438 128.183594 "/>
</g>
<mask id="mask25">
  <g filter="url(#alpha)">
<rect x="0" y="0" width="600" height="461" style="fill:rgb(0%,0%,0%);fill-opacity:0.101961;stroke:none;"/>
  </g>
</mask>
<clipPath id="clip26">
  <rect width="600" height="461"/>
</clipPath>
<g id="surface81" clip-path="url(#clip26)">
<path style=" stroke:none;fill-rule:nonzero;fill:rgb(0%,0%,0%);fill-opacity:1;" d="M 483.285156 126.464844 C 483.285156 126.464844 483.9375 126.769531 484.296875 125.894531 L 485.628906 126.546875 C 485.792969 126.703125 485.886719 126.917969 485.886719 127.148438 L 486.171875 128.679688 C 485.925781 128.582031 485.652344 128.589844 485.414062 128.699219 C 485.175781 128.804688 484.988281 129.003906 484.898438 129.25 L 484.976562 130.117188 C 485.042969 130.328125 485.027344 130.558594 484.9375 130.761719 C 484.921875 130.796875 484.921875 130.839844 484.9375 130.875 C 484.984375 131.003906 484.96875 131.148438 484.894531 131.261719 C 484.816406 131.375 484.691406 131.445312 484.554688 131.449219 C 484.195312 131.449219 483.839844 131.476562 483.484375 131.527344 C 483.199219 131.609375 482.34375 131.363281 482.050781 131.527344 C 481.761719 131.695312 481.160156 131.402344 481.160156 131.402344 L 481.324219 130.703125 C 481.324219 130.703125 481.21875 130.359375 481.324219 130.242188 C 481.429688 129.746094 481.40625 129.230469 481.257812 128.75 C 481.257812 128.75 480.765625 128.285156 480.480469 128.363281 L 480.890625 126.597656 C 481.066406 126.261719 481.40625 126.046875 481.78125 126.027344 C 482.089844 126.054688 482.398438 125.964844 482.644531 125.78125 C 482.644531 125.78125 482.324219 126.359375 483.285156 126.464844 Z M 483.285156 126.464844 "/>
</g>
<mask id="mask26">
  <g filter="url(#alpha)">
<rect x="0" y="0" width="600" height="461" style="fill:rgb(0%,0%,0%);fill-opacity:0.101961;stroke:none;"/>
  </g>
</mask>
<clipPath id="clip27">
  <rect width="600" height="461"/>
</clipPath>
<g id="surface84" clip-path="url(#clip27)">
<path style=" stroke:none;fill-rule:nonzero;fill:rgb(0%,0%,0%);fill-opacity:1;" d="M 483.355469 126.4375 C 483.53125 126.484375 484.011719 126.539062 484.296875 125.820312 L 485.628906 126.472656 C 485.792969 126.628906 485.886719 126.84375 485.886719 127.074219 L 486.171875 128.605469 C 485.925781 128.507812 485.652344 128.515625 485.414062 128.625 C 485.175781 128.730469 484.988281 128.929688 484.898438 129.175781 L 484.976562 130.039062 L 485.027344 130.210938 C 485.078125 130.359375 485.050781 130.523438 484.960938 130.648438 C 484.929688 130.695312 484.929688 130.757812 484.960938 130.808594 C 485.007812 130.933594 484.992188 131.078125 484.914062 131.191406 C 484.839844 131.304688 484.714844 131.375 484.578125 131.378906 C 484.21875 131.382812 483.863281 131.410156 483.507812 131.460938 C 483.222656 131.539062 482.367188 131.292969 482.074219 131.460938 C 481.78125 131.625 481.183594 131.332031 481.183594 131.332031 L 481.347656 130.636719 C 481.347656 130.636719 481.238281 130.292969 481.347656 130.171875 C 481.453125 129.675781 481.429688 129.164062 481.28125 128.679688 C 481.28125 128.679688 480.789062 128.214844 480.503906 128.296875 L 480.914062 126.527344 C 481.089844 126.195312 481.429688 125.976562 481.804688 125.957031 C 482.113281 125.984375 482.421875 125.898438 482.667969 125.710938 C 482.667969 125.710938 482.347656 126.28125 483.195312 126.425781 Z M 483.355469 126.4375 "/>
</g>
<mask id="mask27">
  <g filter="url(#alpha)">
<rect x="0" y="0" width="600" height="461" style="fill:rgb(0%,0%,0%);fill-opacity:0.101961;stroke:none;"/>
  </g>
</mask>
<clipPath id="clip28">
  <rect width="600" height="461"/>
</clipPath>
<g id="surface87" clip-path="url(#clip28)">
<path style=" stroke:none;fill-rule:nonzero;fill:rgb(0%,0%,0%);fill-opacity:1;" d="M 483.855469 124.097656 L 482.714844 124.824219 C 482.742188 124.949219 482.765625 125.074219 482.78125 125.203125 C 482.914062 125.253906 483.058594 125.28125 483.199219 125.28125 C 483.484375 125.261719 483.753906 125.140625 483.953125 124.9375 C 483.894531 124.664062 483.863281 124.382812 483.855469 124.097656 Z M 483.855469 124.097656 "/>
</g>
<mask id="mask28">
  <g filter="url(#alpha)">
<rect x="0" y="0" width="600" height="461" style="fill:rgb(0%,0%,0%);fill-opacity:0.101961;stroke:none;"/>
  </g>
</mask>
<clipPath id="clip29">
  <rect width="600" height="461"/>
</clipPath>
<g id="surface90" clip-path="url(#clip29)">
<path style=" stroke:none;fill-rule:nonzero;fill:rgb(0%,0%,0%);fill-opacity:1;" d="M 484.714844 127.382812 C 484.765625 127.625 484.765625 127.875 484.714844 128.117188 C 484.714844 128.117188 484.644531 128.765625 484.753906 128.875 "/>
</g>
<mask id="mask29">
  <g filter="url(#alpha)">
<rect x="0" y="0" width="600" height="461" style="fill:rgb(0%,0%,0%);fill-opacity:0.101961;stroke:none;"/>
  </g>
</mask>
<clipPath id="clip30">
  <rect width="600" height="461"/>
</clipPath>
<g id="surface93" clip-path="url(#clip30)">
<path style=" stroke:none;fill-rule:nonzero;fill:rgb(0%,0%,0%);fill-opacity:1;" d="M 481.386719 127.5 C 481.441406 127.746094 481.441406 127.996094 481.386719 128.238281 C 481.386719 128.238281 481.320312 128.886719 481.429688 128.996094 "/>
</g>
<mask id="mask30">
  <g filter="url(#alpha)">
<rect x="0" y="0" width="600" height="461" style="fill:rgb(0%,0%,0%);fill-opacity:0.101961;stroke:none;"/>
  </g>
</mask>
<clipPath id="clip31">
  <rect width="600" height="461"/>
</clipPath>
<g id="surface96" clip-path="url(#clip31)">
<path style=" stroke:none;fill-rule:nonzero;fill:rgb(0%,0%,0%);fill-opacity:1;" d="M 481.359375 130.171875 C 481.464844 130.210938 481.582031 130.210938 481.6875 130.171875 C 481.8125 130.132812 481.953125 130.132812 482.078125 130.171875 "/>
</g>
<mask id="mask31">
  <g filter="url(#alpha)">
<rect x="0" y="0" width="600" height="461" style="fill:rgb(0%,0%,0%);fill-opacity:0.101961;stroke:none;"/>
  </g>
</mask>
<clipPath id="clip32">
  <rect width="600" height="461"/>
</clipPath>
<g id="surface99" clip-path="url(#clip32)">
<path style=" stroke:none;fill-rule:nonzero;fill:rgb(0%,0%,0%);fill-opacity:1;" d="M 481.527344 129.21875 C 481.914062 129.238281 482.304688 129.175781 482.667969 129.039062 C 482.667969 129.039062 484.0625 129.382812 484.460938 129.136719 "/>
</g>
<mask id="mask32">
  <g filter="url(#alpha)">
<rect x="0" y="0" width="600" height="461" style="fill:rgb(0%,0%,0%);fill-opacity:0.101961;stroke:none;"/>
  </g>
</mask>
<clipPath id="clip33">
  <rect width="600" height="461"/>
</clipPath>
<g id="surface102" clip-path="url(#clip33)">
<path style=" stroke:none;fill-rule:nonzero;fill:rgb(0%,0%,0%);fill-opacity:1;" d="M 483.34375 123.371094 C 483.296875 123.789062 483.351562 124.214844 483.496094 124.605469 C 483.640625 124.992188 483.613281 125.417969 483.429688 125.785156 C 483.550781 125.816406 483.683594 125.785156 483.777344 125.699219 C 483.875 125.613281 483.960938 125.511719 484.027344 125.402344 C 484.101562 125.3125 484.15625 125.207031 484.183594 125.09375 C 484.195312 124.917969 484.167969 124.738281 484.101562 124.574219 C 484.027344 124.269531 483.972656 123.957031 483.9375 123.644531 C 483.9375 123.457031 483.9375 122.910156 483.726562 122.855469 C 483.515625 122.804688 483.382812 123.210938 483.34375 123.371094 Z M 483.34375 123.371094 "/>
</g>
<mask id="mask33">
  <g filter="url(#alpha)">
<rect x="0" y="0" width="600" height="461" style="fill:rgb(0%,0%,0%);fill-opacity:0.101961;stroke:none;"/>
  </g>
</mask>
<clipPath id="clip34">
  <rect width="600" height="461"/>
</clipPath>
<g id="surface105" clip-path="url(#clip34)">
<path style=" stroke:none;fill-rule:nonzero;fill:rgb(0%,0%,0%);fill-opacity:1;" d="M 482.890625 123.652344 C 482.984375 123.75 483.003906 123.898438 483.085938 124.011719 C 483.230469 124.171875 483.441406 124.253906 483.65625 124.234375 C 483.710938 124.234375 483.769531 124.246094 483.816406 124.269531 C 483.902344 124.328125 483.910156 124.453125 483.964844 124.539062 C 484.023438 124.605469 484.109375 124.644531 484.199219 124.644531 C 484.289062 124.644531 484.375 124.605469 484.433594 124.539062 C 484.53125 124.402344 484.578125 124.238281 484.570312 124.070312 C 484.589844 123.878906 484.589844 123.6875 484.570312 123.496094 C 484.566406 123.269531 484.476562 123.054688 484.320312 122.890625 C 484.191406 122.796875 484.039062 122.730469 483.878906 122.703125 C 483.660156 122.625 483.425781 122.609375 483.199219 122.652344 C 483.089844 122.6875 482.988281 122.738281 482.890625 122.804688 L 482.492188 123.074219 C 482.34375 123.175781 482.070312 123.382812 482.335938 123.496094 C 482.53125 123.539062 482.75 123.496094 482.890625 123.652344 Z M 482.890625 123.652344 "/>
</g>
<mask id="mask34">
  <g filter="url(#alpha)">
<rect x="0" y="0" width="600" height="461" style="fill:rgb(0%,0%,0%);fill-opacity:0.2;stroke:none;"/>
  </g>
</mask>
<clipPath id="clip35">
  <rect width="600" height="461"/>
</clipPath>
<g id="surface108" clip-path="url(#clip35)">
<path style=" stroke:none;fill-rule:nonzero;fill:rgb(42.352941%,38.823529%,100%);fill-opacity:1;" d="M 224.21875 397.328125 L 178.765625 397.328125 L 178.765625 371.699219 L 224.21875 371.699219 Z M 180.6875 395.40625 L 222.285156 395.40625 L 222.285156 373.621094 L 180.6875 373.621094 Z M 180.6875 395.40625 "/>
</g>
<linearGradient id="linear2" gradientUnits="userSpaceOnUse" x1="532.43" y1="677.74" x2="532.43" y2="220.6" gradientTransform="matrix(-0.571429,0,0,0.57196,485.057143,-26.927891)">
<stop offset="0" style="stop-color:rgb(50.196078%,50.196078%,50.196078%);stop-opacity:0.25098;"/>
<stop offset="0.54" style="stop-color:rgb(50.196078%,50.196078%,50.196078%);stop-opacity:0.121569;"/>
<stop offset="1" style="stop-color:rgb(50.196078%,50.196078%,50.196078%);stop-opacity:0.101961;"/>
</linearGradient>
<mask id="mask35">
  <g filter="url(#alpha)">
<rect x="0" y="0" width="600" height="461" style="fill:rgb(0%,0%,0%);fill-opacity:0.101961;stroke:none;"/>
  </g>
</mask>
<clipPath id="clip36">
  <rect width="600" height="461"/>
</clipPath>
<g id="surface111" clip-path="url(#clip36)">
<path style=" stroke:none;fill-rule:nonzero;fill:rgb(0%,0%,0%);fill-opacity:1;" d="M 164.867188 221.539062 C 164.867188 221.539062 136.421875 221.539062 129.132812 195.253906 L 105.1875 213.828125 C 101.847656 216.421875 99.71875 220.273438 99.296875 224.484375 L 97.011719 247.09375 C 97.011719 247.09375 94.457031 255.488281 97.378906 260.597656 C 97.378906 260.597656 127.664062 252.933594 128.378906 261.6875 L 107.246094 320.824219 C 107.246094 320.824219 140.070312 321.554688 148.816406 315.714844 C 148.816406 315.714844 184.554688 323.015625 193.308594 314.984375 C 202.0625 306.953125 210.8125 307.6875 203.519531 289.433594 C 203.519531 289.433594 218.109375 274.832031 211.519531 254.390625 C 204.929688 233.949219 211.152344 254.757812 211.152344 254.757812 C 211.152344 254.757812 225.378906 247.820312 224.644531 234.679688 L 223.1875 221.527344 C 223.1875 221.527344 223.109375 221.089844 222.910156 220.308594 C 218.460938 202.988281 206.515625 193.425781 189.71875 199.523438 C 184.8125 201.300781 179.792969 199.265625 179.792969 199.265625 C 179.792969 199.265625 185.285156 223.019531 164.867188 221.539062 Z M 164.867188 221.539062 "/>
</g>
<mask id="mask36">
  <g filter="url(#alpha)">
<rect x="0" y="0" width="600" height="461" style="fill:rgb(0%,0%,0%);fill-opacity:0.101961;stroke:none;"/>
  </g>
</mask>
<clipPath id="clip37">
  <rect width="600" height="461"/>
</clipPath>
<g id="surface114" clip-path="url(#clip37)">
<path style=" stroke:none;fill-rule:nonzero;fill:rgb(0%,0%,0%);fill-opacity:1;" d="M 128.761719 246.722656 C 128.761719 246.722656 112 258.113281 97.398438 257.164062 C 97.398438 257.164062 95.941406 237.597656 100.320312 236.503906 C 104.695312 235.414062 123.65625 236.503906 128.761719 246.722656 Z M 128.761719 246.722656 "/>
</g>
<mask id="mask37">
  <g filter="url(#alpha)">
<rect x="0" y="0" width="600" height="461" style="fill:rgb(0%,0%,0%);fill-opacity:0.101961;stroke:none;"/>
  </g>
</mask>
<clipPath id="clip38">
  <rect width="600" height="461"/>
</clipPath>
<g id="surface117" clip-path="url(#clip38)">
<path style=" stroke:none;fill-rule:nonzero;fill:rgb(0%,0%,0%);fill-opacity:1;" d="M 152.46875 178.464844 L 182.371094 182.84375 C 182.371094 182.84375 181.695312 189.433594 181.566406 197 C 169.707031 202.003906 156.039062 199.78125 146.371094 191.28125 C 148.875 188.191406 151.035156 184.039062 152.46875 178.464844 Z M 152.46875 178.464844 "/>
</g>
<mask id="mask38">
  <g filter="url(#alpha)">
<rect x="0" y="0" width="600" height="461" style="fill:rgb(0%,0%,0%);fill-opacity:0.101961;stroke:none;"/>
  </g>
</mask>
<clipPath id="clip39">
  <rect width="600" height="461"/>
</clipPath>
<g id="surface120" clip-path="url(#clip39)">
<path style=" stroke:none;fill-rule:nonzero;fill:rgb(0%,0%,0%);fill-opacity:1;" d="M 161.144531 158.140625 C 162.527344 158.78125 164.101562 158.792969 165.628906 158.78125 C 171.5625 158.742188 177.492188 158.523438 183.417969 158.125 C 187.910156 157.820312 192.695312 157.292969 196.160156 154.417969 C 200.824219 150.546875 201.558594 143.289062 199.152344 137.722656 C 196.75 132.15625 191.839844 128.054688 186.65625 124.921875 C 183.726562 123.0625 180.546875 121.621094 177.21875 120.636719 C 167.601562 118.023438 156.964844 121.210938 149.324219 127.644531 C 141.6875 134.078125 136.816406 143.304688 134.238281 152.941406 C 133.347656 156.277344 132.207031 160.246094 128.910156 161.257812 C 131.101562 164.914062 136.457031 165.492188 140.308594 163.660156 C 145.976562 160.960938 148.878906 150.632812 153.972656 149.007812 C 159.632812 147.21875 156.332031 155.933594 161.144531 158.140625 Z M 161.144531 158.140625 "/>
</g>
<mask id="mask39">
  <g filter="url(#alpha)">
<rect x="0" y="0" width="600" height="461" style="fill:rgb(0%,0%,0%);fill-opacity:0.101961;stroke:none;"/>
  </g>
</mask>
<clipPath id="clip40">
  <rect width="600" height="461"/>
</clipPath>
<g id="surface123" clip-path="url(#clip40)">
<path style=" stroke:none;fill-rule:nonzero;fill:rgb(0%,0%,0%);fill-opacity:1;" d="M 203.886719 287.605469 C 192.941406 284.679688 181.664062 283.207031 170.335938 283.222656 "/>
</g>
<mask id="mask40">
  <g filter="url(#alpha)">
<rect x="0" y="0" width="600" height="461" style="fill:rgb(0%,0%,0%);fill-opacity:0.101961;stroke:none;"/>
  </g>
</mask>
<clipPath id="clip41">
  <rect width="600" height="461"/>
</clipPath>
<g id="surface126" clip-path="url(#clip41)">
<path style=" stroke:none;fill-rule:nonzero;fill:rgb(0%,0%,0%);fill-opacity:1;" d="M 128.761719 248.183594 C 128.761719 248.183594 139.703125 256.191406 136.761719 260.597656 "/>
</g>
<mask id="mask41">
  <g filter="url(#alpha)">
<rect x="0" y="0" width="600" height="461" style="fill:rgb(0%,0%,0%);fill-opacity:0.701961;stroke:none;"/>
  </g>
</mask>
<linearGradient id="linear3" gradientUnits="userSpaceOnUse" x1="441.23" y1="805.83" x2="441.23" y2="578.64" gradientTransform="matrix(0.571429,0,0,0.57196,0,0)">
<stop offset="0" style="stop-color:rgb(50.196078%,50.196078%,50.196078%);stop-opacity:0.25098;"/>
<stop offset="0.54" style="stop-color:rgb(50.196078%,50.196078%,50.196078%);stop-opacity:0.121569;"/>
<stop offset="1" style="stop-color:rgb(50.196078%,50.196078%,50.196078%);stop-opacity:0.101961;"/>
</linearGradient>
<clipPath id="clip42">
  <rect width="600" height="461"/>
</clipPath>
<g id="surface129" clip-path="url(#clip42)">
<path style=" stroke:none;fill-rule:nonzero;fill:url(#linear3);" d="M 431.1875 330.960938 L 73.074219 330.960938 L 73.074219 362.296875 L 93.921875 362.296875 L 93.921875 460.910156 L 411.085938 460.910156 L 411.085938 362.296875 L 431.1875 362.296875 Z M 431.1875 330.960938 "/>
</g>
<mask id="mask42">
  <g filter="url(#alpha)">
<rect x="0" y="0" width="600" height="461" style="fill:rgb(0%,0%,0%);fill-opacity:0.101961;stroke:none;"/>
  </g>
</mask>
<clipPath id="clip43">
  <rect width="600" height="461"/>
</clipPath>
<g id="surface132" clip-path="url(#clip43)">
<path style=" stroke:none;fill-rule:nonzero;fill:rgb(0%,0%,0%);fill-opacity:1;" d="M 97.144531 355.050781 L 407.847656 355.050781 L 407.847656 372.570312 L 97.144531 372.570312 Z M 97.144531 355.050781 "/>
</g>
<mask id="mask43">
  <g filter="url(#alpha)">
<rect x="0" y="0" width="600" height="461" style="fill:rgb(0%,0%,0%);fill-opacity:0.701961;stroke:none;"/>
  </g>
</mask>
<linearGradient id="linear4" gradientUnits="userSpaceOnUse" x1="467.66" y1="592.77" x2="467.66" y2="390.97" gradientTransform="matrix(0.571429,0,0,0.57196,0,0)">
<stop offset="0" style="stop-color:rgb(50.196078%,50.196078%,50.196078%);stop-opacity:0.25098;"/>
<stop offset="0.54" style="stop-color:rgb(50.196078%,50.196078%,50.196078%);stop-opacity:0.121569;"/>
<stop offset="1" style="stop-color:rgb(50.196078%,50.196078%,50.196078%);stop-opacity:0.101961;"/>
</linearGradient>
<clipPath id="clip44">
  <rect width="600" height="461"/>
</clipPath>
<g id="surface135" clip-path="url(#clip44)">
<path style=" stroke:none;fill-rule:nonzero;fill:url(#linear4);" d="M 199.972656 223.621094 L 334.492188 223.621094 C 343.398438 223.621094 350.617188 230.847656 350.617188 239.761719 L 350.617188 322.898438 C 350.617188 331.816406 343.398438 339.039062 334.492188 339.039062 L 199.972656 339.039062 C 191.066406 339.039062 183.847656 331.816406 183.847656 322.898438 L 183.847656 239.761719 C 183.847656 230.847656 191.066406 223.621094 199.972656 223.621094 Z M 199.972656 223.621094 "/>
</g>
</defs>
<g id="surface1">
<use xlink:href="#surface6" mask="url(#mask0)"/>
<path style="fill:none;stroke-width:2;stroke-linecap:butt;stroke-linejoin:miter;stroke:rgb(32.54902%,32.941176%,38.039216%);stroke-opacity:1;stroke-miterlimit:10;" d="M 264.779297 659.290599 C 264.779297 659.290599 261.477539 561.531956 208.587891 506.287463 C 186.391602 483.107861 171.810547 453.67236 167.948242 421.812358 C 166.143555 406.691663 165.733398 391.434376 166.710938 376.238555 " transform="matrix(0.571429,0,0,0.57196,-42.857143,-26.927891)"/>
<path style=" stroke:none;fill-rule:nonzero;fill:rgb(42.352941%,38.823529%,100%);fill-opacity:1;" d="M 33.472656 168.257812 C 35.542969 174.503906 52.835938 188.851562 52.835938 188.851562 C 52.835938 188.851562 58.132812 166.996094 56.0625 160.753906 C 53.996094 154.511719 47.261719 151.128906 41.023438 153.199219 C 34.785156 155.269531 31.40625 162.011719 33.472656 168.253906 Z M 33.472656 168.257812 "/>
<path style=" stroke:none;fill-rule:nonzero;fill:rgb(42.352941%,38.823529%,100%);fill-opacity:1;" d="M 26.285156 209.035156 C 31.429688 213.152344 53.714844 215.792969 53.714844 215.792969 C 53.714844 215.792969 46.285156 194.570312 41.144531 190.457031 C 36.003906 186.675781 28.796875 187.625 24.808594 192.609375 C 20.820312 197.597656 21.472656 204.839844 26.285156 209.035156 Z M 26.285156 209.035156 "/>
<path style=" stroke:none;fill-rule:nonzero;fill:rgb(42.352941%,38.823529%,100%);fill-opacity:1;" d="M 46.65625 267.859375 C 53.160156 268.820312 73.75 259.851562 73.75 259.851562 C 73.75 259.851562 56.640625 245.28125 50.136719 244.320312 C 43.636719 243.355469 37.585938 247.851562 36.625 254.359375 C 35.664062 260.867188 40.15625 266.921875 46.65625 267.882812 Z M 46.65625 267.859375 "/>
<path style=" stroke:none;fill-rule:nonzero;fill:rgb(42.352941%,38.823529%,100%);fill-opacity:1;" d="M 72.097656 308.894531 C 78.34375 310.941406 100.152344 305.5625 100.152344 305.5625 C 100.152344 305.5625 85.75 288.308594 79.503906 286.261719 C 73.257812 284.207031 66.535156 287.609375 64.484375 293.859375 C 62.429688 300.109375 65.832031 306.839844 72.074219 308.894531 Z M 72.097656 308.894531 "/>
<path style=" stroke:none;fill-rule:nonzero;fill:rgb(42.352941%,38.823529%,100%);fill-opacity:1;" d="M 77.8125 209.132812 C 74.777344 214.964844 55.429688 226.394531 55.429688 226.394531 C 55.429688 226.394531 53.667969 203.976562 56.703125 198.136719 C 59.734375 192.304688 66.917969 190.035156 72.75 193.070312 C 78.578125 196.105469 80.84375 203.296875 77.8125 209.132812 Z M 77.8125 209.132812 "/>
<path style=" stroke:none;fill-rule:nonzero;fill:rgb(42.352941%,38.823529%,100%);fill-opacity:1;" d="M 106.960938 257.496094 C 102.320312 262.15625 80.445312 267.261719 80.445312 267.261719 C 80.445312 267.261719 85.46875 245.34375 90.101562 240.679688 C 94.742188 236.023438 102.273438 236.007812 106.929688 240.648438 C 111.582031 245.292969 111.597656 252.832031 106.960938 257.492188 Z M 106.960938 257.496094 "/>
<path style=" stroke:none;fill-rule:nonzero;fill:rgb(42.352941%,38.823529%,100%);fill-opacity:1;" d="M 128.847656 308.394531 C 125.0625 313.773438 104.359375 322.503906 104.359375 322.503906 C 104.359375 322.503906 105.605469 300.054688 109.394531 294.675781 C 111.78125 291.039062 115.957031 289 120.285156 289.347656 C 124.617188 289.695312 128.414062 292.375 130.191406 296.34375 C 131.96875 300.3125 131.445312 304.933594 128.824219 308.402344 Z M 128.847656 308.394531 "/>
<path style=" stroke:none;fill-rule:nonzero;fill:rgb(42.352941%,38.823529%,100%);fill-opacity:1;" d="M 374.035156 312.191406 C 374.035156 312.191406 364.960938 309.117188 360.59375 317.117188 C 358.253906 321.527344 358.328125 326.828125 360.789062 331.171875 C 363.644531 336.359375 369.566406 343.097656 380.789062 342.496094 C 390.285156 341.988281 393.417969 334.734375 394.285156 327.984375 C 394.953125 322.839844 392.902344 317.714844 388.863281 314.460938 C 384.828125 311.203125 379.390625 310.28125 374.507812 312.027344 Z M 374.035156 312.191406 "/>
<use xlink:href="#surface9" mask="url(#mask1)"/>
<use xlink:href="#surface12" mask="url(#mask2)"/>
<path style=" stroke:none;fill-rule:nonzero;fill:rgb(42.352941%,38.823529%,100%);fill-opacity:1;" d="M 368.628906 296.800781 C 368.628906 296.800781 374.394531 312.433594 373.914062 316.523438 L 378.484375 316.042969 C 378.484375 316.042969 370.792969 302.316406 372.71875 296.800781 Z M 368.628906 296.800781 "/>
<use xlink:href="#surface15" mask="url(#mask3)"/>
<path style=" stroke:none;fill-rule:nonzero;fill:rgb(42.352941%,38.823529%,100%);fill-opacity:1;" d="M 392.164062 298.105469 C 392.164062 298.105469 383.089844 293.460938 379.023438 297.300781 C 374.953125 301.136719 374.335938 310.945312 374.335938 310.945312 C 374.335938 310.945312 389.144531 312.980469 392.164062 298.105469 Z M 392.164062 298.105469 "/>
<use xlink:href="#surface18" mask="url(#mask4)"/>
<path style="fill:none;stroke-width:1;stroke-linecap:butt;stroke-linejoin:miter;stroke:rgb(42.352941%,38.823529%,100%);stroke-opacity:1;stroke-miterlimit:10;" d="M 730.101562 590.728421 C 730.101562 590.728421 734.271484 570.820188 761.287109 568.279583 " transform="matrix(0.571429,0,0,0.57196,-42.857143,-26.927891)"/>
<path style="fill:none;stroke-width:2;stroke-linecap:butt;stroke-linejoin:miter;stroke:rgb(32.54902%,32.941176%,38.039216%);stroke-opacity:1;stroke-miterlimit:10;" d="M 273.631836 471.593185 C 273.631836 471.593185 276.87207 418.732217 251.203125 386.250723 C 240.347656 372.694001 234.181641 355.988843 233.62793 338.628044 C 233.436523 330.384738 233.99707 322.141432 235.30957 314.00057 " transform="matrix(0.571429,0,0,0.57196,-42.857143,-26.927891)"/>
<path style=" stroke:none;fill-rule:nonzero;fill:rgb(42.352941%,38.823529%,100%);fill-opacity:1;" d="M 82.433594 140.90625 C 83.230469 144.378906 91.8125 153.003906 91.8125 153.003906 C 91.8125 153.003906 95.8125 141.496094 94.996094 138.03125 C 94.207031 134.554688 90.75 132.378906 87.28125 133.167969 C 83.808594 133.960938 81.632812 137.417969 82.421875 140.890625 Z M 82.433594 140.90625 "/>
<path style=" stroke:none;fill-rule:nonzero;fill:rgb(42.352941%,38.823529%,100%);fill-opacity:1;" d="M 76.457031 162.515625 C 79.011719 165 90.898438 167.574219 90.898438 167.574219 C 90.898438 167.574219 87.988281 155.75 85.433594 153.273438 C 82.882812 150.792969 78.804688 150.851562 76.324219 153.40625 C 73.847656 155.960938 73.90625 160.042969 76.457031 162.523438 Z M 76.457031 162.515625 "/>
<path style=" stroke:none;fill-rule:nonzero;fill:rgb(42.352941%,38.823529%,100%);fill-opacity:1;" d="M 84.429688 195.273438 C 87.855469 196.125 99.441406 192.339844 99.441406 192.339844 C 99.441406 192.339844 90.964844 183.605469 87.515625 182.753906 C 84.058594 181.898438 80.570312 184.011719 79.71875 187.46875 C 78.863281 190.925781 80.972656 194.421875 84.429688 195.273438 Z M 84.429688 195.273438 "/>
<path style=" stroke:none;fill-rule:nonzero;fill:rgb(42.352941%,38.823529%,100%);fill-opacity:1;" d="M 96.035156 218.6875 C 99.296875 220.113281 111.324219 218.335938 111.324219 218.335938 C 111.324219 218.335938 104.46875 208.289062 101.1875 206.894531 C 99.070312 205.917969 96.589844 206.164062 94.703125 207.539062 C 92.820312 208.914062 91.824219 211.203125 92.101562 213.519531 C 92.378906 215.835938 93.886719 217.824219 96.046875 218.710938 Z M 96.035156 218.6875 "/>
<path style=" stroke:none;fill-rule:nonzero;fill:rgb(42.352941%,38.823529%,100%);fill-opacity:1;" d="M 104.234375 165.222656 C 102.304688 168.214844 91.285156 173.371094 91.285156 173.371094 C 91.285156 173.371094 91.484375 161.203125 93.421875 158.210938 C 95.359375 155.222656 99.347656 154.367188 102.332031 156.304688 C 105.316406 158.242188 106.167969 162.234375 104.234375 165.222656 Z M 104.234375 165.222656 "/>
<path style=" stroke:none;fill-rule:nonzero;fill:rgb(42.352941%,38.823529%,100%);fill-opacity:1;" d="M 117.460938 192.785156 C 114.726562 195.074219 102.667969 196.6875 102.667969 196.6875 C 102.667969 196.6875 106.496094 185.132812 109.238281 182.855469 C 111.980469 180.582031 116.039062 180.964844 118.3125 183.703125 C 120.582031 186.445312 120.203125 190.511719 117.460938 192.785156 Z M 117.460938 192.785156 "/>
<path style=" stroke:none;fill-rule:nonzero;fill:rgb(42.352941%,38.823529%,100%);fill-opacity:1;" d="M 126.644531 221.34375 C 124.332031 224.046875 112.726562 227.691406 112.726562 227.691406 C 112.726562 227.691406 114.546875 215.679688 116.867188 212.953125 C 119.183594 210.25 123.253906 209.9375 125.953125 212.253906 C 128.65625 214.574219 128.96875 218.644531 126.652344 221.347656 Z M 126.644531 221.34375 "/>
<use xlink:href="#surface21" mask="url(#mask5)"/>
<use xlink:href="#surface24" mask="url(#mask6)"/>
<use xlink:href="#surface27" mask="url(#mask7)"/>
<use xlink:href="#surface30" mask="url(#mask8)"/>
<use xlink:href="#surface33" mask="url(#mask9)"/>
<use xlink:href="#surface36" mask="url(#mask10)"/>
<use xlink:href="#surface39" mask="url(#mask11)"/>
<path style=" stroke:none;fill-rule:nonzero;fill:url(#linear0);" d="M 288.285156 11.664062 L 288.285156 208.394531 L 576.8125 208.394531 L 576.8125 11.664062 Z M 288.285156 11.664062 "/>
<path style=" stroke:none;fill-rule:nonzero;fill:rgb(100%,100%,100%);fill-opacity:1;" d="M 292.566406 20.585938 L 573.753906 20.585938 L 573.753906 204.832031 L 292.566406 204.832031 Z M 292.566406 20.585938 "/>
<path style=" stroke:none;fill-rule:nonzero;fill:rgb(93.333333%,93.333333%,93.333333%);fill-opacity:1;" d="M 292.566406 11.824219 L 573.753906 11.824219 L 573.753906 25.378906 L 292.566406 25.378906 Z M 292.566406 11.824219 "/>
<path style=" stroke:none;fill-rule:nonzero;fill:rgb(100%,32.156863%,32.156863%);fill-opacity:1;" d="M 306.546875 18.394531 C 306.546875 20.210938 305.078125 21.683594 303.261719 21.683594 C 301.449219 21.683594 299.976562 20.210938 299.976562 18.394531 C 299.976562 16.578125 301.449219 15.105469 303.261719 15.105469 C 305.078125 15.105469 306.546875 16.578125 306.546875 18.394531 Z M 306.546875 18.394531 "/>
<path style=" stroke:none;fill-rule:nonzero;fill:rgb(100%,100%,0%);fill-opacity:1;" d="M 315.582031 18.394531 C 315.582031 20.210938 314.113281 21.683594 312.296875 21.683594 C 310.484375 21.683594 309.011719 20.210938 309.011719 18.394531 C 309.011719 16.578125 310.484375 15.105469 312.296875 15.105469 C 314.113281 15.105469 315.582031 16.578125 315.582031 18.394531 Z M 315.582031 18.394531 "/>
<path style=" stroke:none;fill-rule:nonzero;fill:rgb(41.176471%,94.117647%,68.235294%);fill-opacity:1;" d="M 324.613281 18.394531 C 324.613281 20.210938 323.140625 21.683594 321.324219 21.683594 C 319.511719 21.683594 318.039062 20.210938 318.039062 18.394531 C 318.039062 16.578125 319.511719 15.105469 321.324219 15.105469 C 323.140625 15.105469 324.613281 16.578125 324.613281 18.394531 Z M 324.613281 18.394531 "/>
<use xlink:href="#surface42" mask="url(#mask12)"/>
<use xlink:href="#surface45" mask="url(#mask13)"/>
<use xlink:href="#surface48" mask="url(#mask14)"/>
<use xlink:href="#surface51" mask="url(#mask15)"/>
<use xlink:href="#surface54" mask="url(#mask16)"/>
<use xlink:href="#surface57" mask="url(#mask17)"/>
<use xlink:href="#surface60" mask="url(#mask18)"/>
<path style=" stroke:none;fill-rule:nonzero;fill:rgb(93.333333%,93.333333%,93.333333%);fill-opacity:1;" d="M 436.703125 84.433594 L 560.144531 84.433594 L 560.144531 155.542969 L 436.703125 155.542969 Z M 436.703125 84.433594 "/>
<path style=" stroke:none;fill-rule:nonzero;fill:rgb(42.352941%,38.823529%,100%);fill-opacity:1;" d="M 505.765625 155.527344 L 436.703125 155.527344 L 436.703125 142.519531 C 453.578125 134.628906 479.539062 130.195312 505.765625 155.527344 Z M 505.765625 155.527344 "/>
<use xlink:href="#surface63" mask="url(#mask19)"/>
<path style=" stroke:none;fill-rule:nonzero;fill:rgb(42.352941%,38.823529%,100%);fill-opacity:1;" d="M 560.144531 153.6875 L 560.144531 155.527344 L 474.011719 155.527344 L 474.011719 155.132812 C 474.011719 155.132812 516.394531 113.847656 560.144531 153.6875 Z M 560.144531 153.6875 "/>
<path style=" stroke:none;fill-rule:nonzero;fill:rgb(42.352941%,38.823529%,100%);fill-opacity:1;" d="M 457.34375 97.148438 C 457.34375 100.65625 454.5 103.5 450.996094 103.5 C 447.488281 103.5 444.644531 100.65625 444.644531 97.148438 C 444.644531 93.636719 447.488281 90.792969 450.996094 90.792969 C 454.5 90.792969 457.34375 93.636719 457.34375 97.148438 Z M 457.34375 97.148438 "/>
<path style=" stroke:none;fill-rule:nonzero;fill:rgb(95.686275%,95.686275%,95.686275%);fill-opacity:1;" d="M 505.058594 92.332031 C 504.332031 92.332031 503.519531 92.332031 502.972656 92.378906 C 502.722656 92.390625 502.480469 92.441406 502.246094 92.527344 L 498.507812 93.871094 C 501.527344 93.945312 504.675781 93.921875 507.761719 93.871094 L 525.097656 93.738281 C 526.863281 93.738281 528.726562 93.710938 530.199219 93.601562 C 531.1875 93.53125 531.914062 93.425781 532.824219 93.34375 C 536.101562 93.050781 540.890625 93.109375 545.164062 93.121094 C 549.441406 93.132812 554.601562 93.023438 556.101562 92.59375 L 546.929688 92.59375 C 545.941406 92.59375 544.902344 92.59375 544.027344 92.542969 C 543.003906 92.484375 542.382812 92.371094 541.484375 92.292969 C 540 92.164062 537.953125 92.148438 536.046875 92.144531 C 525.601562 92.136719 515.273438 92.390625 505.058594 92.332031 Z M 505.058594 92.332031 "/>
<path style=" stroke:none;fill-rule:nonzero;fill:rgb(95.686275%,95.686275%,95.686275%);fill-opacity:1;" d="M 515.347656 100.046875 C 515.1875 100.046875 515.015625 100.046875 514.898438 100.046875 C 514.84375 100.050781 514.792969 100.0625 514.742188 100.082031 L 513.929688 100.375 C 514.582031 100.375 515.269531 100.375 515.9375 100.375 L 519.691406 100.34375 C 520.074219 100.34375 520.472656 100.34375 520.792969 100.316406 L 521.367188 100.257812 C 522.074219 100.195312 523.113281 100.207031 524.039062 100.214844 C 524.832031 100.238281 525.625 100.203125 526.410156 100.097656 L 524.421875 100.097656 C 524.207031 100.097656 523.984375 100.097656 523.792969 100.097656 C 523.605469 100.097656 523.441406 100.058594 523.222656 100.046875 C 522.902344 100.046875 522.457031 100.019531 522.046875 100.011719 C 519.792969 100 517.558594 100.046875 515.347656 100.046875 Z M 515.347656 100.046875 "/>
<path style=" stroke:none;fill-rule:nonzero;fill:rgb(95.686275%,95.686275%,95.686275%);fill-opacity:1;" d="M 488.753906 111.167969 C 488.59375 111.167969 488.421875 111.167969 488.304688 111.167969 C 488.25 111.171875 488.199219 111.183594 488.148438 111.199219 L 487.335938 111.492188 C 487.988281 111.492188 488.675781 111.492188 489.34375 111.492188 L 493.097656 111.464844 C 493.480469 111.464844 493.878906 111.464844 494.199219 111.433594 L 494.769531 111.378906 C 495.480469 111.316406 496.519531 111.328125 497.445312 111.332031 C 498.238281 111.359375 499.03125 111.320312 499.816406 111.21875 L 497.828125 111.21875 C 497.613281 111.21875 497.386719 111.21875 497.199219 111.21875 C 497.011719 111.21875 496.847656 111.175781 496.628906 111.167969 C 496.308594 111.167969 495.863281 111.136719 495.453125 111.132812 C 493.207031 111.125 490.964844 111.175781 488.753906 111.167969 Z M 488.753906 111.167969 "/>
<path style=" stroke:none;fill-rule:nonzero;fill:rgb(42.352941%,38.823529%,100%);fill-opacity:1;" d="M 473.816406 152.019531 L 470.855469 152.019531 C 470.855469 152.019531 469.925781 119.351562 473.839844 109.265625 L 474.589844 109.265625 C 474.589844 109.265625 471.953125 146.238281 473.816406 152.019531 Z M 473.816406 152.019531 "/>
<path style=" stroke:none;fill-rule:nonzero;fill:rgb(42.352941%,38.823529%,100%);fill-opacity:1;" d="M 471.765625 107.589844 C 471.765625 107.589844 469.34375 114.3125 470.460938 117.316406 C 470.460938 117.316406 472.144531 111.15625 474.101562 110.222656 C 476.0625 109.289062 478.101562 117.316406 478.101562 117.316406 C 478.101562 117.316406 479.246094 112.277344 477.171875 108.164062 C 479.796875 109.71875 481.929688 111.980469 483.324219 114.695312 C 483.324219 114.695312 483.695312 111.894531 478.851562 106.117188 C 478.851562 106.117188 483.144531 107.257812 485.9375 109.851562 C 485.9375 109.851562 486.867188 107.796875 481.085938 104.433594 C 481.085938 104.433594 481.835938 102.007812 486.308594 103.128906 C 486.308594 103.128906 486.308594 99.957031 479.222656 100.515625 C 479.222656 100.515625 479.222656 98.464844 483.886719 98.835938 C 483.886719 98.835938 483.886719 96.222656 478.472656 97.152344 C 478.472656 97.152344 479.617188 95.472656 480.335938 95.101562 C 479.402344 95.015625 478.472656 95.28125 477.726562 95.847656 C 477.726562 95.847656 477.914062 92.484375 475.113281 91.183594 L 474.742188 95.847656 C 474.742188 95.847656 471.605469 92.148438 472.320312 92.863281 C 472.769531 93.988281 472.964844 95.199219 472.890625 96.410156 C 472.890625 96.410156 469.71875 93.796875 465.804688 96.597656 C 465.804688 96.597656 470.65625 96.96875 471.398438 98.652344 C 471.398438 98.652344 467.296875 97.902344 466.367188 98.464844 C 466.367188 98.464844 469.539062 99.605469 469.347656 100.328125 C 469.347656 100.328125 463.753906 100.328125 463.003906 102.382812 C 463.003906 102.382812 468.789062 103.128906 469.160156 103.683594 C 469.160156 103.683594 462.445312 108.539062 462.074219 109.84375 C 462.074219 109.84375 468.976562 105.738281 470.074219 105.738281 C 471.171875 105.738281 465.039062 111.714844 465.410156 113.207031 C 465.429688 113.203125 470.460938 107.214844 471.765625 107.589844 Z M 471.765625 107.589844 "/>
<path style=" stroke:none;fill-rule:nonzero;fill:rgb(42.352941%,38.823529%,100%);fill-opacity:1;" d="M 510.632812 150.804688 L 512.921875 150.804688 C 512.921875 150.804688 513.632812 125.84375 510.632812 118.136719 L 510.0625 118.136719 C 510.0625 118.136719 512.058594 146.375 510.632812 150.804688 Z M 510.632812 150.804688 "/>
<path style=" stroke:none;fill-rule:nonzero;fill:rgb(42.352941%,38.823529%,100%);fill-opacity:1;" d="M 512.199219 116.851562 C 512.199219 116.851562 514.050781 122 513.199219 124.285156 C 513.199219 124.285156 511.921875 119.578125 510.421875 118.863281 C 508.925781 118.148438 507.359375 124.285156 507.359375 124.285156 C 507.359375 124.285156 506.503906 120.4375 508.074219 117.296875 C 506.070312 118.484375 504.4375 120.214844 503.371094 122.289062 C 503.371094 122.289062 503.085938 120.152344 506.800781 115.730469 C 506.800781 115.730469 503.519531 116.589844 501.382812 118.589844 C 501.382812 118.589844 500.667969 117.023438 505.085938 114.453125 C 505.085938 114.453125 504.515625 112.601562 501.085938 113.453125 C 501.085938 113.453125 501.085938 111.027344 506.503906 111.457031 C 506.503906 111.457031 506.503906 109.890625 502.941406 110.175781 C 502.941406 110.175781 502.941406 108.179688 507.074219 108.894531 C 506.691406 108.296875 506.210938 107.765625 505.652344 107.328125 C 506.363281 107.261719 507.074219 107.464844 507.644531 107.898438 C 507.644531 107.898438 507.503906 105.332031 509.640625 104.335938 L 509.925781 107.898438 C 509.925781 107.898438 512.320312 105.074219 511.777344 105.613281 C 511.4375 106.472656 511.289062 107.398438 511.347656 108.324219 C 511.347656 108.324219 513.769531 106.328125 516.765625 108.464844 C 516.765625 108.464844 513.0625 108.753906 512.492188 110.035156 C 512.492188 110.035156 515.628906 109.460938 516.335938 109.890625 C 516.335938 109.890625 513.914062 110.75 514.050781 111.316406 C 514.050781 111.316406 518.324219 111.316406 518.898438 112.882812 C 518.898438 112.882812 514.480469 113.453125 514.195312 113.882812 C 514.195312 113.882812 519.335938 117.589844 519.613281 118.589844 C 519.613281 118.589844 514.335938 115.449219 513.484375 115.449219 C 512.632812 115.449219 517.332031 120.027344 517.046875 121.167969 C 517.046875 121.128906 513.199219 116.566406 512.199219 116.851562 Z M 512.199219 116.851562 "/>
<path style=" stroke:none;fill-rule:nonzero;fill:rgb(42.352941%,38.823529%,100%);fill-opacity:1;" d="M 537.914062 145.925781 L 539.324219 145.925781 C 539.324219 145.925781 539.765625 130.480469 537.914062 125.695312 L 537.558594 125.695312 C 537.558594 125.695312 538.792969 143.183594 537.914062 145.925781 Z M 537.914062 145.925781 "/>
<path style=" stroke:none;fill-rule:nonzero;fill:rgb(42.352941%,38.823529%,100%);fill-opacity:1;" d="M 538.855469 124.898438 C 538.855469 124.898438 540 128.078125 539.472656 129.476562 C 539.472656 129.476562 538.679688 126.558594 537.761719 126.117188 C 536.839844 125.675781 535.863281 129.476562 535.863281 129.476562 C 535.570312 128.019531 535.722656 126.511719 536.304688 125.144531 C 535.058594 125.882812 534.050781 126.953125 533.386719 128.238281 C 533.386719 128.238281 533.210938 126.914062 535.507812 124.179688 C 534.277344 124.519531 533.132812 125.125 532.152344 125.945312 C 532.152344 125.945312 531.714844 124.972656 534.441406 123.382812 C 534.441406 123.382812 534.085938 122.238281 531.972656 122.765625 C 531.972656 122.765625 531.972656 121.261719 535.324219 121.53125 C 535.324219 121.53125 535.324219 120.558594 533.121094 120.734375 C 533.121094 120.734375 533.121094 119.5 535.679688 119.941406 C 535.445312 119.566406 535.144531 119.238281 534.800781 118.96875 C 535.242188 118.929688 535.679688 119.054688 536.035156 119.324219 C 535.992188 118.410156 536.46875 117.554688 537.269531 117.113281 L 537.445312 119.324219 C 537.445312 119.324219 538.929688 117.570312 538.589844 117.910156 C 538.378906 118.441406 538.289062 119.015625 538.324219 119.585938 C 539.332031 118.847656 540.710938 118.882812 541.679688 119.671875 C 541.679688 119.671875 539.394531 119.847656 539.035156 120.644531 C 539.035156 120.644531 540.976562 120.289062 541.417969 120.558594 C 541.417969 120.558594 539.914062 121.089844 540.003906 121.4375 C 540.003906 121.4375 542.652344 121.4375 543.003906 122.410156 C 543.003906 122.410156 540.269531 122.765625 540.089844 123.027344 C 540.089844 123.027344 543.269531 125.316406 543.445312 125.945312 C 543.445312 125.945312 540.183594 124 539.652344 124 C 539.121094 124 542.035156 126.828125 541.855469 127.535156 C 541.886719 127.546875 539.503906 124.722656 538.855469 124.898438 Z M 538.855469 124.898438 "/>
<path style=" stroke:none;fill-rule:nonzero;fill:url(#linear1);" d="M 486.285156 128.445312 L 485.988281 126.855469 C 485.988281 126.621094 485.890625 126.394531 485.71875 126.230469 L 484.34375 125.558594 C 484.242188 125.433594 484.15625 125.292969 484.097656 125.144531 L 484.097656 125.109375 C 484.175781 125.015625 484.230469 124.902344 484.257812 124.785156 C 484.257812 124.753906 484.257812 124.722656 484.257812 124.691406 C 484.527344 124.730469 484.777344 124.550781 484.828125 124.28125 L 484.828125 124.246094 C 484.773438 124.460938 484.585938 124.617188 484.367188 124.628906 C 484.746094 124.375 484.980469 123.945312 484.988281 123.484375 C 484.988281 123.484375 484.988281 123.445312 484.988281 123.429688 C 485.113281 123.351562 485.195312 123.226562 485.222656 123.085938 L 485.222656 123.050781 C 485.1875 123.1875 485.101562 123.304688 484.976562 123.371094 C 484.964844 123.242188 484.9375 123.113281 484.890625 122.988281 L 484.925781 122.988281 C 485.207031 122.988281 485.433594 122.761719 485.433594 122.480469 C 485.433594 122.480469 485.433594 122.480469 485.433594 122.445312 C 485.417969 122.714844 485.195312 122.921875 484.925781 122.921875 L 484.863281 122.921875 C 485.167969 122.820312 485.390625 122.558594 485.433594 122.238281 C 485.433594 122.238281 485.433594 122.238281 485.433594 122.203125 C 485.425781 122.304688 485.390625 122.398438 485.332031 122.480469 C 485.371094 122.199219 485.179688 121.941406 484.898438 121.898438 C 484.621094 121.859375 484.359375 122.050781 484.320312 122.332031 L 484.230469 122.28125 C 484.289062 122.070312 484.472656 121.917969 484.691406 121.90625 L 484.65625 121.90625 C 484.4375 121.902344 484.238281 122.042969 484.164062 122.25 C 483.53125 121.957031 482.777344 122.171875 482.394531 122.761719 C 482.285156 122.839844 482.148438 122.953125 482.152344 123.050781 C 482.109375 123.097656 482.070312 123.148438 482.035156 123.199219 C 481.882812 123.53125 481.828125 123.898438 481.875 124.257812 C 481.914062 124.621094 481.777344 124.984375 481.507812 125.230469 C 481.628906 125.28125 481.765625 125.28125 481.886719 125.230469 C 482.003906 125.179688 482.117188 125.117188 482.21875 125.035156 C 482.3125 124.980469 482.390625 124.902344 482.453125 124.8125 C 482.519531 124.855469 482.589844 124.894531 482.664062 124.921875 C 482.691406 125.160156 482.695312 125.4375 482.59375 125.523438 L 482.59375 125.476562 C 482.335938 125.671875 482.019531 125.761719 481.695312 125.734375 C 481.3125 125.757812 480.964844 125.972656 480.769531 126.304688 L 480.34375 128.140625 L 480.34375 128.199219 C 480.355469 128.25 480.394531 128.289062 480.445312 128.300781 L 480.578125 128.335938 C 480.621094 128.628906 480.621094 128.925781 480.570312 129.21875 C 480.480469 129.660156 480.429688 130.113281 480.417969 130.566406 C 480.453125 130.796875 480.507812 131.972656 480.53125 132.535156 C 480.484375 132.722656 480.445312 132.914062 480.417969 133.105469 L 479.777344 136.945312 C 479.777344 136.945312 479.304688 140.015625 479.324219 140.949219 L 479.238281 141.484375 C 479.238281 141.484375 477.941406 143.117188 478.324219 143.34375 C 478.707031 143.574219 479.292969 143.675781 479.851562 142.808594 C 479.925781 142.601562 480.046875 142.417969 480.207031 142.269531 C 480.332031 142.15625 480.398438 141.992188 480.382812 141.824219 L 480.34375 141.445312 L 480.453125 141.445312 C 480.804688 140.289062 480.996094 139.085938 481.023438 137.875 C 481.023438 137.875 482.207031 133.65625 483.109375 132.992188 L 483.195312 132.953125 L 483.386719 137.035156 L 483.195312 141.542969 L 483.152344 141.8125 C 483.152344 141.8125 481.855469 143.441406 482.238281 143.671875 C 482.621094 143.898438 483.207031 144.003906 483.765625 143.132812 C 483.839844 142.929688 483.960938 142.746094 484.121094 142.59375 C 484.246094 142.484375 484.3125 142.316406 484.296875 142.148438 L 484.238281 141.578125 C 484.460938 140.824219 485.039062 138.632812 484.8125 137.367188 L 485.207031 134.671875 C 485.605469 134.226562 485.546875 133.089844 485.546875 133.089844 C 485.863281 132.4375 485.929688 129.863281 485.929688 129.863281 L 486.011719 128.59375 L 486.25 128.59375 L 486.28125 128.558594 L 486.28125 128.53125 Z M 485.175781 131.023438 C 485.144531 130.9375 485.101562 130.847656 485.058594 130.761719 L 485.023438 130.761719 L 485.023438 130.664062 C 485.039062 130.621094 485.054688 130.578125 485.070312 130.53125 C 485.121094 130.449219 485.144531 130.355469 485.144531 130.257812 C 485.199219 130.507812 485.21875 130.769531 485.199219 131.023438 Z M 485.058594 129.9375 L 484.976562 129.085938 L 484.976562 129.015625 L 485.085938 130.097656 Z M 481.292969 130.050781 C 481.238281 130.117188 481.210938 130.199219 481.222656 130.28125 C 481.222656 130.367188 481.234375 130.453125 481.257812 130.539062 L 481.132812 131.070312 L 481.132812 130.050781 C 481.210938 129.945312 481.28125 129.828125 481.34375 129.710938 C 481.371094 129.824219 481.363281 129.941406 481.320312 130.050781 Z M 481.292969 130.050781 "/>
<path style=" stroke:none;fill-rule:nonzero;fill:rgb(44.705882%,20.784314%,10.980392%);fill-opacity:1;" d="M 482.121094 123.496094 C 481.976562 123.816406 481.921875 124.167969 481.964844 124.515625 C 482.007812 124.867188 481.875 125.21875 481.613281 125.453125 C 481.726562 125.5 481.855469 125.5 481.972656 125.453125 C 482.085938 125.40625 482.195312 125.34375 482.292969 125.265625 C 482.382812 125.210938 482.457031 125.136719 482.515625 125.046875 C 482.570312 124.910156 482.585938 124.761719 482.566406 124.613281 C 482.566406 124.355469 482.589844 124.097656 482.632812 123.839844 C 482.632812 123.679688 482.8125 123.269531 482.632812 123.164062 C 482.457031 123.0625 482.199219 123.371094 482.121094 123.496094 Z M 482.121094 123.496094 "/>
<path style=" stroke:none;fill-rule:nonzero;fill:rgb(20%,20%,20%);fill-opacity:1;" d="M 479.496094 140.375 L 479.378906 141.160156 C 479.378906 141.160156 478.125 142.734375 478.496094 142.949219 C 478.867188 143.167969 479.429688 143.269531 479.964844 142.433594 C 480.039062 142.238281 480.15625 142.0625 480.308594 141.921875 C 480.429688 141.8125 480.496094 141.652344 480.480469 141.492188 L 480.359375 140.277344 Z M 479.496094 140.375 "/>
<path style=" stroke:none;fill-rule:nonzero;fill:rgb(20%,20%,20%);fill-opacity:1;" d="M 483.261719 140.691406 L 483.144531 141.472656 C 483.144531 141.472656 481.890625 143.046875 482.261719 143.265625 C 482.632812 143.480469 483.195312 143.585938 483.730469 142.75 C 483.804688 142.554688 483.921875 142.378906 484.074219 142.234375 C 484.195312 142.128906 484.261719 141.96875 484.246094 141.804688 L 484.125 140.59375 Z M 483.261719 140.691406 "/>
<path style=" stroke:none;fill-rule:nonzero;fill:rgb(30.196078%,54.117647%,94.117647%);fill-opacity:1;" d="M 481.3125 131.191406 C 481.3125 131.191406 480.742188 131.613281 480.507812 133.09375 L 479.890625 136.789062 C 479.667969 138.113281 479.527344 139.453125 479.46875 140.792969 L 480.507812 141.148438 C 480.855469 140.035156 481.046875 138.882812 481.078125 137.714844 C 481.078125 137.714844 482.332031 133.261719 483.207031 132.945312 L 483.386719 136.882812 L 483.195312 141.320312 L 484.085938 141.496094 C 484.085938 141.496094 484.988281 138.675781 484.703125 137.183594 L 485.164062 134.011719 C 485.464844 132.964844 485.390625 131.847656 484.960938 130.847656 Z M 481.3125 131.191406 "/>
<use xlink:href="#surface66" mask="url(#mask20)"/>
<path style=" stroke:none;fill-rule:nonzero;fill:rgb(96.078431%,37.254902%,26.666667%);fill-opacity:1;" d="M 480.515625 128.296875 C 480.511719 128.359375 480.554688 128.414062 480.617188 128.429688 C 480.902344 128.496094 481.171875 128.625 481.40625 128.804688 C 481.847656 129.148438 480.941406 128.117188 480.941406 128.117188 L 480.640625 128.1875 Z M 480.515625 128.296875 "/>
<use xlink:href="#surface69" mask="url(#mask21)"/>
<path style=" stroke:none;fill-rule:nonzero;fill:rgb(96.078431%,37.254902%,26.666667%);fill-opacity:1;" d="M 484.8125 129.21875 C 485.179688 128.953125 485.605469 128.785156 486.050781 128.726562 C 486.113281 128.726562 486.164062 128.675781 486.164062 128.609375 C 485.90625 128.492188 485.609375 128.492188 485.351562 128.609375 C 485.09375 128.722656 484.894531 128.945312 484.8125 129.21875 Z M 484.8125 129.21875 "/>
<use xlink:href="#surface72" mask="url(#mask22)"/>
<path style=" stroke:none;fill-rule:nonzero;fill:rgb(44.705882%,20.784314%,10.980392%);fill-opacity:1;" d="M 484.960938 123.804688 C 484.960938 124.554688 484.355469 125.160156 483.605469 125.160156 C 482.859375 125.160156 482.25 124.554688 482.25 123.804688 C 482.25 123.058594 482.859375 122.449219 483.605469 122.449219 C 484.355469 122.449219 484.960938 123.058594 484.960938 123.804688 Z M 484.960938 123.804688 "/>
<path style=" stroke:none;fill-rule:nonzero;fill:rgb(99.215686%,71.764706%,59.215686%);fill-opacity:1;" d="M 482.667969 124.757812 C 482.667969 124.757812 482.863281 125.550781 482.667969 125.71875 C 482.472656 125.882812 482.097656 126.179688 482.382812 126.414062 C 482.667969 126.648438 483.707031 127.042969 484.050781 126.855469 C 484.394531 126.667969 484.789062 126.71875 484.695312 126.324219 C 484.605469 125.929688 483.851562 126.007812 483.835938 124.035156 Z M 482.667969 124.757812 "/>
<use xlink:href="#surface75" mask="url(#mask23)"/>
<path style=" stroke:none;fill-rule:nonzero;fill:rgb(99.215686%,71.764706%,59.215686%);fill-opacity:1;" d="M 480.738281 128.074219 C 480.765625 128.503906 480.738281 128.9375 480.65625 129.359375 C 480.570312 129.789062 480.519531 130.222656 480.507812 130.660156 C 480.546875 130.945312 480.632812 132.835938 480.632812 132.835938 C 480.632812 132.835938 480.484375 134.496094 481.292969 134.34375 C 482.097656 134.1875 481.164062 132.453125 481.164062 132.453125 L 481.207031 130.167969 C 481.429688 129.871094 481.570312 129.523438 481.617188 129.15625 C 481.65625 128.644531 480.738281 128.074219 480.738281 128.074219 Z M 480.738281 128.074219 "/>
<use xlink:href="#surface78" mask="url(#mask24)"/>
<path style=" stroke:none;fill-rule:nonzero;fill:rgb(99.215686%,71.764706%,59.215686%);fill-opacity:1;" d="M 485.910156 128.183594 L 485.800781 129.949219 C 485.800781 129.949219 485.730469 132.425781 485.429688 133.054688 C 485.429688 133.054688 485.507812 134.769531 484.703125 134.769531 C 483.898438 134.769531 484.839844 132.867188 484.839844 132.867188 C 484.839844 132.867188 485.273438 130.933594 485.050781 130.316406 L 484.839844 128.195312 Z M 485.910156 128.183594 "/>
<use xlink:href="#surface81" mask="url(#mask25)"/>
<use xlink:href="#surface84" mask="url(#mask26)"/>
<path style=" stroke:none;fill-rule:nonzero;fill:rgb(96.078431%,37.254902%,26.666667%);fill-opacity:1;" d="M 483.355469 126.464844 C 483.53125 126.511719 484.011719 126.570312 484.296875 125.847656 L 485.628906 126.5 C 485.792969 126.65625 485.886719 126.875 485.886719 127.101562 L 486.171875 128.632812 C 485.925781 128.539062 485.652344 128.542969 485.414062 128.652344 C 485.175781 128.757812 484.988281 128.960938 484.898438 129.207031 L 484.976562 130.070312 C 485.042969 130.28125 485.027344 130.511719 484.9375 130.714844 C 484.921875 130.753906 484.921875 130.792969 484.9375 130.832031 C 484.984375 130.957031 484.96875 131.101562 484.894531 131.214844 C 484.816406 131.328125 484.691406 131.398438 484.554688 131.402344 C 484.195312 131.40625 483.839844 131.433594 483.484375 131.480469 C 483.199219 131.5625 482.34375 131.316406 482.050781 131.480469 C 481.761719 131.648438 481.160156 131.355469 481.160156 131.355469 L 481.324219 130.660156 C 481.324219 130.660156 481.21875 130.316406 481.324219 130.195312 C 481.429688 129.699219 481.40625 129.1875 481.257812 128.703125 C 481.257812 128.703125 480.765625 128.238281 480.480469 128.320312 L 480.890625 126.550781 C 481.066406 126.21875 481.40625 126 481.78125 125.980469 C 482.089844 126.007812 482.398438 125.921875 482.644531 125.734375 C 482.644531 125.734375 482.324219 126.304688 483.171875 126.449219 Z M 483.355469 126.464844 "/>
<use xlink:href="#surface87" mask="url(#mask27)"/>
<path style=" stroke:none;fill-rule:nonzero;fill:rgb(99.215686%,71.764706%,59.215686%);fill-opacity:1;" d="M 484.273438 124.09375 C 484.273438 124.710938 483.773438 125.214844 483.152344 125.214844 C 482.535156 125.214844 482.035156 124.710938 482.035156 124.09375 C 482.035156 123.472656 482.535156 122.972656 483.152344 122.972656 C 483.773438 122.972656 484.273438 123.472656 484.273438 124.09375 Z M 484.273438 124.09375 "/>
<path style=" stroke:none;fill-rule:nonzero;fill:rgb(44.705882%,20.784314%,10.980392%);fill-opacity:1;" d="M 485.304688 122.738281 C 485.304688 123.007812 485.082031 123.230469 484.8125 123.230469 C 484.539062 123.230469 484.320312 123.007812 484.320312 122.738281 C 484.320312 122.464844 484.539062 122.246094 484.8125 122.246094 C 485.082031 122.246094 485.304688 122.464844 485.304688 122.738281 Z M 485.304688 122.738281 "/>
<path style=" stroke:none;fill-rule:nonzero;fill:rgb(44.705882%,20.784314%,10.980392%);fill-opacity:1;" d="M 484.902344 123.257812 C 484.644531 123.257812 484.429688 123.058594 484.410156 122.800781 C 484.410156 122.800781 484.410156 122.800781 484.410156 122.835938 C 484.410156 123.105469 484.632812 123.324219 484.902344 123.324219 C 485.175781 123.324219 485.394531 123.105469 485.394531 122.835938 C 485.394531 122.835938 485.394531 122.835938 485.394531 122.800781 C 485.375 123.058594 485.160156 123.257812 484.902344 123.257812 Z M 484.902344 123.257812 "/>
<path style=" stroke:none;fill-rule:nonzero;fill:rgb(44.705882%,20.784314%,10.980392%);fill-opacity:1;" d="M 484.621094 123.75 C 484.371094 123.703125 484.195312 123.46875 484.222656 123.210938 L 484.222656 123.246094 C 484.175781 123.515625 484.351562 123.773438 484.621094 123.820312 C 484.886719 123.871094 485.144531 123.691406 485.195312 123.421875 L 485.195312 123.390625 C 485.128906 123.640625 484.878906 123.800781 484.621094 123.75 Z M 484.621094 123.75 "/>
<path style=" stroke:none;fill-rule:nonzero;fill:rgb(44.705882%,20.784314%,10.980392%);fill-opacity:1;" d="M 484.238281 124.925781 C 483.988281 124.882812 483.8125 124.644531 483.839844 124.390625 L 483.839844 124.425781 C 483.792969 124.691406 483.96875 124.949219 484.238281 125 C 484.503906 125.046875 484.761719 124.871094 484.8125 124.601562 L 484.8125 124.566406 C 484.746094 124.820312 484.496094 124.976562 484.238281 124.925781 Z M 484.238281 124.925781 "/>
<path style=" stroke:none;fill-rule:nonzero;fill:rgb(44.705882%,20.784314%,10.980392%);fill-opacity:1;" d="M 484.902344 123 C 484.644531 123 484.429688 122.800781 484.410156 122.542969 C 484.410156 122.542969 484.410156 122.542969 484.410156 122.578125 C 484.410156 122.847656 484.632812 123.070312 484.902344 123.070312 C 485.175781 123.070312 485.394531 122.847656 485.394531 122.578125 C 485.394531 122.578125 485.394531 122.578125 485.394531 122.542969 C 485.375 122.800781 485.160156 123 484.902344 123 Z M 484.902344 123 "/>
<path style=" stroke:none;fill-rule:nonzero;fill:rgb(44.705882%,20.784314%,10.980392%);fill-opacity:1;" d="M 484.21875 122.730469 C 484.21875 122.472656 484.421875 122.261719 484.679688 122.246094 L 484.644531 122.246094 C 484.375 122.246094 484.152344 122.464844 484.152344 122.738281 C 484.152344 123.007812 484.375 123.230469 484.644531 123.230469 L 484.679688 123.230469 C 484.417969 123.214844 484.214844 122.996094 484.21875 122.730469 Z M 484.21875 122.730469 "/>
<use xlink:href="#surface90" mask="url(#mask28)"/>
<use xlink:href="#surface93" mask="url(#mask29)"/>
<use xlink:href="#surface96" mask="url(#mask30)"/>
<use xlink:href="#surface99" mask="url(#mask31)"/>
<path style=" stroke:none;fill-rule:nonzero;fill:rgb(99.215686%,71.764706%,59.215686%);fill-opacity:1;" d="M 480.753906 135.101562 L 481.136719 135.101562 C 481.269531 135.101562 481.378906 135.210938 481.378906 135.34375 L 481.378906 135.394531 C 481.378906 135.527344 481.269531 135.632812 481.136719 135.632812 L 480.753906 135.632812 C 480.621094 135.632812 480.515625 135.527344 480.515625 135.394531 L 480.515625 135.34375 C 480.515625 135.210938 480.621094 135.101562 480.753906 135.101562 Z M 480.753906 135.101562 "/>
<path style=" stroke:none;fill-rule:nonzero;fill:rgb(94.117647%,89.411765%,89.411765%);fill-opacity:1;" d="M 480.515625 135.238281 L 480.976562 135.238281 L 481.378906 135.304688 L 481.234375 135.304688 Z M 480.515625 135.238281 "/>
<path style=" stroke:none;fill-rule:nonzero;fill:rgb(94.117647%,89.411765%,89.411765%);fill-opacity:1;" d="M 483.617188 133.019531 L 484.078125 133.019531 L 484.480469 133.0625 L 484.335938 133.0625 Z M 483.617188 133.019531 "/>
<path style=" stroke:none;fill-rule:nonzero;fill:rgb(94.117647%,89.411765%,89.411765%);fill-opacity:1;" d="M 483.617188 133.117188 L 484.078125 133.117188 L 484.480469 133.15625 L 484.335938 133.15625 Z M 483.617188 133.117188 "/>
<path style=" stroke:none;fill-rule:nonzero;fill:rgb(94.117647%,89.411765%,89.411765%);fill-opacity:1;" d="M 483.617188 133.222656 L 484.078125 133.222656 L 484.480469 133.261719 L 484.335938 133.261719 Z M 483.617188 133.222656 "/>
<path style=" stroke:none;fill-rule:nonzero;fill:rgb(94.117647%,89.411765%,89.411765%);fill-opacity:1;" d="M 483.617188 133.308594 L 484.078125 133.308594 L 484.480469 133.347656 L 484.335938 133.347656 Z M 483.617188 133.308594 "/>
<path style=" stroke:none;fill-rule:nonzero;fill:rgb(94.117647%,89.411765%,89.411765%);fill-opacity:1;" d="M 480.515625 135.617188 L 480.976562 135.617188 L 481.378906 135.664062 L 481.234375 135.664062 Z M 480.515625 135.617188 "/>
<path style=" stroke:none;fill-rule:nonzero;fill:rgb(94.117647%,89.411765%,89.411765%);fill-opacity:1;" d="M 480.515625 135.570312 L 480.976562 135.570312 L 481.378906 135.617188 L 481.234375 135.617188 Z M 480.515625 135.570312 "/>
<path style=" stroke:none;fill-rule:nonzero;fill:rgb(94.117647%,89.411765%,89.411765%);fill-opacity:1;" d="M 480.515625 135.507812 L 480.976562 135.507812 L 481.378906 135.554688 L 481.234375 135.554688 Z M 480.515625 135.507812 "/>
<path style=" stroke:none;fill-rule:nonzero;fill:rgb(94.117647%,89.411765%,89.411765%);fill-opacity:1;" d="M 480.515625 135.472656 L 480.976562 135.472656 L 481.378906 135.519531 L 481.234375 135.519531 Z M 480.515625 135.472656 "/>
<path style=" stroke:none;fill-rule:nonzero;fill:rgb(94.117647%,89.411765%,89.411765%);fill-opacity:1;" d="M 480.515625 135.175781 L 480.976562 135.175781 L 481.378906 135.238281 L 481.234375 135.238281 Z M 480.515625 135.175781 "/>
<path style=" stroke:none;fill-rule:nonzero;fill:rgb(94.117647%,89.411765%,89.411765%);fill-opacity:1;" d="M 480.515625 135.097656 L 480.976562 135.097656 L 481.378906 135.160156 L 481.234375 135.160156 Z M 480.515625 135.097656 "/>
<use xlink:href="#surface102" mask="url(#mask32)"/>
<path style=" stroke:none;fill-rule:nonzero;fill:rgb(44.705882%,20.784314%,10.980392%);fill-opacity:1;" d="M 483.371094 123.359375 C 483.328125 123.777344 483.378906 124.203125 483.527344 124.597656 C 483.671875 124.984375 483.648438 125.414062 483.460938 125.785156 C 483.585938 125.816406 483.714844 125.785156 483.8125 125.699219 C 483.910156 125.613281 483.992188 125.511719 484.0625 125.402344 C 484.136719 125.3125 484.1875 125.207031 484.21875 125.09375 C 484.226562 124.917969 484.199219 124.738281 484.136719 124.574219 C 484.058594 124.269531 484.003906 123.957031 483.972656 123.644531 C 483.972656 123.457031 483.972656 122.910156 483.761719 122.855469 C 483.546875 122.804688 483.429688 123.199219 483.371094 123.359375 Z M 483.371094 123.359375 "/>
<use xlink:href="#surface105" mask="url(#mask33)"/>
<path style=" stroke:none;fill-rule:nonzero;fill:rgb(44.705882%,20.784314%,10.980392%);fill-opacity:1;" d="M 482.921875 123.640625 C 483.011719 123.738281 483.035156 123.886719 483.113281 124 C 483.261719 124.160156 483.472656 124.242188 483.6875 124.222656 C 483.742188 124.222656 483.796875 124.234375 483.847656 124.257812 C 483.929688 124.316406 483.9375 124.441406 483.996094 124.527344 C 484.054688 124.59375 484.140625 124.632812 484.230469 124.632812 C 484.316406 124.632812 484.402344 124.59375 484.460938 124.527344 C 484.578125 124.390625 484.640625 124.214844 484.640625 124.035156 C 484.65625 123.84375 484.65625 123.652344 484.640625 123.464844 C 484.632812 123.238281 484.542969 123.019531 484.386719 122.855469 C 484.257812 122.761719 484.109375 122.695312 483.949219 122.667969 C 483.730469 122.589844 483.496094 122.574219 483.269531 122.617188 C 483.160156 122.652344 483.054688 122.707031 482.960938 122.769531 L 482.558594 123.039062 C 482.410156 123.144531 482.136719 123.347656 482.40625 123.464844 C 482.558594 123.496094 482.769531 123.496094 482.921875 123.640625 Z M 482.921875 123.640625 "/>
<path style=" stroke:none;fill-rule:nonzero;fill:rgb(94.117647%,89.411765%,89.411765%);fill-opacity:1;" d="M 483.644531 133.019531 L 484.109375 133.019531 L 484.507812 133.0625 L 484.367188 133.0625 Z M 483.644531 133.019531 "/>
<path style=" stroke:none;fill-rule:nonzero;fill:rgb(94.117647%,89.411765%,89.411765%);fill-opacity:1;" d="M 483.644531 133.117188 L 484.109375 133.117188 L 484.507812 133.15625 L 484.367188 133.15625 Z M 483.644531 133.117188 "/>
<path style=" stroke:none;fill-rule:nonzero;fill:rgb(94.117647%,89.411765%,89.411765%);fill-opacity:1;" d="M 483.644531 133.222656 L 484.109375 133.222656 L 484.507812 133.261719 L 484.367188 133.261719 Z M 483.644531 133.222656 "/>
<path style=" stroke:none;fill-rule:nonzero;fill:rgb(94.117647%,89.411765%,89.411765%);fill-opacity:1;" d="M 483.644531 133.308594 L 484.109375 133.308594 L 484.507812 133.347656 L 484.367188 133.347656 Z M 483.644531 133.308594 "/>
<path style=" stroke:none;fill-rule:nonzero;fill:rgb(94.117647%,89.411765%,89.411765%);fill-opacity:1;" d="M 483.429688 138.585938 L 483.890625 138.585938 L 484.292969 138.625 L 484.148438 138.625 Z M 483.429688 138.585938 "/>
<path style=" stroke:none;fill-rule:nonzero;fill:rgb(94.117647%,89.411765%,89.411765%);fill-opacity:1;" d="M 483.429688 138.675781 L 483.890625 138.675781 L 484.292969 138.71875 L 484.148438 138.71875 Z M 483.429688 138.675781 "/>
<path style=" stroke:none;fill-rule:nonzero;fill:rgb(94.117647%,89.411765%,89.411765%);fill-opacity:1;" d="M 483.429688 138.773438 L 483.890625 138.773438 L 484.292969 138.816406 L 484.148438 138.816406 Z M 483.429688 138.773438 "/>
<path style=" stroke:none;fill-rule:nonzero;fill:rgb(94.117647%,89.411765%,89.411765%);fill-opacity:1;" d="M 483.429688 138.871094 L 483.890625 138.871094 L 484.292969 138.910156 L 484.148438 138.910156 Z M 483.429688 138.871094 "/>
<use xlink:href="#surface108" mask="url(#mask34)"/>
<path style=" stroke:none;fill-rule:nonzero;fill:url(#linear2);" d="M 148.515625 358.90625 C 151.371094 360.574219 154.382812 361.253906 157.496094 360.21875 C 158.304688 359.949219 159.089844 359.601562 159.835938 359.183594 C 188.976562 359.804688 215.964844 359.515625 217.011719 356.378906 C 218.726562 351.171875 207.867188 325.535156 202.386719 313.148438 C 204 312.050781 205.363281 310.625 206.386719 308.96875 C 214 317.679688 228.160156 328.917969 236.578125 329.476562 C 236.578125 329.476562 248.863281 358.6875 262.6875 354.070312 C 276.507812 349.457031 278.046875 324.863281 271.132812 321.789062 L 225.058594 292.582031 L 225.058594 244.113281 C 226.457031 241.335938 227.121094 238.242188 226.984375 235.132812 C 226.984375 234.5625 227.011719 233.988281 226.984375 233.417969 L 225.445312 219.582031 C 225.445312 219.582031 225.367188 219.125 225.152344 218.292969 C 221.726562 204.960938 214.085938 195.988281 203.3125 194.65625 C 203.839844 193.695312 204.15625 192.636719 204.25 191.550781 C 204.472656 188.964844 203.398438 186.328125 204.003906 183.804688 C 204.714844 180.867188 207.433594 178.964844 209.667969 176.941406 C 214.441406 172.570312 217.445312 166.644531 220.347656 160.863281 C 223.113281 155.355469 225.921875 149.703125 226.632812 143.585938 C 227.347656 137.464844 225.492188 130.671875 220.492188 127.066406 C 216.605469 124.257812 211.136719 123.519531 208.34375 119.632812 C 207.089844 117.882812 206.570312 115.726562 205.707031 113.757812 C 203.222656 108.089844 197.863281 104.066406 192.046875 101.96875 C 171.632812 94.613281 146.59375 103.054688 133.570312 120.019531 C 129.320312 125.558594 126.25 131.894531 123.21875 138.179688 L 112.246094 160.882812 C 110.355469 164.789062 108.527344 169.667969 111.050781 173.195312 C 112.285156 174.910156 114.398438 175.976562 115.257812 177.914062 C 116.398438 180.488281 114.972656 183.855469 116.652344 186.121094 C 117.578125 187.375 119.183594 187.871094 120.558594 188.605469 C 122.410156 189.65625 124.019531 191.085938 125.285156 192.796875 L 101.195312 211.480469 C 97.675781 214.210938 95.433594 218.265625 94.988281 222.699219 L 92.605469 246.46875 C 91.847656 249.167969 91.484375 251.964844 91.53125 254.769531 C 91.445312 257.273438 91.738281 260.035156 92.988281 262.203125 L 93.515625 262.078125 C 94.085938 278.75 95.078125 302.738281 96.0625 307.171875 C 96.632812 309.800781 100.238281 314.441406 105.097656 319.222656 L 103.382812 324.085938 L 103.953125 324.085938 L 103.382812 325.609375 L 104.527344 325.609375 C 99.679688 343.136719 86.496094 356.34375 86.496094 356.34375 C 86.496094 356.34375 116.984375 358 148.515625 358.90625 Z M 119.863281 277.925781 L 119.863281 259.242188 C 122.675781 259.675781 124.75 260.648438 125.410156 262.421875 Z M 128 196.605469 L 128.089844 196.742188 L 128.058594 196.742188 Z M 128 196.605469 "/>
<path style=" stroke:none;fill-rule:nonzero;fill:rgb(99.215686%,71.764706%,59.215686%);fill-opacity:1;" d="M 197.320312 239.035156 C 197.320312 239.035156 198.777344 290.863281 200.238281 297.4375 C 201.703125 304.007812 222.855469 323.742188 233.789062 324.472656 C 233.789062 324.472656 245.457031 352.214844 258.589844 347.832031 C 271.71875 343.449219 273.175781 320.09375 266.589844 317.167969 L 222.855469 289.429688 L 222.855469 233.949219 Z M 197.320312 239.035156 "/>
<path style=" stroke:none;fill-rule:nonzero;fill:rgb(33.72549%,31.764706%,44.313725%);fill-opacity:1;" d="M 198.417969 302.574219 C 198.417969 302.574219 217.382812 343.457031 215.195312 350.046875 C 213.003906 356.632812 91.195312 350.046875 91.195312 350.046875 C 91.195312 350.046875 113.804688 327.414062 109.429688 302.574219 Z M 198.417969 302.574219 "/>
<path style=" stroke:none;fill-rule:nonzero;fill:rgb(99.215686%,71.764706%,59.215686%);fill-opacity:1;" d="M 183.828125 181.386719 C 183.828125 181.386719 180.910156 209.859375 186.015625 216.429688 C 191.125 223 165.59375 226.644531 163.429688 226.644531 C 161.261719 226.644531 137.902344 218.636719 133.527344 216.425781 C 129.148438 214.210938 125.527344 198.171875 125.527344 198.171875 C 125.527344 198.171875 147.40625 202.554688 153.972656 177.011719 Z M 183.828125 181.386719 "/>
<path style=" stroke:none;fill-rule:nonzero;fill:rgb(56.078431%,35.294118%,41.568627%);fill-opacity:1;" d="M 191.472656 108.351562 C 197 110.34375 202.089844 114.164062 204.453125 119.546875 C 205.273438 121.414062 205.765625 123.464844 206.953125 125.128906 C 209.605469 128.835938 214.800781 129.53125 218.492188 132.203125 C 223.230469 135.632812 224.984375 142.082031 224.324219 147.890625 C 223.667969 153.703125 221 159.074219 218.378906 164.300781 C 215.617188 169.796875 212.765625 175.421875 208.234375 179.574219 C 206.121094 181.511719 203.527344 183.3125 202.851562 186.105469 C 202.28125 188.5 203.296875 191 203.078125 193.460938 C 202.554688 199.527344 195.308594 202.355469 189.257812 203.027344 C 186.628906 203.320312 183.617188 203.335938 181.765625 201.445312 C 180.816406 200.472656 180.34375 199.15625 179.738281 197.933594 C 176.929688 192.25 171.167969 188.625 164.835938 188.5625 C 158.5 188.496094 152.667969 192 149.742188 197.625 C 148.324219 200.359375 147.496094 203.667969 144.914062 205.339844 C 140.960938 207.894531 135.675781 204.894531 132.765625 201.199219 C 129.855469 197.503906 127.738281 192.859375 123.582031 190.644531 C 122.273438 189.949219 120.726562 189.5 119.875 188.289062 C 118.28125 186.140625 119.632812 182.941406 118.554688 180.492188 C 117.738281 178.652344 115.730469 177.632812 114.554688 176.007812 C 112.152344 172.65625 113.890625 168 115.695312 164.3125 L 126.121094 142.75 C 128.976562 136.777344 131.921875 130.738281 135.953125 125.5 C 148.304688 109.382812 172.085938 101.363281 191.472656 108.351562 Z M 191.472656 108.351562 "/>
<use xlink:href="#surface111" mask="url(#mask35)"/>
<path style=" stroke:none;fill-rule:nonzero;fill:rgb(70.588235%,31.764706%,50.588235%);fill-opacity:1;" d="M 164.867188 220.078125 C 164.867188 220.078125 136.421875 220.078125 129.132812 193.796875 L 105.1875 212.367188 C 101.851562 214.960938 99.722656 218.8125 99.296875 223.019531 L 97.011719 245.628906 C 97.011719 245.628906 94.457031 254.023438 97.378906 259.132812 C 97.378906 259.132812 127.664062 251.46875 128.378906 260.226562 L 107.234375 319.359375 C 107.234375 319.359375 140.058594 320.09375 148.804688 314.253906 C 148.804688 314.253906 184.542969 321.550781 193.296875 313.519531 C 202.050781 305.488281 210.800781 306.222656 203.507812 287.96875 C 203.507812 287.96875 218.097656 273.367188 211.507812 252.925781 C 204.921875 232.484375 211.144531 253.292969 211.144531 253.292969 C 211.144531 253.292969 225.367188 246.355469 224.632812 233.21875 L 223.175781 220.0625 C 223.175781 220.0625 223.097656 219.628906 222.898438 218.84375 C 218.453125 201.523438 206.503906 191.960938 189.707031 198.058594 C 184.800781 199.835938 179.78125 197.800781 179.78125 197.800781 C 179.78125 197.800781 185.285156 221.539062 164.867188 220.078125 Z M 164.867188 220.078125 "/>
<path style=" stroke:none;fill-rule:nonzero;fill:rgb(99.215686%,71.764706%,59.215686%);fill-opacity:1;" d="M 97.398438 244.894531 C 97.398438 244.894531 98.855469 296.726562 100.320312 303.300781 C 101.78125 309.871094 122.929688 329.582031 133.867188 330.3125 C 133.867188 330.3125 145.539062 358.054688 158.667969 353.671875 C 171.800781 349.289062 173.257812 325.929688 166.667969 323.007812 L 122.910156 295.269531 L 122.910156 239.789062 Z M 97.398438 244.894531 "/>
<use xlink:href="#surface114" mask="url(#mask36)"/>
<path style=" stroke:none;fill-rule:nonzero;fill:rgb(70.588235%,31.764706%,50.588235%);fill-opacity:1;" d="M 128.761719 245.996094 C 128.761719 245.996094 112 257.386719 97.398438 256.433594 C 97.398438 256.433594 95.941406 236.867188 100.320312 235.773438 C 104.695312 234.679688 123.65625 235.773438 128.761719 245.996094 Z M 128.761719 245.996094 "/>
<use xlink:href="#surface117" mask="url(#mask37)"/>
<path style=" stroke:none;fill-rule:nonzero;fill:rgb(99.215686%,71.764706%,59.215686%);fill-opacity:1;" d="M 203.519531 164.59375 C 203.519531 183.136719 188.5 198.171875 169.972656 198.171875 C 151.441406 198.171875 136.421875 183.136719 136.421875 164.59375 C 136.421875 146.046875 151.441406 131.011719 169.972656 131.011719 C 188.5 131.011719 203.519531 146.046875 203.519531 164.59375 Z M 203.519531 164.59375 "/>
<use xlink:href="#surface120" mask="url(#mask38)"/>
<path style=" stroke:none;fill-rule:nonzero;fill:rgb(56.078431%,35.294118%,41.568627%);fill-opacity:1;" d="M 161.144531 157.410156 C 162.527344 158.050781 164.101562 158.0625 165.628906 158.050781 C 171.5625 158.011719 177.492188 157.792969 183.417969 157.390625 C 187.910156 157.089844 192.695312 156.5625 196.160156 153.6875 C 200.824219 149.8125 201.558594 142.554688 199.152344 136.988281 C 196.75 131.425781 191.839844 127.324219 186.65625 124.191406 C 183.730469 122.339844 180.558594 120.910156 177.234375 119.933594 C 167.617188 117.320312 156.984375 120.507812 149.34375 126.941406 C 141.703125 133.375 136.835938 142.601562 134.257812 152.238281 C 133.367188 155.574219 132.222656 159.542969 128.925781 160.554688 C 131.121094 164.210938 136.472656 164.789062 140.324219 162.957031 C 145.996094 160.257812 148.898438 149.929688 153.988281 148.304688 C 159.632812 146.492188 156.332031 155.203125 161.144531 157.410156 Z M 161.144531 157.410156 "/>
<use xlink:href="#surface123" mask="url(#mask39)"/>
<use xlink:href="#surface126" mask="url(#mask40)"/>
<use xlink:href="#surface129" mask="url(#mask41)"/>
<path style=" stroke:none;fill-rule:nonzero;fill:rgb(87.843137%,87.843137%,87.843137%);fill-opacity:1;" d="M 97.144531 349.210938 L 407.847656 349.210938 L 407.847656 460.910156 L 97.144531 460.910156 Z M 97.144531 349.210938 "/>
<use xlink:href="#surface132" mask="url(#mask42)"/>
<path style=" stroke:none;fill-rule:nonzero;fill:rgb(87.843137%,87.843137%,87.843137%);fill-opacity:1;" d="M 76.71875 336.796875 L 427.542969 336.796875 L 427.542969 366.730469 L 76.71875 366.730469 Z M 76.71875 336.796875 "/>
<path style=" stroke:none;fill-rule:nonzero;fill:rgb(32.54902%,32.941176%,38.039216%);fill-opacity:1;" d="M 146.71875 329.433594 L 206.394531 329.433594 C 208.445312 329.433594 210.109375 331.097656 210.109375 333.148438 L 210.109375 335.203125 C 210.109375 337.257812 208.445312 338.921875 206.394531 338.921875 L 146.71875 338.921875 C 144.667969 338.921875 143.003906 337.257812 143.003906 335.203125 L 143.003906 333.148438 C 143.003906 331.097656 144.667969 329.433594 146.71875 329.433594 Z M 146.71875 329.433594 "/>
<use xlink:href="#surface135" mask="url(#mask43)"/>
<path style=" stroke:none;fill-rule:nonzero;fill:rgb(24.313725%,24.705882%,28.627451%);fill-opacity:1;" d="M 202.160156 225.753906 L 329.46875 225.753906 C 337.9375 225.753906 344.804688 232.625 344.804688 241.105469 L 344.804688 323.691406 C 344.804688 332.167969 337.9375 339.039062 329.46875 339.039062 L 202.160156 339.039062 C 193.691406 339.039062 186.824219 332.167969 186.824219 323.691406 L 186.824219 241.105469 C 186.824219 232.625 193.691406 225.753906 202.160156 225.753906 Z M 202.160156 225.753906 "/>
<path style=" stroke:none;fill-rule:nonzero;fill:rgb(32.54902%,32.941176%,38.039216%);fill-opacity:1;" d="M 204.347656 225.753906 L 331.65625 225.753906 C 340.128906 225.753906 346.996094 232.625 346.996094 241.105469 L 346.996094 323.691406 C 346.996094 332.167969 340.128906 339.039062 331.65625 339.039062 L 204.347656 339.039062 C 195.878906 339.039062 189.011719 332.167969 189.011719 323.691406 L 189.011719 241.105469 C 189.011719 232.625 195.878906 225.753906 204.347656 225.753906 Z M 204.347656 225.753906 "/>
<path style=" stroke:none;fill-rule:nonzero;fill:rgb(87.843137%,87.843137%,87.843137%);fill-opacity:1;" d="M 280.484375 281.617188 C 280.484375 284.4375 278.199219 286.722656 275.382812 286.722656 C 272.566406 286.722656 270.28125 284.4375 270.28125 281.617188 C 270.28125 278.796875 272.566406 276.507812 275.382812 276.507812 C 278.199219 276.507812 280.484375 278.796875 280.484375 281.617188 Z M 280.484375 281.617188 "/>
</g>
</svg>
