<?xml version="1.0" encoding="UTF-8"?>
<svg xmlns="http://www.w3.org/2000/svg" xmlns:xlink="http://www.w3.org/1999/xlink" width="315pt" height="297pt" viewBox="0 0 315 297" version="1.1">
<g id="surface1">
<path style=" stroke:none;fill-rule:nonzero;fill:rgb(80%,80%,80%);fill-opacity:1;" d="M 252.644531 229.96875 C 245.476562 229.96875 239.667969 224.148438 239.667969 216.96875 C 239.667969 209.789062 245.476562 203.96875 252.644531 203.96875 C 259.816406 203.96875 265.625 209.789062 265.625 216.96875 C 265.617188 224.148438 259.8125 229.960938 252.644531 229.96875 Z M 252.644531 229.96875 "/>
<path style=" stroke:none;fill-rule:nonzero;fill:rgb(100%,100%,100%);fill-opacity:1;" d="M 258.636719 216.46875 L 253.144531 216.46875 L 253.144531 210.21875 C 253.144531 209.945312 252.921875 209.71875 252.644531 209.71875 C 252.371094 209.71875 252.148438 209.945312 252.148438 210.21875 L 252.148438 216.46875 L 246.65625 216.46875 C 246.378906 216.46875 246.15625 216.695312 246.15625 216.96875 C 246.15625 217.246094 246.378906 217.46875 246.65625 217.46875 L 252.148438 217.46875 L 252.148438 223.71875 C 252.148438 223.996094 252.371094 224.21875 252.644531 224.21875 C 252.921875 224.21875 253.144531 223.996094 253.144531 223.71875 L 253.144531 217.46875 L 258.636719 217.46875 C 258.914062 217.46875 259.136719 217.246094 259.136719 216.96875 C 259.136719 216.695312 258.914062 216.46875 258.636719 216.46875 Z M 258.636719 216.46875 "/>
<path style=" stroke:none;fill-rule:nonzero;fill:rgb(100%,72.156863%,72.156863%);fill-opacity:1;" d="M 302.628906 290.890625 L 296.921875 290.890625 L 294.210938 268.839844 L 302.632812 268.839844 Z M 302.628906 290.890625 "/>
<path style=" stroke:none;fill-rule:nonzero;fill:rgb(18.431373%,18.039216%,25.490196%);fill-opacity:1;" d="M 292.847656 289.253906 L 303.851562 289.253906 L 303.851562 296.195312 L 285.917969 296.195312 C 285.917969 292.363281 289.019531 289.253906 292.847656 289.253906 Z M 292.847656 289.253906 "/>
<path style=" stroke:none;fill-rule:nonzero;fill:rgb(100%,72.156863%,72.156863%);fill-opacity:1;" d="M 279.914062 290.890625 L 274.207031 290.890625 L 271.496094 268.839844 L 279.917969 268.839844 Z M 279.914062 290.890625 "/>
<path style=" stroke:none;fill-rule:nonzero;fill:rgb(18.431373%,18.039216%,25.490196%);fill-opacity:1;" d="M 270.132812 289.253906 L 281.136719 289.253906 L 281.136719 296.195312 L 263.203125 296.195312 C 263.203125 292.363281 266.304688 289.253906 270.132812 289.253906 Z M 270.132812 289.253906 "/>
<path style=" stroke:none;fill-rule:nonzero;fill:rgb(100%,72.156863%,72.156863%);fill-opacity:1;" d="M 307.027344 214.664062 C 306.097656 213.636719 305.667969 212.246094 305.859375 210.871094 C 306.050781 209.5 306.839844 208.28125 308.011719 207.542969 L 306.246094 196.976562 L 312.394531 194.335938 L 314.679688 209.292969 C 315.808594 211.394531 315.1875 214.011719 313.234375 215.382812 C 311.28125 216.753906 308.613281 216.445312 307.027344 214.664062 Z M 307.027344 214.664062 "/>
<path style=" stroke:none;fill-rule:nonzero;fill:rgb(100%,72.156863%,72.156863%);fill-opacity:1;" d="M 258.882812 209.671875 C 259.96875 208.8125 260.621094 207.511719 260.660156 206.125 C 260.699219 204.738281 260.121094 203.40625 259.085938 202.484375 L 262.570312 192.355469 L 256.941406 188.734375 L 252.21875 203.105469 C 250.757812 204.996094 250.941406 207.679688 252.640625 209.351562 C 254.339844 211.027344 257.023438 211.164062 258.882812 209.671875 Z M 258.882812 209.671875 "/>
<path style=" stroke:none;fill-rule:nonzero;fill:rgb(100%,72.156863%,72.156863%);fill-opacity:1;" d="M 300.375 122.769531 C 300.375 129.554688 294.882812 135.050781 288.113281 135.050781 C 281.339844 135.050781 275.851562 129.554688 275.851562 122.769531 C 275.851562 115.988281 281.339844 110.492188 288.113281 110.492188 C 294.882812 110.492188 300.375 115.988281 300.375 122.769531 Z M 300.375 122.769531 "/>
<path style=" stroke:none;fill-rule:nonzero;fill:rgb(24.705882%,23.921569%,33.72549%);fill-opacity:1;" d="M 258.503906 202.09375 C 258.292969 202.09375 258.085938 202.0625 257.882812 202.003906 L 254.308594 200.976562 C 253.121094 200.632812 252.433594 199.394531 252.769531 198.203125 L 260.144531 172.121094 L 270.425781 146.832031 C 271.449219 144.320312 273.585938 142.671875 276.003906 142.53125 C 278.257812 142.421875 280.367188 143.648438 281.382812 145.667969 C 282.503906 147.8125 282.570312 150.355469 281.5625 152.554688 L 269.871094 178.160156 L 260.578125 200.703125 C 260.234375 201.542969 259.414062 202.09375 258.503906 202.09375 Z M 258.503906 202.09375 "/>
<path style=" stroke:none;fill-rule:nonzero;fill:rgb(18.431373%,18.039216%,25.490196%);fill-opacity:1;" d="M 295.03125 133.070312 L 288.21875 133.191406 C 286.78125 133.21875 285.414062 132.5625 284.535156 131.417969 C 283.660156 130.273438 283.378906 128.78125 283.777344 127.394531 C 283.921875 126.902344 284.03125 126.398438 284.105469 125.890625 C 284.183594 125.335938 284.195312 124.773438 284.148438 124.214844 C 284.0625 123.058594 283.1875 122.121094 282.046875 121.953125 C 280.902344 121.785156 279.796875 122.429688 279.378906 123.507812 C 278.234375 123.523438 275.792969 123.152344 274.648438 123.167969 C 272.21875 116.921875 277.515625 108.75 283.222656 105.683594 C 289.039062 102.550781 296.589844 105.734375 298.820312 112.257812 C 301.914062 112.3125 304.425781 115.371094 304.824219 118.8125 C 305.222656 122.25 303.8125 125.84375 301.648438 128.480469 C 299.488281 131.117188 296.648438 133.039062 295.03125 133.070312 Z M 295.03125 133.070312 "/>
<path style=" stroke:none;fill-rule:nonzero;fill:rgb(18.431373%,18.039216%,25.490196%);fill-opacity:1;" d="M 272.636719 288.832031 C 271.496094 288.824219 270.539062 287.964844 270.410156 286.824219 L 267.882812 201.707031 L 299.726562 203.980469 L 299.75 204.183594 C 306.945312 264.515625 304.488281 285.398438 304.460938 285.601562 C 304.425781 286.226562 304.132812 286.808594 303.652344 287.207031 C 303.171875 287.605469 302.546875 287.785156 301.925781 287.703125 L 294.890625 287.875 C 293.789062 287.75 292.941406 286.835938 292.898438 285.726562 L 286.324219 224.074219 C 286.238281 223.746094 285.929688 223.523438 285.589844 223.546875 C 285.242188 223.546875 284.941406 223.792969 284.875 224.136719 L 282.332031 285.988281 C 282.390625 287.179688 281.5 288.207031 280.316406 288.324219 L 272.859375 288.820312 C 272.785156 288.828125 272.710938 288.832031 272.636719 288.832031 Z M 272.636719 288.832031 "/>
<path style=" stroke:none;fill-rule:nonzero;fill:rgb(24.705882%,23.921569%,33.72549%);fill-opacity:1;" d="M 285.851562 211.878906 C 285.660156 211.878906 285.46875 211.875 285.28125 211.871094 C 276.125 211.59375 268.960938 204.65625 266.980469 202.535156 C 266.472656 201.984375 266.269531 201.21875 266.441406 200.488281 L 271.726562 178.105469 L 270.324219 158.644531 C 269.878906 153.183594 271.785156 147.792969 275.566406 143.828125 C 278.71875 140.496094 283.160156 138.695312 287.742188 138.898438 C 296.65625 139.324219 303.6875 147.300781 303.75 157.0625 C 303.847656 172.179688 303.40625 173.21875 303.257812 173.558594 C 298.8125 183.957031 301.238281 198.554688 302.089844 202.78125 C 302.246094 203.546875 301.992188 204.339844 301.421875 204.875 C 296.53125 209.523438 291.292969 211.878906 285.851562 211.878906 Z M 285.851562 211.878906 "/>
<path style=" stroke:none;fill-rule:nonzero;fill:rgb(24.705882%,23.921569%,33.72549%);fill-opacity:1;" d="M 308.847656 206.1875 C 307.800781 206.1875 306.894531 205.464844 306.660156 204.441406 L 301.210938 180.664062 L 293.90625 153.484375 C 293.273438 151.148438 293.757812 148.652344 295.21875 146.722656 C 296.554688 144.902344 298.835938 144.039062 301.042969 144.519531 C 303.402344 145.058594 305.238281 147.035156 305.832031 149.683594 L 311.800781 176.300781 L 314.777344 203.269531 C 314.910156 204.5 314.027344 205.609375 312.796875 205.753906 L 309.105469 206.175781 C 309.019531 206.183594 308.933594 206.1875 308.847656 206.1875 Z M 308.847656 206.1875 "/>
<path style=" stroke:none;fill-rule:nonzero;fill:rgb(100%,72.156863%,72.156863%);fill-opacity:1;" d="M 15.390625 208.753906 C 16.699219 207.855469 17.542969 206.421875 17.695312 204.839844 C 17.851562 203.257812 17.292969 201.6875 16.179688 200.554688 L 18.261719 154.046875 L 7.671875 155.238281 L 8.285156 200.730469 C 6.46875 202.773438 6.46875 205.855469 8.28125 207.902344 C 10.09375 209.949219 13.148438 210.316406 15.390625 208.753906 Z M 15.390625 208.753906 "/>
<path style=" stroke:none;fill-rule:nonzero;fill:rgb(100%,72.156863%,72.156863%);fill-opacity:1;" d="M 34.710938 287.484375 L 40.738281 288.542969 L 46.699219 265.761719 L 38.800781 264.195312 Z M 34.710938 287.484375 "/>
<path style=" stroke:none;fill-rule:nonzero;fill:rgb(18.431373%,18.039216%,25.490196%);fill-opacity:1;" d="M 51.378906 296.199219 L 32.4375 292.863281 L 33.722656 285.53125 L 45.347656 287.578125 C 49.390625 288.289062 52.089844 292.148438 51.378906 296.199219 Z M 51.378906 296.199219 "/>
<path style=" stroke:none;fill-rule:nonzero;fill:rgb(100%,72.156863%,72.156863%);fill-opacity:1;" d="M 18.167969 290.503906 L 24.289062 290.503906 L 27.199219 266.859375 L 18.167969 266.863281 Z M 18.167969 290.503906 "/>
<path style=" stroke:none;fill-rule:nonzero;fill:rgb(18.431373%,18.039216%,25.490196%);fill-opacity:1;" d="M 36.089844 296.195312 L 16.855469 296.199219 L 16.855469 288.753906 L 28.660156 288.753906 C 32.761719 288.753906 36.089844 292.085938 36.089844 296.195312 Z M 36.089844 296.195312 "/>
<path style=" stroke:none;fill-rule:nonzero;fill:rgb(18.431373%,18.039216%,25.490196%);fill-opacity:1;" d="M 44.203125 284.03125 C 44.105469 284.03125 44.011719 284.023438 43.917969 284.011719 L 36.714844 283.417969 C 36.050781 283.339844 35.449219 282.996094 35.046875 282.460938 C 34.648438 281.925781 34.484375 281.25 34.59375 280.589844 L 41.246094 243.25 L 36.753906 219.511719 C 36.675781 219.113281 36.320312 218.832031 35.914062 218.851562 C 35.507812 218.871094 35.179688 219.1875 35.144531 219.59375 L 29.527344 282.90625 C 29.398438 284.226562 28.246094 285.207031 26.925781 285.125 L 20.140625 284.871094 C 18.90625 284.785156 17.9375 283.789062 17.875 282.554688 L 17.417969 206.671875 L 52.601562 202.269531 L 55.0625 240.289062 L 55.050781 240.328125 L 46.570312 282.164062 C 46.304688 283.257812 45.324219 284.027344 44.203125 284.03125 Z M 44.203125 284.03125 "/>
<path style=" stroke:none;fill-rule:nonzero;fill:rgb(100%,72.156863%,72.156863%);fill-opacity:1;" d="M 41.28125 111.628906 C 41.28125 118.410156 35.789062 123.90625 29.019531 123.90625 C 22.246094 123.90625 16.757812 118.410156 16.757812 111.628906 C 16.757812 104.84375 22.246094 99.347656 29.019531 99.347656 C 35.789062 99.347656 41.28125 104.84375 41.28125 111.628906 Z M 41.28125 111.628906 "/>
<path style=" stroke:none;fill-rule:nonzero;fill:rgb(42.352941%,38.823529%,100%);fill-opacity:1;" d="M 40.570312 212.21875 C 38.652344 212.230469 36.773438 211.691406 35.152344 210.664062 C 29.210938 206.949219 22.464844 208.425781 18.972656 209.636719 C 18.273438 209.882812 17.496094 209.796875 16.867188 209.398438 C 16.246094 209.007812 15.835938 208.351562 15.757812 207.621094 L 9.40625 150.808594 C 8.339844 141.289062 14.066406 132.339844 23.015625 129.527344 C 23.355469 129.421875 23.695312 129.324219 24.042969 129.226562 C 29.683594 127.695312 35.710938 128.746094 40.503906 132.089844 C 45.386719 135.472656 48.523438 140.84375 49.074219 146.765625 L 54.417969 203.960938 C 54.492188 204.710938 54.210938 205.453125 53.65625 205.960938 C 51.785156 207.699219 46.34375 212.21875 40.570312 212.21875 Z M 40.570312 212.21875 "/>
<path style=" stroke:none;fill-rule:nonzero;fill:rgb(42.352941%,38.823529%,100%);fill-opacity:1;" d="M 21.230469 162.992188 L 6.902344 161.414062 C 6.078125 161.324219 5.332031 160.875 4.863281 160.191406 C 4.390625 159.507812 4.242188 158.652344 4.453125 157.847656 L 8.101562 143.921875 C 8.601562 139.574219 12.523438 136.457031 16.863281 136.945312 C 21.207031 137.4375 24.332031 141.355469 23.855469 145.703125 L 24.394531 160.042969 C 24.425781 160.875 24.09375 161.675781 23.488281 162.242188 C 22.878906 162.808594 22.054688 163.082031 21.230469 162.992188 Z M 21.230469 162.992188 "/>
<path style=" stroke:none;fill-rule:nonzero;fill:rgb(100%,72.156863%,72.156863%);fill-opacity:1;" d="M 54.363281 206.761719 C 55.554688 205.710938 56.21875 204.1875 56.179688 202.597656 C 56.140625 201.007812 55.402344 199.519531 54.160156 198.527344 L 50.628906 152.105469 L 40.25 154.445312 L 46.34375 199.652344 C 44.785156 201.902344 45.15625 204.960938 47.199219 206.777344 C 49.246094 208.589844 52.324219 208.582031 54.363281 206.761719 Z M 54.363281 206.761719 "/>
<path style=" stroke:none;fill-rule:nonzero;fill:rgb(42.352941%,38.823529%,100%);fill-opacity:1;" d="M 36.273438 160.074219 C 35.664062 159.507812 35.332031 158.703125 35.363281 157.875 L 35.90625 143.535156 C 35.429688 139.1875 38.554688 135.269531 42.894531 134.777344 C 47.238281 134.285156 51.15625 137.40625 51.660156 141.753906 L 55.308594 155.675781 C 55.515625 156.480469 55.367188 157.335938 54.898438 158.023438 C 54.425781 158.707031 53.683594 159.152344 52.859375 159.242188 L 38.527344 160.820312 C 37.703125 160.914062 36.878906 160.640625 36.273438 160.074219 Z M 36.273438 160.074219 "/>
<path style=" stroke:none;fill-rule:nonzero;fill:rgb(18.431373%,18.039216%,25.490196%);fill-opacity:1;" d="M 28.289062 124.371094 C 28.070312 124.371094 27.855469 124.34375 27.640625 124.296875 L 27.578125 124.28125 C 16.800781 122.628906 14.417969 116.375 13.894531 113.761719 C 13.351562 111.058594 13.96875 108.449219 15.363281 107.433594 C 14.601562 105.03125 14.722656 102.902344 15.726562 101.101562 C 17.46875 97.964844 21.257812 96.902344 21.765625 96.773438 C 24.789062 94.535156 28.40625 96.027344 29.066406 96.332031 C 34.914062 94.164062 37.152344 95.96875 37.554688 96.371094 C 40.171875 96.839844 41.765625 97.851562 42.292969 99.378906 C 43.289062 102.242188 40.144531 105.808594 40.011719 105.957031 L 39.941406 106.035156 L 35.257812 106.261719 C 34.359375 106.304688 33.519531 106.726562 32.953125 107.421875 C 32.382812 108.121094 32.136719 109.027344 32.273438 109.917969 C 32.398438 110.488281 32.558594 111.046875 32.75 111.597656 C 33.550781 114.097656 34.152344 116.238281 33.378906 117.050781 C 33.019531 117.371094 32.511719 117.460938 32.066406 117.277344 C 31.335938 117.082031 30.839844 117.125 30.589844 117.402344 C 30.207031 117.832031 30.324219 118.917969 30.921875 120.464844 C 31.304688 121.460938 31.101562 122.585938 30.398438 123.386719 C 29.875 124.007812 29.101562 124.367188 28.289062 124.371094 Z M 28.289062 124.371094 "/>
<path style=" stroke:none;fill-rule:nonzero;fill:rgb(80%,80%,80%);fill-opacity:1;" d="M 70.386719 296.96875 L 0.5 296.96875 C 0.222656 296.96875 0 296.746094 0 296.46875 C 0 296.195312 0.222656 295.96875 0.5 295.96875 L 70.386719 295.96875 C 70.664062 295.96875 70.886719 296.195312 70.886719 296.46875 C 70.886719 296.746094 70.664062 296.96875 70.386719 296.96875 Z M 70.386719 296.96875 "/>
<path style=" stroke:none;fill-rule:nonzero;fill:rgb(80%,80%,80%);fill-opacity:1;" d="M 314 296.96875 L 244.113281 296.96875 C 243.835938 296.96875 243.613281 296.746094 243.613281 296.46875 C 243.613281 296.195312 243.835938 295.96875 244.113281 295.96875 L 314 295.96875 C 314.277344 295.96875 314.5 296.195312 314.5 296.46875 C 314.5 296.746094 314.277344 296.96875 314 296.96875 Z M 314 296.96875 "/>
<path style=" stroke:none;fill-rule:nonzero;fill:rgb(100%,100%,100%);fill-opacity:1;" d="M 214.015625 212 L 93.207031 212 C 83.5625 211.988281 75.746094 204.160156 75.734375 194.5 L 75.734375 17.5 C 75.746094 7.839844 83.5625 0.0117188 93.207031 0 L 214.015625 0 C 223.660156 0.0117188 231.476562 7.839844 231.488281 17.5 L 231.488281 194.5 C 231.476562 204.160156 223.660156 211.988281 214.015625 212 Z M 214.015625 212 "/>
<path style=" stroke:none;fill-rule:nonzero;fill:rgb(80%,80%,80%);fill-opacity:1;" d="M 195.046875 140.515625 L 112.179688 140.515625 C 103.714844 140.472656 103.679688 127.558594 112.179688 127.515625 L 195.046875 127.515625 C 203.507812 127.554688 203.550781 140.46875 195.046875 140.515625 Z M 195.046875 140.515625 "/>
<path style=" stroke:none;fill-rule:nonzero;fill:rgb(80%,80%,80%);fill-opacity:1;" d="M 195.046875 36.484375 L 112.179688 36.484375 C 103.714844 36.445312 103.679688 23.53125 112.179688 23.484375 L 195.046875 23.484375 C 203.507812 23.523438 203.550781 36.441406 195.046875 36.484375 Z M 195.046875 36.484375 "/>
<path style=" stroke:none;fill-rule:nonzero;fill:rgb(80%,80%,80%);fill-opacity:1;" d="M 195.046875 164.515625 L 112.179688 164.515625 C 103.714844 164.472656 103.679688 151.558594 112.179688 151.515625 L 195.046875 151.515625 C 203.507812 151.554688 203.550781 164.46875 195.046875 164.515625 Z M 195.046875 164.515625 "/>
<path style=" stroke:none;fill-rule:nonzero;fill:rgb(80%,80%,80%);fill-opacity:1;" d="M 195.046875 188.515625 L 112.179688 188.515625 C 103.714844 188.472656 103.679688 175.558594 112.179688 175.515625 L 195.046875 175.515625 C 203.507812 175.554688 203.550781 188.46875 195.046875 188.515625 Z M 195.046875 188.515625 "/>
<path style=" stroke:none;fill-rule:nonzero;fill:rgb(42.352941%,38.823529%,100%);fill-opacity:1;" d="M 193.550781 111.914062 L 113.675781 111.914062 C 109.128906 111.910156 105.445312 108.21875 105.4375 103.664062 L 105.4375 58.863281 C 105.445312 54.3125 109.128906 50.621094 113.675781 50.613281 L 193.550781 50.613281 C 198.097656 50.621094 201.78125 54.3125 201.785156 58.863281 L 201.785156 103.664062 C 201.78125 108.21875 198.097656 111.910156 193.550781 111.914062 Z M 193.550781 111.914062 "/>
<path style=" stroke:none;fill-rule:nonzero;fill:rgb(90.196078%,90.196078%,90.196078%);fill-opacity:1;" d="M 214.015625 212 L 93.207031 212 C 83.5625 211.988281 75.746094 204.160156 75.734375 194.5 L 75.734375 17.5 C 75.746094 7.839844 83.5625 0.0117188 93.207031 0 L 214.015625 0 C 223.660156 0.0117188 231.476562 7.839844 231.488281 17.5 L 231.488281 194.5 C 231.476562 204.160156 223.660156 211.988281 214.015625 212 Z M 93.207031 3 C 85.214844 3.007812 78.742188 9.496094 78.730469 17.5 L 78.730469 194.5 C 78.742188 202.503906 85.214844 208.992188 93.207031 209 L 214.015625 209 C 222.007812 208.992188 228.484375 202.503906 228.492188 194.5 L 228.492188 17.5 C 228.484375 9.496094 222.007812 3.007812 214.015625 3 Z M 93.207031 3 "/>
</g>
</svg>
