<?xml version="1.0" encoding="UTF-8"?>
<svg xmlns="http://www.w3.org/2000/svg" xmlns:xlink="http://www.w3.org/1999/xlink" width="78pt" height="74pt" viewBox="0 0 78 74" version="1.1">
<g id="surface1">
<path style=" stroke:none;fill-rule:nonzero;fill:rgb(80%,80%,80%);fill-opacity:1;" d="M 62.519531 57.335938 C 60.746094 57.335938 59.308594 55.886719 59.308594 54.097656 C 59.308594 52.304688 60.746094 50.855469 62.519531 50.855469 C 64.292969 50.855469 65.730469 52.304688 65.730469 54.097656 C 65.730469 55.886719 64.292969 57.335938 62.519531 57.335938 Z M 62.519531 57.335938 "/>
<path style=" stroke:none;fill-rule:nonzero;fill:rgb(100%,100%,100%);fill-opacity:1;" d="M 64.003906 53.972656 L 62.644531 53.972656 L 62.644531 52.414062 C 62.644531 52.34375 62.589844 52.289062 62.519531 52.289062 C 62.453125 52.289062 62.398438 52.34375 62.398438 52.414062 L 62.398438 53.972656 L 61.039062 53.972656 C 60.96875 53.972656 60.914062 54.027344 60.914062 54.097656 C 60.914062 54.164062 60.96875 54.21875 61.039062 54.21875 L 62.398438 54.21875 L 62.398438 55.777344 C 62.398438 55.847656 62.453125 55.902344 62.519531 55.902344 C 62.589844 55.902344 62.644531 55.847656 62.644531 55.777344 L 62.644531 54.21875 L 64.003906 54.21875 C 64.070312 54.21875 64.125 54.164062 64.125 54.097656 C 64.125 54.027344 64.070312 53.972656 64.003906 53.972656 Z M 64.003906 53.972656 "/>
<path style=" stroke:none;fill-rule:nonzero;fill:rgb(100%,72.156863%,72.156863%);fill-opacity:1;" d="M 74.890625 72.527344 L 73.476562 72.527344 L 72.804688 67.027344 L 74.890625 67.027344 Z M 74.890625 72.527344 "/>
<path style=" stroke:none;fill-rule:nonzero;fill:rgb(18.431373%,18.039216%,25.490196%);fill-opacity:1;" d="M 72.46875 72.117188 L 75.191406 72.117188 L 75.191406 73.847656 L 70.753906 73.847656 C 70.753906 72.894531 71.519531 72.117188 72.46875 72.117188 Z M 72.46875 72.117188 "/>
<path style=" stroke:none;fill-rule:nonzero;fill:rgb(100%,72.156863%,72.156863%);fill-opacity:1;" d="M 69.269531 72.527344 L 67.855469 72.527344 L 67.183594 67.027344 L 69.269531 67.027344 Z M 69.269531 72.527344 "/>
<path style=" stroke:none;fill-rule:nonzero;fill:rgb(18.431373%,18.039216%,25.490196%);fill-opacity:1;" d="M 66.847656 72.117188 L 69.570312 72.117188 L 69.570312 73.847656 L 65.132812 73.847656 C 65.132812 72.894531 65.898438 72.117188 66.847656 72.117188 Z M 66.847656 72.117188 "/>
<path style=" stroke:none;fill-rule:nonzero;fill:rgb(100%,72.156863%,72.156863%);fill-opacity:1;" d="M 75.976562 53.519531 C 75.746094 53.265625 75.640625 52.917969 75.6875 52.574219 C 75.734375 52.234375 75.929688 51.929688 76.222656 51.746094 L 75.785156 49.113281 L 77.304688 48.453125 L 77.871094 52.183594 C 78.152344 52.707031 77.996094 53.359375 77.511719 53.699219 C 77.03125 54.042969 76.371094 53.964844 75.976562 53.519531 Z M 75.976562 53.519531 "/>
<path style=" stroke:none;fill-rule:nonzero;fill:rgb(100%,72.156863%,72.156863%);fill-opacity:1;" d="M 64.0625 52.277344 C 64.332031 52.0625 64.492188 51.738281 64.503906 51.390625 C 64.511719 51.046875 64.371094 50.714844 64.113281 50.484375 L 64.976562 47.960938 L 63.582031 47.054688 L 62.414062 50.640625 C 62.054688 51.109375 62.097656 51.78125 62.519531 52.195312 C 62.9375 52.613281 63.605469 52.648438 64.0625 52.277344 Z M 64.0625 52.277344 "/>
<path style=" stroke:none;fill-rule:nonzero;fill:rgb(100%,72.156863%,72.156863%);fill-opacity:1;" d="M 74.332031 30.609375 C 74.332031 32.300781 72.972656 33.671875 71.296875 33.671875 C 69.621094 33.671875 68.261719 32.300781 68.261719 30.609375 C 68.261719 28.917969 69.621094 27.546875 71.296875 27.546875 C 72.972656 27.546875 74.332031 28.917969 74.332031 30.609375 Z M 74.332031 30.609375 "/>
<path style=" stroke:none;fill-rule:nonzero;fill:rgb(24.705882%,23.921569%,33.72549%);fill-opacity:1;" d="M 63.96875 50.386719 C 63.917969 50.386719 63.867188 50.378906 63.816406 50.363281 L 62.933594 50.109375 C 62.636719 50.023438 62.46875 49.714844 62.550781 49.417969 L 64.375 42.914062 L 66.921875 36.609375 C 67.171875 35.984375 67.703125 35.570312 68.300781 35.535156 C 68.859375 35.507812 69.378906 35.816406 69.632812 36.320312 C 69.910156 36.855469 69.925781 37.488281 69.675781 38.035156 L 66.78125 44.421875 L 64.484375 50.039062 C 64.398438 50.25 64.195312 50.386719 63.96875 50.386719 Z M 63.96875 50.386719 "/>
<path style=" stroke:none;fill-rule:nonzero;fill:rgb(18.431373%,18.039216%,25.490196%);fill-opacity:1;" d="M 73.007812 33.179688 L 71.324219 33.207031 C 70.96875 33.214844 70.628906 33.050781 70.410156 32.765625 C 70.195312 32.480469 70.125 32.109375 70.222656 31.761719 C 70.261719 31.640625 70.285156 31.515625 70.304688 31.386719 C 70.324219 31.25 70.328125 31.109375 70.316406 30.96875 C 70.292969 30.683594 70.078125 30.449219 69.796875 30.40625 C 69.511719 30.363281 69.238281 30.523438 69.136719 30.792969 C 68.851562 30.796875 68.25 30.707031 67.964844 30.710938 C 67.363281 29.152344 68.675781 27.113281 70.085938 26.351562 C 71.527344 25.570312 73.394531 26.363281 73.945312 27.988281 C 74.710938 28.003906 75.332031 28.765625 75.433594 29.625 C 75.53125 30.480469 75.183594 31.375 74.648438 32.035156 C 74.113281 32.691406 73.410156 33.171875 73.007812 33.179688 Z M 73.007812 33.179688 "/>
<path style=" stroke:none;fill-rule:nonzero;fill:rgb(18.431373%,18.039216%,25.490196%);fill-opacity:1;" d="M 67.46875 72.011719 C 67.183594 72.011719 66.949219 71.796875 66.917969 71.511719 L 66.289062 50.289062 L 74.171875 50.859375 L 74.175781 50.910156 C 75.957031 65.949219 75.347656 71.15625 75.34375 71.207031 C 75.332031 71.363281 75.261719 71.507812 75.140625 71.609375 C 75.023438 71.707031 74.867188 71.753906 74.714844 71.730469 L 72.972656 71.773438 C 72.703125 71.742188 72.492188 71.515625 72.480469 71.238281 L 70.855469 55.867188 C 70.832031 55.785156 70.757812 55.730469 70.671875 55.734375 C 70.585938 55.734375 70.511719 55.796875 70.496094 55.882812 L 69.867188 71.304688 C 69.882812 71.601562 69.660156 71.859375 69.367188 71.886719 L 67.523438 72.011719 C 67.503906 72.011719 67.484375 72.011719 67.46875 72.011719 Z M 67.46875 72.011719 "/>
<path style=" stroke:none;fill-rule:nonzero;fill:rgb(24.705882%,23.921569%,33.72549%);fill-opacity:1;" d="M 70.738281 52.828125 C 70.691406 52.828125 70.644531 52.824219 70.597656 52.824219 C 68.332031 52.753906 66.558594 51.027344 66.066406 50.496094 C 65.941406 50.359375 65.890625 50.167969 65.933594 49.988281 L 67.242188 44.40625 L 66.894531 39.554688 C 66.785156 38.191406 67.257812 36.847656 68.191406 35.859375 C 68.972656 35.03125 70.070312 34.582031 71.207031 34.632812 C 73.410156 34.738281 75.152344 36.726562 75.167969 39.160156 C 75.191406 42.929688 75.082031 43.1875 75.042969 43.273438 C 73.945312 45.867188 74.546875 49.503906 74.753906 50.558594 C 74.792969 50.75 74.730469 50.949219 74.589844 51.082031 C 73.378906 52.238281 72.082031 52.828125 70.738281 52.828125 Z M 70.738281 52.828125 "/>
<path style=" stroke:none;fill-rule:nonzero;fill:rgb(24.705882%,23.921569%,33.72549%);fill-opacity:1;" d="M 76.429688 51.40625 C 76.167969 51.40625 75.945312 51.226562 75.886719 50.972656 L 74.539062 45.042969 L 72.730469 38.269531 C 72.574219 37.683594 72.695312 37.0625 73.054688 36.582031 C 73.386719 36.128906 73.949219 35.914062 74.496094 36.03125 C 75.082031 36.167969 75.535156 36.660156 75.683594 37.320312 L 77.160156 43.957031 L 77.894531 50.679688 C 77.929688 50.988281 77.710938 51.265625 77.40625 51.300781 L 76.492188 51.40625 C 76.46875 51.40625 76.449219 51.40625 76.429688 51.40625 Z M 76.429688 51.40625 "/>
<path style=" stroke:none;fill-rule:nonzero;fill:rgb(100%,72.156863%,72.156863%);fill-opacity:1;" d="M 3.808594 52.046875 C 4.132812 51.824219 4.339844 51.464844 4.378906 51.070312 C 4.417969 50.675781 4.28125 50.285156 4.003906 50.003906 L 4.519531 38.40625 L 1.898438 38.703125 L 2.050781 50.046875 C 1.601562 50.558594 1.601562 51.324219 2.050781 51.835938 C 2.496094 52.347656 3.253906 52.4375 3.808594 52.046875 Z M 3.808594 52.046875 "/>
<path style=" stroke:none;fill-rule:nonzero;fill:rgb(100%,72.156863%,72.156863%);fill-opacity:1;" d="M 8.589844 71.675781 L 10.082031 71.941406 L 11.554688 66.261719 L 9.601562 65.871094 Z M 8.589844 71.675781 "/>
<path style=" stroke:none;fill-rule:nonzero;fill:rgb(18.431373%,18.039216%,25.490196%);fill-opacity:1;" d="M 12.714844 73.851562 L 8.027344 73.019531 L 8.34375 71.191406 L 11.222656 71.699219 C 12.222656 71.878906 12.890625 72.839844 12.714844 73.851562 Z M 12.714844 73.851562 "/>
<path style=" stroke:none;fill-rule:nonzero;fill:rgb(100%,72.156863%,72.156863%);fill-opacity:1;" d="M 4.496094 72.429688 L 6.011719 72.429688 L 6.730469 66.535156 L 4.496094 66.535156 Z M 4.496094 72.429688 "/>
<path style=" stroke:none;fill-rule:nonzero;fill:rgb(18.431373%,18.039216%,25.490196%);fill-opacity:1;" d="M 8.929688 73.847656 L 4.171875 73.851562 L 4.171875 71.992188 L 7.09375 71.992188 C 8.105469 71.992188 8.929688 72.824219 8.929688 73.847656 Z M 8.929688 73.847656 "/>
<path style=" stroke:none;fill-rule:nonzero;fill:rgb(18.431373%,18.039216%,25.490196%);fill-opacity:1;" d="M 10.9375 70.816406 C 10.914062 70.816406 10.890625 70.816406 10.867188 70.8125 L 9.085938 70.664062 C 8.921875 70.644531 8.773438 70.558594 8.671875 70.425781 C 8.574219 70.292969 8.535156 70.121094 8.5625 69.957031 L 10.207031 60.648438 L 9.09375 54.730469 C 9.074219 54.628906 8.988281 54.558594 8.886719 54.566406 C 8.785156 54.570312 8.707031 54.648438 8.695312 54.75 L 7.308594 70.535156 C 7.273438 70.863281 6.988281 71.109375 6.664062 71.089844 L 4.984375 71.027344 C 4.679688 71.003906 4.4375 70.757812 4.421875 70.449219 L 4.308594 51.527344 L 13.015625 50.429688 L 13.625 59.910156 L 13.621094 59.921875 L 11.523438 70.351562 C 11.457031 70.625 11.214844 70.816406 10.9375 70.816406 Z M 10.9375 70.816406 "/>
<path style=" stroke:none;fill-rule:nonzero;fill:rgb(100%,72.156863%,72.156863%);fill-opacity:1;" d="M 10.214844 27.832031 C 10.214844 29.523438 8.855469 30.894531 7.179688 30.894531 C 5.503906 30.894531 4.148438 29.523438 4.148438 27.832031 C 4.148438 26.140625 5.503906 24.769531 7.179688 24.769531 C 8.855469 24.769531 10.214844 26.140625 10.214844 27.832031 Z M 10.214844 27.832031 "/>
<path style=" stroke:none;fill-rule:nonzero;fill:rgb(42.352941%,38.823529%,100%);fill-opacity:1;" d="M 10.039062 52.910156 C 9.566406 52.914062 9.101562 52.78125 8.699219 52.523438 C 7.230469 51.597656 5.558594 51.964844 4.695312 52.269531 C 4.523438 52.328125 4.328125 52.308594 4.175781 52.207031 C 4.019531 52.109375 3.917969 51.949219 3.898438 51.765625 L 2.328125 37.601562 C 2.0625 35.226562 3.480469 32.996094 5.695312 32.292969 C 5.78125 32.269531 5.863281 32.242188 5.949219 32.21875 C 7.34375 31.835938 8.835938 32.101562 10.023438 32.933594 C 11.230469 33.777344 12.007812 35.117188 12.144531 36.59375 L 13.464844 50.851562 C 13.484375 51.039062 13.414062 51.226562 13.277344 51.351562 C 12.816406 51.785156 11.46875 52.910156 10.039062 52.910156 Z M 10.039062 52.910156 "/>
<path style=" stroke:none;fill-rule:nonzero;fill:rgb(42.352941%,38.823529%,100%);fill-opacity:1;" d="M 5.253906 40.636719 L 1.707031 40.246094 C 1.503906 40.222656 1.320312 40.109375 1.203125 39.941406 C 1.085938 39.769531 1.050781 39.554688 1.101562 39.355469 L 2.003906 35.882812 C 2.128906 34.800781 3.097656 34.023438 4.171875 34.144531 C 5.246094 34.265625 6.019531 35.242188 5.902344 36.328125 L 6.035156 39.902344 C 6.042969 40.109375 5.960938 40.308594 5.8125 40.453125 C 5.660156 40.59375 5.457031 40.660156 5.253906 40.636719 Z M 5.253906 40.636719 "/>
<path style=" stroke:none;fill-rule:nonzero;fill:rgb(100%,72.156863%,72.156863%);fill-opacity:1;" d="M 13.453125 51.550781 C 13.746094 51.289062 13.910156 50.910156 13.902344 50.511719 C 13.894531 50.117188 13.710938 49.746094 13.402344 49.5 L 12.527344 37.925781 L 9.960938 38.507812 L 11.46875 49.777344 C 11.082031 50.339844 11.175781 51.101562 11.679688 51.554688 C 12.1875 52.007812 12.949219 52.003906 13.453125 51.550781 Z M 13.453125 51.550781 "/>
<path style=" stroke:none;fill-rule:nonzero;fill:rgb(42.352941%,38.823529%,100%);fill-opacity:1;" d="M 8.976562 39.910156 C 8.824219 39.769531 8.742188 39.570312 8.75 39.363281 L 8.886719 35.785156 C 8.765625 34.703125 9.539062 33.726562 10.613281 33.605469 C 11.691406 33.480469 12.660156 34.257812 12.785156 35.34375 L 13.6875 38.8125 C 13.738281 39.015625 13.703125 39.226562 13.585938 39.398438 C 13.46875 39.570312 13.285156 39.679688 13.082031 39.703125 L 9.535156 40.097656 C 9.332031 40.121094 9.125 40.050781 8.976562 39.910156 Z M 8.976562 39.910156 "/>
<path style=" stroke:none;fill-rule:nonzero;fill:rgb(18.431373%,18.039216%,25.490196%);fill-opacity:1;" d="M 7 31.007812 C 6.945312 31.007812 6.894531 31.003906 6.839844 30.992188 L 6.824219 30.988281 C 4.15625 30.574219 3.566406 29.015625 3.4375 28.363281 C 3.304688 27.691406 3.457031 27.039062 3.800781 26.785156 C 3.613281 26.1875 3.644531 25.65625 3.890625 25.207031 C 4.324219 24.425781 5.261719 24.160156 5.386719 24.128906 C 6.132812 23.570312 7.03125 23.941406 7.191406 24.019531 C 8.640625 23.476562 9.195312 23.925781 9.292969 24.027344 C 9.941406 24.144531 10.335938 24.398438 10.464844 24.777344 C 10.710938 25.492188 9.933594 26.378906 9.902344 26.417969 L 9.882812 26.4375 L 8.726562 26.492188 C 8.503906 26.503906 8.292969 26.609375 8.15625 26.78125 C 8.011719 26.957031 7.953125 27.183594 7.988281 27.40625 C 8.015625 27.546875 8.058594 27.6875 8.105469 27.824219 C 8.300781 28.449219 8.453125 28.980469 8.261719 29.183594 C 8.171875 29.265625 8.046875 29.285156 7.933594 29.242188 C 7.753906 29.191406 7.632812 29.203125 7.570312 29.269531 C 7.476562 29.378906 7.503906 29.648438 7.652344 30.035156 C 7.746094 30.285156 7.695312 30.5625 7.523438 30.761719 C 7.394531 30.917969 7.203125 31.007812 7 31.007812 Z M 7 31.007812 "/>
<path style=" stroke:none;fill-rule:nonzero;fill:rgb(80%,80%,80%);fill-opacity:1;" d="M 17.417969 74.042969 L 0.125 74.042969 C 0.0546875 74.042969 0 73.988281 0 73.917969 C 0 73.847656 0.0546875 73.792969 0.125 73.792969 L 17.417969 73.792969 C 17.488281 73.792969 17.542969 73.847656 17.542969 73.917969 C 17.542969 73.988281 17.488281 74.042969 17.417969 74.042969 Z M 17.417969 74.042969 "/>
<path style=" stroke:none;fill-rule:nonzero;fill:rgb(80%,80%,80%);fill-opacity:1;" d="M 77.703125 74.042969 L 60.410156 74.042969 C 60.339844 74.042969 60.285156 73.988281 60.285156 73.917969 C 60.285156 73.847656 60.339844 73.792969 60.410156 73.792969 L 77.703125 73.792969 C 77.773438 73.792969 77.828125 73.847656 77.828125 73.917969 C 77.828125 73.988281 77.773438 74.042969 77.703125 74.042969 Z M 77.703125 74.042969 "/>
<path style=" stroke:none;fill-rule:nonzero;fill:rgb(100%,100%,100%);fill-opacity:1;" d="M 52.960938 52.855469 L 23.066406 52.855469 C 20.679688 52.855469 18.746094 50.902344 18.742188 48.492188 L 18.742188 4.363281 C 18.746094 1.953125 20.679688 0.00390625 23.066406 0 L 52.960938 0 C 55.347656 0.00390625 57.28125 1.953125 57.285156 4.363281 L 57.285156 48.492188 C 57.28125 50.902344 55.347656 52.855469 52.960938 52.855469 Z M 52.960938 52.855469 "/>
<path style=" stroke:none;fill-rule:nonzero;fill:rgb(80%,80%,80%);fill-opacity:1;" d="M 48.265625 35.035156 L 27.761719 35.035156 C 25.664062 35.023438 25.65625 31.804688 27.761719 31.792969 L 48.265625 31.792969 C 50.359375 31.800781 50.371094 35.023438 48.265625 35.035156 Z M 48.265625 35.035156 "/>
<path style=" stroke:none;fill-rule:nonzero;fill:rgb(80%,80%,80%);fill-opacity:1;" d="M 48.265625 9.097656 L 27.761719 9.097656 C 25.664062 9.085938 25.65625 5.867188 27.761719 5.855469 L 48.265625 5.855469 C 50.359375 5.863281 50.371094 9.085938 48.265625 9.097656 Z M 48.265625 9.097656 "/>
<path style=" stroke:none;fill-rule:nonzero;fill:rgb(80%,80%,80%);fill-opacity:1;" d="M 48.265625 41.019531 L 27.761719 41.019531 C 25.664062 41.007812 25.65625 37.789062 27.761719 37.777344 L 48.265625 37.777344 C 50.359375 37.785156 50.371094 41.007812 48.265625 41.019531 Z M 48.265625 41.019531 "/>
<path style=" stroke:none;fill-rule:nonzero;fill:rgb(80%,80%,80%);fill-opacity:1;" d="M 48.265625 47 L 27.761719 47 C 25.664062 46.992188 25.65625 43.769531 27.761719 43.761719 L 48.265625 43.761719 C 50.359375 43.769531 50.371094 46.988281 48.265625 47 Z M 48.265625 47 "/>
<path style=" stroke:none;fill-rule:nonzero;fill:rgb(42.352941%,38.823529%,100%);fill-opacity:1;" d="M 47.894531 27.902344 L 28.128906 27.902344 C 27.003906 27.902344 26.09375 26.980469 26.089844 25.847656 L 26.089844 14.675781 C 26.09375 13.542969 27.003906 12.621094 28.128906 12.621094 L 47.894531 12.621094 C 49.023438 12.621094 49.933594 13.542969 49.933594 14.675781 L 49.933594 25.847656 C 49.933594 26.980469 49.023438 27.902344 47.894531 27.902344 Z M 47.894531 27.902344 "/>
<path style=" stroke:none;fill-rule:nonzero;fill:rgb(90.196078%,90.196078%,90.196078%);fill-opacity:1;" d="M 52.960938 52.855469 L 23.066406 52.855469 C 20.679688 52.855469 18.746094 50.902344 18.742188 48.492188 L 18.742188 4.363281 C 18.746094 1.953125 20.679688 0.00390625 23.066406 0 L 52.960938 0 C 55.347656 0.00390625 57.28125 1.953125 57.285156 4.363281 L 57.285156 48.492188 C 57.28125 50.902344 55.347656 52.855469 52.960938 52.855469 Z M 23.066406 0.746094 C 21.085938 0.75 19.484375 2.367188 19.484375 4.363281 L 19.484375 48.492188 C 19.484375 50.488281 21.085938 52.105469 23.066406 52.109375 L 52.960938 52.109375 C 54.9375 52.105469 56.542969 50.488281 56.542969 48.492188 L 56.542969 4.363281 C 56.542969 2.367188 54.9375 0.75 52.960938 0.746094 Z M 23.066406 0.746094 "/>
</g>
</svg>
