<?xml version="1.0" encoding="UTF-8"?>
<svg xmlns="http://www.w3.org/2000/svg" xmlns:xlink="http://www.w3.org/1999/xlink" width="260pt" height="245pt" viewBox="0 0 260 245" version="1.1">
<g id="surface1">
<path style=" stroke:none;fill-rule:nonzero;fill:rgb(80%,80%,80%);fill-opacity:1;" d="M 208.535156 189.707031 C 202.617188 189.707031 197.820312 184.90625 197.820312 178.980469 C 197.820312 173.058594 202.617188 168.257812 208.535156 168.257812 C 214.449219 168.257812 219.246094 173.058594 219.246094 178.980469 C 219.238281 184.902344 214.449219 189.699219 208.535156 189.707031 Z M 208.535156 189.707031 "/>
<path style=" stroke:none;fill-rule:nonzero;fill:rgb(100%,100%,100%);fill-opacity:1;" d="M 213.476562 178.570312 L 208.945312 178.570312 L 208.945312 173.414062 C 208.945312 173.1875 208.761719 173 208.535156 173 C 208.304688 173 208.121094 173.1875 208.121094 173.414062 L 208.121094 178.570312 L 203.589844 178.570312 C 203.359375 178.570312 203.175781 178.753906 203.175781 178.980469 C 203.175781 179.210938 203.359375 179.394531 203.589844 179.394531 L 208.121094 179.394531 L 208.121094 184.550781 C 208.121094 184.777344 208.304688 184.964844 208.535156 184.964844 C 208.761719 184.964844 208.945312 184.777344 208.945312 184.550781 L 208.945312 179.394531 L 213.476562 179.394531 C 213.707031 179.394531 213.890625 179.210938 213.890625 178.980469 C 213.890625 178.753906 213.707031 178.570312 213.476562 178.570312 Z M 213.476562 178.570312 "/>
<path style=" stroke:none;fill-rule:nonzero;fill:rgb(100%,72.156863%,72.156863%);fill-opacity:1;" d="M 249.789062 239.960938 L 245.078125 239.957031 L 242.839844 221.769531 L 249.792969 221.773438 Z M 249.789062 239.960938 "/>
<path style=" stroke:none;fill-rule:nonzero;fill:rgb(18.431373%,18.039216%,25.490196%);fill-opacity:1;" d="M 241.714844 238.613281 L 250.800781 238.613281 L 250.800781 244.335938 L 235.996094 244.335938 C 235.996094 241.175781 238.554688 238.613281 241.714844 238.613281 Z M 241.714844 238.613281 "/>
<path style=" stroke:none;fill-rule:nonzero;fill:rgb(100%,72.156863%,72.156863%);fill-opacity:1;" d="M 231.042969 239.960938 L 226.332031 239.957031 L 224.089844 221.769531 L 231.042969 221.773438 Z M 231.042969 239.960938 "/>
<path style=" stroke:none;fill-rule:nonzero;fill:rgb(18.431373%,18.039216%,25.490196%);fill-opacity:1;" d="M 222.964844 238.613281 L 232.050781 238.613281 L 232.050781 244.335938 L 217.246094 244.335938 C 217.246094 241.175781 219.808594 238.613281 222.964844 238.613281 Z M 222.964844 238.613281 "/>
<path style=" stroke:none;fill-rule:nonzero;fill:rgb(100%,72.156863%,72.156863%);fill-opacity:1;" d="M 253.417969 177.078125 C 252.652344 176.230469 252.296875 175.085938 252.457031 173.953125 C 252.613281 172.820312 253.261719 171.8125 254.234375 171.207031 L 252.773438 162.488281 L 257.847656 160.308594 L 259.738281 172.648438 C 260.667969 174.382812 260.15625 176.542969 258.542969 177.671875 C 256.933594 178.804688 254.730469 178.550781 253.417969 177.078125 Z M 253.417969 177.078125 "/>
<path style=" stroke:none;fill-rule:nonzero;fill:rgb(100%,72.156863%,72.156863%);fill-opacity:1;" d="M 213.679688 172.960938 C 214.578125 172.25 215.117188 171.179688 215.148438 170.035156 C 215.179688 168.890625 214.703125 167.792969 213.847656 167.03125 L 216.726562 158.675781 L 212.078125 155.6875 L 208.179688 167.546875 C 206.976562 169.101562 207.125 171.316406 208.527344 172.699219 C 209.933594 174.082031 212.144531 174.191406 213.679688 172.960938 Z M 213.679688 172.960938 "/>
<path style=" stroke:none;fill-rule:nonzero;fill:rgb(100%,72.156863%,72.156863%);fill-opacity:1;" d="M 247.925781 101.277344 C 247.925781 106.871094 243.394531 111.40625 237.808594 111.40625 C 232.21875 111.40625 227.6875 106.871094 227.6875 101.277344 C 227.6875 95.679688 232.21875 91.144531 237.808594 91.144531 C 243.394531 91.144531 247.925781 95.679688 247.925781 101.277344 Z M 247.925781 101.277344 "/>
<path style=" stroke:none;fill-rule:nonzero;fill:rgb(24.705882%,23.921569%,33.72549%);fill-opacity:1;" d="M 213.367188 166.710938 C 213.195312 166.710938 213.023438 166.683594 212.855469 166.636719 L 209.90625 165.789062 C 208.925781 165.507812 208.355469 164.484375 208.632812 163.5 L 214.722656 141.984375 L 223.210938 121.125 C 224.054688 119.050781 225.816406 117.691406 227.8125 117.574219 C 229.675781 117.484375 231.414062 118.5 232.253906 120.164062 C 233.179688 121.933594 233.234375 124.03125 232.402344 125.84375 L 222.75 146.964844 L 215.082031 165.5625 C 214.796875 166.257812 214.117188 166.710938 213.367188 166.710938 Z M 213.367188 166.710938 "/>
<path style=" stroke:none;fill-rule:nonzero;fill:rgb(18.431373%,18.039216%,25.490196%);fill-opacity:1;" d="M 243.519531 109.769531 L 237.894531 109.871094 C 236.707031 109.894531 235.578125 109.351562 234.855469 108.410156 C 234.132812 107.464844 233.898438 106.234375 234.230469 105.089844 C 234.351562 104.683594 234.441406 104.269531 234.5 103.847656 C 234.5625 103.390625 234.574219 102.925781 234.535156 102.464844 C 234.464844 101.515625 233.742188 100.742188 232.800781 100.601562 C 231.855469 100.464844 230.945312 100.996094 230.601562 101.882812 C 229.652344 101.898438 227.640625 101.589844 226.695312 101.601562 C 224.6875 96.453125 229.0625 89.710938 233.769531 87.179688 C 238.570312 84.597656 244.804688 87.222656 246.644531 92.601562 C 249.199219 92.648438 251.273438 95.171875 251.601562 98.007812 C 251.929688 100.847656 250.765625 103.8125 248.980469 105.988281 C 247.195312 108.160156 244.851562 109.746094 243.519531 109.769531 Z M 243.519531 109.769531 "/>
<path style=" stroke:none;fill-rule:nonzero;fill:rgb(18.431373%,18.039216%,25.490196%);fill-opacity:1;" d="M 225.035156 238.261719 C 224.089844 238.257812 223.300781 237.546875 223.195312 236.605469 L 221.109375 166.390625 L 247.394531 168.265625 L 247.414062 168.433594 C 253.351562 218.203125 251.324219 235.429688 251.300781 235.597656 C 251.273438 236.113281 251.03125 236.59375 250.632812 236.921875 C 250.234375 237.25 249.71875 237.398438 249.210938 237.332031 L 243.402344 237.472656 C 242.492188 237.367188 241.792969 236.617188 241.757812 235.699219 L 236.332031 184.84375 C 236.261719 184.570312 236.007812 184.386719 235.726562 184.40625 C 235.4375 184.40625 235.191406 184.609375 235.132812 184.894531 L 233.035156 235.917969 C 233.082031 236.898438 232.351562 237.746094 231.371094 237.84375 L 225.21875 238.25 C 225.15625 238.257812 225.097656 238.261719 225.035156 238.261719 Z M 225.035156 238.261719 "/>
<path style=" stroke:none;fill-rule:nonzero;fill:rgb(24.705882%,23.921569%,33.72549%);fill-opacity:1;" d="M 235.941406 174.78125 C 235.785156 174.78125 235.625 174.78125 235.46875 174.773438 C 227.910156 174.546875 222 168.824219 220.367188 167.074219 C 219.945312 166.621094 219.777344 165.988281 219.921875 165.382812 L 224.28125 146.921875 L 223.125 130.871094 C 222.757812 126.363281 224.332031 121.914062 227.453125 118.648438 C 230.054688 115.894531 233.71875 114.410156 237.5 114.578125 C 244.859375 114.929688 250.664062 121.511719 250.714844 129.5625 C 250.796875 142.035156 250.429688 142.890625 250.308594 143.171875 C 246.636719 151.75 248.644531 163.789062 249.34375 167.277344 C 249.472656 167.910156 249.265625 168.5625 248.792969 169.003906 C 244.753906 172.839844 240.433594 174.78125 235.941406 174.78125 Z M 235.941406 174.78125 "/>
<path style=" stroke:none;fill-rule:nonzero;fill:rgb(24.705882%,23.921569%,33.72549%);fill-opacity:1;" d="M 254.921875 170.089844 C 254.058594 170.089844 253.308594 169.492188 253.117188 168.648438 L 248.617188 149.03125 L 242.589844 126.613281 C 242.066406 124.683594 242.46875 122.625 243.671875 121.035156 C 244.777344 119.53125 246.660156 118.820312 248.480469 119.214844 C 250.429688 119.660156 251.941406 121.292969 252.433594 123.476562 L 257.359375 145.433594 L 259.816406 167.679688 C 259.925781 168.695312 259.195312 169.609375 258.183594 169.726562 L 255.132812 170.078125 C 255.0625 170.085938 254.992188 170.089844 254.921875 170.089844 Z M 254.921875 170.089844 "/>
<path style=" stroke:none;fill-rule:nonzero;fill:rgb(100%,72.156863%,72.156863%);fill-opacity:1;" d="M 12.703125 172.203125 C 13.785156 171.460938 14.480469 170.28125 14.605469 168.976562 C 14.734375 167.667969 14.273438 166.375 13.355469 165.441406 L 15.074219 127.074219 L 6.332031 128.058594 L 6.839844 165.585938 C 5.339844 167.269531 5.339844 169.8125 6.835938 171.503906 C 8.332031 173.191406 10.851562 173.492188 12.703125 172.203125 Z M 12.703125 172.203125 "/>
<path style=" stroke:none;fill-rule:nonzero;fill:rgb(100%,72.156863%,72.156863%);fill-opacity:1;" d="M 28.652344 237.148438 L 33.625 238.023438 L 38.542969 219.230469 L 32.023438 217.941406 Z M 28.652344 237.148438 "/>
<path style=" stroke:none;fill-rule:nonzero;fill:rgb(18.431373%,18.039216%,25.490196%);fill-opacity:1;" d="M 42.410156 244.335938 L 26.773438 241.585938 L 27.835938 235.539062 L 37.429688 237.226562 C 40.765625 237.8125 42.996094 240.996094 42.410156 244.335938 Z M 42.410156 244.335938 "/>
<path style=" stroke:none;fill-rule:nonzero;fill:rgb(100%,72.156863%,72.156863%);fill-opacity:1;" d="M 14.996094 239.640625 L 20.046875 239.640625 L 22.449219 220.136719 L 14.996094 220.136719 Z M 14.996094 239.640625 "/>
<path style=" stroke:none;fill-rule:nonzero;fill:rgb(18.431373%,18.039216%,25.490196%);fill-opacity:1;" d="M 29.789062 244.335938 L 13.914062 244.335938 L 13.914062 238.199219 L 23.65625 238.195312 C 27.042969 238.195312 29.789062 240.945312 29.789062 244.335938 Z M 29.789062 244.335938 "/>
<path style=" stroke:none;fill-rule:nonzero;fill:rgb(18.431373%,18.039216%,25.490196%);fill-opacity:1;" d="M 36.484375 234.300781 C 36.40625 234.300781 36.328125 234.296875 36.25 234.289062 L 30.300781 233.796875 C 29.753906 233.734375 29.257812 233.445312 28.929688 233.003906 C 28.597656 232.5625 28.464844 232.007812 28.554688 231.464844 L 34.046875 200.660156 L 30.335938 181.078125 C 30.273438 180.75 29.976562 180.519531 29.644531 180.535156 C 29.308594 180.550781 29.039062 180.8125 29.007812 181.144531 L 24.371094 233.375 C 24.265625 234.464844 23.316406 235.273438 22.222656 235.203125 L 16.621094 234.996094 C 15.605469 234.921875 14.804688 234.101562 14.753906 233.085938 L 14.375 170.488281 L 43.417969 166.855469 L 45.445312 198.21875 L 45.4375 198.25 L 38.4375 232.761719 C 38.21875 233.664062 37.410156 234.300781 36.484375 234.300781 Z M 36.484375 234.300781 "/>
<path style=" stroke:none;fill-rule:nonzero;fill:rgb(100%,72.156863%,72.156863%);fill-opacity:1;" d="M 34.070312 92.082031 C 34.070312 97.679688 29.542969 102.214844 23.953125 102.214844 C 18.363281 102.214844 13.832031 97.679688 13.832031 92.082031 C 13.832031 86.488281 18.363281 81.953125 23.953125 81.953125 C 29.542969 81.953125 34.070312 86.488281 34.070312 92.082031 Z M 34.070312 92.082031 "/>
<path style=" stroke:none;fill-rule:nonzero;fill:rgb(42.352941%,38.823529%,100%);fill-opacity:1;" d="M 33.488281 175.0625 C 31.90625 175.070312 30.351562 174.628906 29.015625 173.78125 C 24.113281 170.714844 18.542969 171.933594 15.660156 172.933594 C 15.082031 173.136719 14.441406 173.0625 13.921875 172.734375 C 13.410156 172.414062 13.070312 171.871094 13.003906 171.269531 L 7.761719 124.402344 C 6.882812 116.550781 11.609375 109.167969 19 106.851562 C 19.277344 106.761719 19.558594 106.679688 19.84375 106.601562 C 24.5 105.339844 29.472656 106.203125 33.429688 108.960938 C 37.460938 111.753906 40.050781 116.183594 40.503906 121.070312 L 44.917969 168.25 C 44.980469 168.867188 44.746094 169.480469 44.289062 169.902344 C 42.742188 171.335938 38.25 175.0625 33.488281 175.0625 Z M 33.488281 175.0625 "/>
<path style=" stroke:none;fill-rule:nonzero;fill:rgb(42.352941%,38.823529%,100%);fill-opacity:1;" d="M 17.523438 134.453125 L 5.699219 133.152344 C 5.015625 133.078125 4.402344 132.710938 4.015625 132.144531 C 3.625 131.578125 3.503906 130.875 3.675781 130.210938 L 6.6875 118.722656 C 7.101562 115.136719 10.335938 112.5625 13.921875 112.96875 C 17.503906 113.375 20.085938 116.605469 19.6875 120.195312 L 20.136719 132.023438 C 20.160156 132.707031 19.886719 133.371094 19.386719 133.835938 C 18.886719 134.304688 18.207031 134.527344 17.523438 134.453125 Z M 17.523438 134.453125 "/>
<path style=" stroke:none;fill-rule:nonzero;fill:rgb(100%,72.156863%,72.156863%);fill-opacity:1;" d="M 44.871094 170.5625 C 45.855469 169.695312 46.402344 168.4375 46.371094 167.125 C 46.339844 165.816406 45.726562 164.585938 44.703125 163.769531 L 41.789062 125.476562 L 33.222656 127.40625 L 38.25 164.699219 C 36.964844 166.550781 37.269531 169.078125 38.960938 170.574219 C 40.648438 172.070312 43.1875 172.0625 44.871094 170.5625 Z M 44.871094 170.5625 "/>
<path style=" stroke:none;fill-rule:nonzero;fill:rgb(42.352941%,38.823529%,100%);fill-opacity:1;" d="M 29.9375 132.046875 C 29.4375 131.578125 29.164062 130.917969 29.191406 130.230469 L 29.636719 118.40625 C 29.242188 114.816406 31.824219 111.585938 35.40625 111.179688 C 38.988281 110.773438 42.226562 113.347656 42.640625 116.933594 L 45.648438 128.421875 C 45.824219 129.082031 45.699219 129.789062 45.3125 130.355469 C 44.925781 130.921875 44.308594 131.289062 43.628906 131.363281 L 31.800781 132.664062 C 31.121094 132.738281 30.441406 132.515625 29.9375 132.046875 Z M 29.9375 132.046875 "/>
<path style=" stroke:none;fill-rule:nonzero;fill:rgb(18.431373%,18.039216%,25.490196%);fill-opacity:1;" d="M 23.351562 102.59375 C 23.171875 102.59375 22.992188 102.574219 22.816406 102.53125 L 22.765625 102.519531 C 13.867188 101.15625 11.898438 96 11.46875 93.84375 C 11.023438 91.613281 11.53125 89.460938 12.679688 88.625 C 12.054688 86.644531 12.152344 84.886719 12.980469 83.402344 C 14.417969 80.8125 17.546875 79.9375 17.964844 79.828125 C 20.460938 77.984375 23.449219 79.214844 23.992188 79.464844 C 28.820312 77.675781 30.664062 79.164062 31 79.496094 C 33.15625 79.886719 34.472656 80.71875 34.910156 81.980469 C 35.730469 84.34375 33.136719 87.28125 33.023438 87.40625 L 32.96875 87.472656 L 29.101562 87.65625 C 28.359375 87.691406 27.667969 88.039062 27.199219 88.617188 C 26.730469 89.191406 26.523438 89.9375 26.636719 90.671875 C 26.742188 91.140625 26.875 91.605469 27.035156 92.058594 C 27.691406 94.121094 28.1875 95.886719 27.550781 96.558594 C 27.253906 96.820312 26.835938 96.894531 26.46875 96.746094 C 25.863281 96.582031 25.453125 96.617188 25.25 96.847656 C 24.933594 97.199219 25.027344 98.097656 25.523438 99.371094 C 25.835938 100.195312 25.671875 101.121094 25.089844 101.785156 C 24.65625 102.296875 24.019531 102.59375 23.351562 102.59375 Z M 23.351562 102.59375 "/>
<path style=" stroke:none;fill-rule:nonzero;fill:rgb(80%,80%,80%);fill-opacity:1;" d="M 58.097656 244.976562 L 0.410156 244.976562 C 0.183594 244.976562 0 244.789062 0 244.5625 C 0 244.335938 0.183594 244.152344 0.410156 244.152344 L 58.097656 244.152344 C 58.324219 244.152344 58.511719 244.335938 58.511719 244.5625 C 58.511719 244.789062 58.324219 244.976562 58.097656 244.976562 Z M 58.097656 244.976562 "/>
<path style=" stroke:none;fill-rule:nonzero;fill:rgb(80%,80%,80%);fill-opacity:1;" d="M 259.175781 244.976562 L 201.488281 244.976562 C 201.261719 244.976562 201.078125 244.789062 201.078125 244.5625 C 201.078125 244.335938 201.261719 244.152344 201.488281 244.152344 L 259.175781 244.152344 C 259.402344 244.152344 259.589844 244.335938 259.589844 244.5625 C 259.589844 244.789062 259.402344 244.976562 259.175781 244.976562 Z M 259.175781 244.976562 "/>
<path style=" stroke:none;fill-rule:nonzero;fill:rgb(100%,100%,100%);fill-opacity:1;" d="M 176.648438 174.882812 L 76.933594 174.882812 C 68.972656 174.875 62.519531 168.414062 62.511719 160.445312 L 62.511719 14.4375 C 62.519531 6.46875 68.972656 0.0078125 76.933594 0 L 176.648438 0 C 184.609375 0.0078125 191.0625 6.46875 191.070312 14.4375 L 191.070312 160.445312 C 191.0625 168.414062 184.609375 174.875 176.648438 174.882812 Z M 176.648438 174.882812 "/>
<path style=" stroke:none;fill-rule:nonzero;fill:rgb(80%,80%,80%);fill-opacity:1;" d="M 160.992188 115.914062 L 92.589844 115.914062 C 85.605469 115.878906 85.574219 105.226562 92.59375 105.1875 L 160.992188 105.1875 C 167.972656 105.222656 168.011719 115.875 160.992188 115.914062 Z M 160.992188 115.914062 "/>
<path style=" stroke:none;fill-rule:nonzero;fill:rgb(80%,80%,80%);fill-opacity:1;" d="M 160.992188 30.097656 L 92.589844 30.097656 C 85.605469 30.0625 85.574219 19.410156 92.59375 19.375 L 160.992188 19.375 C 167.972656 19.40625 168.011719 30.0625 160.992188 30.097656 Z M 160.992188 30.097656 "/>
<path style=" stroke:none;fill-rule:nonzero;fill:rgb(80%,80%,80%);fill-opacity:1;" d="M 160.992188 135.710938 L 92.589844 135.710938 C 85.605469 135.675781 85.574219 125.023438 92.59375 124.988281 L 160.992188 124.988281 C 167.972656 125.019531 168.011719 135.675781 160.992188 135.710938 Z M 160.992188 135.710938 "/>
<path style=" stroke:none;fill-rule:nonzero;fill:rgb(80%,80%,80%);fill-opacity:1;" d="M 160.992188 155.507812 L 92.589844 155.507812 C 85.605469 155.476562 85.574219 144.820312 92.59375 144.785156 L 160.992188 144.785156 C 167.972656 144.816406 168.011719 155.472656 160.992188 155.507812 Z M 160.992188 155.507812 "/>
<path style=" stroke:none;fill-rule:nonzero;fill:rgb(42.352941%,38.823529%,100%);fill-opacity:1;" d="M 159.753906 92.320312 L 93.828125 92.320312 C 90.074219 92.316406 87.03125 89.269531 87.027344 85.515625 L 87.027344 48.558594 C 87.03125 44.800781 90.074219 41.757812 93.828125 41.753906 L 159.753906 41.753906 C 163.507812 41.757812 166.550781 44.800781 166.554688 48.558594 L 166.554688 85.515625 C 166.550781 89.269531 163.507812 92.316406 159.753906 92.320312 Z M 159.753906 92.320312 "/>
<path style=" stroke:none;fill-rule:nonzero;fill:rgb(90.196078%,90.196078%,90.196078%);fill-opacity:1;" d="M 176.648438 174.882812 L 76.933594 174.882812 C 68.972656 174.875 62.519531 168.414062 62.511719 160.445312 L 62.511719 14.4375 C 62.519531 6.46875 68.972656 0.0078125 76.933594 0 L 176.648438 0 C 184.609375 0.0078125 191.0625 6.46875 191.070312 14.4375 L 191.070312 160.445312 C 191.0625 168.414062 184.609375 174.875 176.648438 174.882812 Z M 76.933594 2.476562 C 70.335938 2.480469 64.992188 7.832031 64.984375 14.4375 L 64.984375 160.445312 C 64.992188 167.050781 70.335938 172.398438 76.933594 172.40625 L 176.648438 172.40625 C 183.246094 172.398438 188.589844 167.050781 188.597656 160.445312 L 188.597656 14.4375 C 188.589844 7.832031 183.246094 2.480469 176.648438 2.476562 Z M 76.933594 2.476562 "/>
</g>
</svg>
